<svg width="34" height="34" viewBox="0 0 34 34" fill="none" xmlns="http://www.w3.org/2000/svg">
<path d="M28.2116 15.7318C28.2918 15.2138 28.3325 14.6905 28.3334 14.1663C28.3334 11.1606 27.1394 8.27788 25.014 6.15246C22.8885 4.02705 20.0059 2.83301 17.0001 2.83301C13.9943 2.83301 11.1116 4.02705 8.9862 6.15246C6.86079 8.27788 5.66675 11.1606 5.66675 14.1663C5.66675 21.2398 13.5137 28.6064 16.1487 30.8816C16.3941 31.0662 16.693 31.166 17.0001 31.166C17.3072 31.166 17.606 31.0662 17.8515 30.8816C18.2466 30.5398 18.6358 30.1913 19.0188 29.8361" stroke="white" stroke-width="2" stroke-linecap="round" stroke-linejoin="round"/>
<path d="M17 18.417C19.3472 18.417 21.25 16.5142 21.25 14.167C21.25 11.8198 19.3472 9.91699 17 9.91699C14.6528 9.91699 12.75 11.8198 12.75 14.167C12.75 16.5142 14.6528 18.417 17 18.417Z" stroke="white" stroke-width="2" stroke-linecap="round" stroke-linejoin="round"/>
<path d="M22.6667 25.5H31.1667" stroke="white" stroke-width="2" stroke-linecap="round" stroke-linejoin="round"/>
<path d="M26.9167 21.25V29.75" stroke="white" stroke-width="2" stroke-linecap="round" stroke-linejoin="round"/>
</svg>
