<svg width="130" height="111" viewBox="0 0 130 111" fill="none" xmlns="http://www.w3.org/2000/svg">
<g clip-path="url(#clip0_221_668)">
<path d="M100.341 107.264L98.4927 107.876L95.2578 101.018L97.985 100.113L100.341 107.264Z" fill="#FFB8B8"/>
<path d="M96.9985 107.784L100.562 106.603L101.303 108.854L95.4965 110.779C95.3991 110.484 95.3607 110.172 95.3835 109.861C95.4062 109.551 95.4897 109.248 95.6292 108.97C95.7687 108.692 95.9614 108.444 96.1963 108.24C96.4313 108.037 96.7039 107.882 96.9985 107.784Z" fill="#2F2E41"/>
<path d="M88.151 108.967L86.205 108.966L85.2793 101.436L88.1514 101.436L88.151 108.967Z" fill="#FFB8B8"/>
<path d="M84.8149 108.408H88.5679V110.779H82.4519C82.4519 110.468 82.513 110.159 82.6318 109.872C82.7505 109.584 82.9246 109.323 83.144 109.103C83.3634 108.882 83.6239 108.708 83.9106 108.589C84.1973 108.47 84.5046 108.408 84.8149 108.408Z" fill="#2F2E41"/>
<path d="M86.3522 81.0112L86.2531 81.4518C84.9122 87.4093 84.4347 96.0778 84.8352 102.172L85.1446 106.88C85.1552 107.041 85.2265 107.193 85.3442 107.303C85.4618 107.414 85.6169 107.475 85.7781 107.475H88.1111C88.2667 107.475 88.4168 107.418 88.533 107.314C88.6493 107.21 88.7235 107.067 88.7417 106.912L90.5524 91.4704C90.5694 91.3257 90.6353 91.1912 90.7392 91.0893C90.843 90.9874 90.9786 90.9244 91.1232 90.9107C91.2678 90.8969 91.4127 90.9333 91.5337 91.0138C91.6548 91.0943 91.7447 91.2141 91.7885 91.353L96.4814 105.307C96.5199 105.43 96.5944 105.538 96.6952 105.617C96.7959 105.696 96.9182 105.743 97.0459 105.751L100.61 105.982C100.712 105.989 100.815 105.97 100.91 105.928C101.004 105.886 101.086 105.821 101.15 105.74C101.213 105.658 101.256 105.563 101.275 105.461C101.294 105.359 101.287 105.255 101.256 105.156L99.1113 99.2383C97.4538 93.9275 96.5628 85.858 96.4655 80.2938C96.464 80.206 96.4444 80.1195 96.4079 80.0397C96.3715 79.9598 96.319 79.8884 96.2537 79.8299C96.1885 79.7714 96.1118 79.7271 96.0287 79.6997C95.9455 79.6723 95.8576 79.6625 95.7705 79.6708L86.9113 80.5174C86.7782 80.5301 86.6524 80.5847 86.552 80.6734C86.4516 80.762 86.3817 80.8803 86.3522 81.0112Z" fill="#2F2E41"/>
<path d="M91.5397 56.2741C93.6928 56.2741 95.4383 54.5228 95.4383 52.3626C95.4383 50.2024 93.6928 48.4512 91.5397 48.4512C89.3866 48.4512 87.6411 50.2024 87.6411 52.3626C87.6411 54.5228 89.3866 56.2741 91.5397 56.2741Z" fill="#A0616A"/>
<path d="M88.9806 82.2927C88.2041 82.291 87.4283 82.25 86.656 82.1696C86.4079 82.1425 86.1802 82.0192 86.0216 81.8259C85.863 81.6326 85.786 81.3847 85.8071 81.1353L87.1364 68.2506C87.4569 64.6061 87.9521 61.0881 90.4577 58.1086C90.5428 58.0076 90.6478 57.9254 90.7662 57.8671C90.8845 57.8088 91.0136 57.7757 91.1453 57.7699L91.2394 57.7663C92.2278 57.7249 92.6833 57.761 92.8114 57.8898L93.5008 58.5713C97.7045 61.6904 97.8792 81.45 96.8435 81.0606C96.6431 80.9856 94.2507 81.0609 94.0842 81.1749C92.7337 82.0984 90.5635 82.2925 88.9806 82.2927Z" fill="#ACACAC"/>
<path d="M73.6844 75.1404C73.7837 74.9285 73.928 74.741 74.1073 74.5911C74.2865 74.4413 74.4964 74.3327 74.722 74.273C74.9477 74.2133 75.1836 74.2039 75.4132 74.2456C75.6428 74.2873 75.8605 74.379 76.051 74.5142L80.6643 71.2031L80.7762 74.1583L76.3782 76.8495C76.1306 77.1555 75.7796 77.3597 75.3919 77.4235C75.0042 77.4872 74.6067 77.4061 74.2747 77.1954C73.9426 76.9847 73.6991 76.6592 73.5903 76.2804C73.4816 75.9016 73.515 75.496 73.6844 75.1404Z" fill="#A0616A"/>
<path d="M78.2662 76.014L76.7036 73.2543L90.9365 62.9578C91.2576 62.7255 91.6231 62.5621 92.0101 62.4778C92.3971 62.3936 92.7972 62.3903 93.1855 62.4682C93.5738 62.5461 93.9419 62.7035 94.2668 62.9306C94.5917 63.1577 94.8664 63.4496 95.0738 63.788C95.2812 64.1264 95.4168 64.5041 95.4722 64.8975C95.5275 65.2909 95.5014 65.6915 95.3955 66.0743C95.2896 66.4571 95.1061 66.8138 94.8565 67.1223C94.607 67.4307 94.2967 67.6842 93.9451 67.8669L78.2662 76.014Z" fill="#ACACAC"/>
<path d="M93.2913 55.6687C93.4233 55.7993 93.5979 55.8778 93.7829 55.8897C93.9679 55.9016 94.151 55.8461 94.2986 55.7335C95.2174 55.0501 96.0241 54.1995 96.5014 53.162C97.0484 51.9732 97.1094 50.5144 96.4499 49.3845C95.8924 48.4293 94.908 47.813 93.9268 47.3068C93.5458 47.0911 93.1355 46.9324 92.7087 46.8358C92.2774 46.7404 91.826 46.8134 91.4466 47.0401C91.2609 47.1569 91.1146 47.3272 91.0269 47.5286C90.9391 47.73 90.9138 47.9533 90.9544 48.1694C90.4831 47.6299 89.8795 47.2233 89.2033 46.99C88.7775 46.8229 88.3113 46.789 87.866 46.8928C87.2433 47.0699 86.7888 47.625 86.5402 48.2245C86.3391 48.6805 86.2697 49.184 86.3398 49.6776C86.3767 49.9233 86.4645 50.1585 86.5977 50.3679C86.7309 50.5773 86.9064 50.7564 87.1129 50.8935C87.6277 51.213 88.2844 51.19 88.8756 51.0595C89.4668 50.9289 90.0391 50.7018 90.6417 50.6444C91.2443 50.587 91.9154 50.7378 92.2822 51.2209C92.5404 51.5612 92.6068 52.0058 92.6647 52.4295L92.9663 54.6335C92.9909 54.9523 93.0721 55.2641 93.206 55.5544C93.2291 55.5962 93.2579 55.6346 93.2913 55.6687Z" fill="#2F2E41"/>
<path d="M101.703 83.075C101.514 82.9379 101.357 82.7609 101.243 82.5564C101.13 82.3518 101.062 82.1248 101.046 81.8913C101.029 81.6578 101.064 81.4234 101.147 81.2048C101.23 80.9861 101.361 80.7884 101.528 80.6257L99.1399 75.4639L102.055 75.901L103.876 80.7358C104.13 81.0366 104.265 81.4205 104.256 81.8145C104.246 82.2086 104.093 82.5855 103.825 82.8738C103.557 83.1622 103.193 83.3419 102.802 83.379C102.411 83.4161 102.02 83.3079 101.703 83.075Z" fill="#A0616A"/>
<path d="M103.3 77.592L100.549 79.1597L90.2868 64.8798C90.0552 64.5576 89.8924 64.1909 89.8084 63.8027C89.7244 63.4144 89.7212 63.013 89.7988 62.6234C89.8765 62.2338 90.0334 61.8645 90.2597 61.5386C90.4861 61.2126 90.777 60.9369 91.1143 60.7288C91.4516 60.5207 91.828 60.3847 92.2201 60.3291C92.6122 60.2736 93.0115 60.2998 93.393 60.4061C93.7746 60.5124 94.1302 60.6964 94.4376 60.9468C94.745 61.1972 94.9977 61.5085 95.1798 61.8613L103.3 77.592Z" fill="#ACACAC"/>
<path d="M78.2467 26.322H77.6401V9.64979C77.6401 7.0905 76.6268 4.63604 74.8231 2.82636C73.0194 1.01667 70.573 1.2671e-06 68.0221 0H32.8148C30.264 0 27.8176 1.01667 26.0138 2.82636C24.2101 4.63604 23.1968 7.0905 23.1968 9.64979V101.116C23.1968 103.676 24.2101 106.13 26.0138 107.94C27.8176 109.749 30.264 110.766 32.8148 110.766H68.0221C70.5729 110.766 73.0193 109.749 74.823 107.94C76.6267 106.13 77.64 103.675 77.64 101.116V38.1895H78.2466L78.2467 26.322Z" fill="#E6E6E6"/>
<path d="M68.4101 2.50977H63.8148C64.0261 3.02965 64.1068 3.59371 64.0497 4.15224C63.9925 4.71078 63.7994 5.24665 63.4872 5.71264C63.175 6.17863 62.7534 6.56044 62.2595 6.82443C61.7656 7.08842 61.2146 7.22648 60.6549 7.22646H40.4851C39.9255 7.22643 39.3745 7.08833 38.8806 6.82432C38.3868 6.56031 37.9652 6.1785 37.6531 5.71252C37.3409 5.24653 37.1478 4.71068 37.0907 4.15217C37.0336 3.59366 37.1142 3.02963 37.3256 2.50977H33.0333C31.1283 2.50977 29.3014 3.26901 27.9543 4.62046C26.6073 5.97192 25.8506 7.80488 25.8506 9.71613V101.05C25.8506 102.961 26.6073 104.794 27.9543 106.145C29.3014 107.497 31.1283 108.256 33.0333 108.256H68.4101C70.3151 108.256 72.142 107.497 73.489 106.145C74.836 104.794 75.5928 102.961 75.5928 101.05V9.71598C75.5927 7.80476 74.836 5.97183 73.489 4.62041C72.1419 3.26898 70.315 2.50976 68.4101 2.50977Z" fill="white"/>
<path d="M50.7216 56.5351C47.4252 56.5351 44.2029 55.5544 41.4621 53.717C38.7213 51.8796 36.5851 49.2681 35.3236 46.2126C34.0622 43.1571 33.7321 39.7949 34.3752 36.5512C35.0183 33.3075 36.6056 30.328 38.9365 27.9895C41.2674 25.6509 44.2371 24.0583 47.4701 23.4131C50.7031 22.7679 54.0542 23.099 57.0997 24.3647C60.1451 25.6303 62.7481 27.7735 64.5794 30.5234C66.4108 33.2733 67.3883 36.5062 67.3883 39.8135C67.3833 44.2468 65.6257 48.4971 62.5012 51.6319C59.3767 54.7668 55.1403 56.5301 50.7216 56.5351ZM50.7216 23.4103C47.488 23.4103 44.3271 24.3723 41.6385 26.1747C38.9499 27.9771 36.8543 30.539 35.6169 33.5363C34.3795 36.5335 34.0557 39.8317 34.6865 43.0136C35.3174 46.1955 36.8745 49.1182 39.161 51.4123C41.4474 53.7063 44.3606 55.2685 47.532 55.9014C50.7035 56.5344 53.9907 56.2095 56.9782 54.968C59.9656 53.7265 62.519 51.6241 64.3155 48.9266C66.1119 46.2291 67.0708 43.0577 67.0708 39.8135C67.0659 35.4646 65.3418 31.2952 62.2768 28.2201C59.2118 25.145 55.0562 23.4152 50.7216 23.4103Z" fill="#3F3D56"/>
<path d="M56.8429 34.9559C58.2703 33.7458 59.1373 31.8342 58.91 29.9732C58.6826 28.1122 57.2743 26.4014 55.4475 26.0062C53.6208 25.6111 51.5384 26.705 50.9835 28.4954C50.6782 25.0436 50.3263 21.4472 48.4972 18.5077C46.8409 15.8461 43.9723 13.9416 40.8634 13.6009C37.7544 13.2602 34.4811 14.547 32.5421 17.009C30.6032 19.4709 30.1285 23.0501 31.4864 25.8766C32.4868 27.9588 34.3299 29.5084 36.2609 30.7691C42.4217 34.7911 50.064 36.15 57.3359 35.0763L56.8429 34.9559Z" fill="#E6E6E6"/>
<path d="M35.6166 14.6188C38.1819 16.7151 40.5353 19.0597 42.6427 21.6186C45.9408 25.6097 48.6096 30.0843 50.5563 34.8867C50.6988 35.2371 50.1317 35.3896 49.9908 35.0431C46.8058 27.2382 41.7212 20.359 35.202 15.0348C34.9092 14.7956 35.3263 14.3816 35.6166 14.6188Z" fill="white"/>
<path d="M36.4894 72.9382C37.4537 72.9382 38.2355 72.1539 38.2355 71.1864C38.2355 70.2189 37.4537 69.4346 36.4894 69.4346C35.5251 69.4346 34.7434 70.2189 34.7434 71.1864C34.7434 72.1539 35.5251 72.9382 36.4894 72.9382Z" fill="#3F3D56"/>
<path d="M65.4301 72.4602H43.2078C42.871 72.4602 42.5481 72.3259 42.3099 72.087C42.0718 71.8481 41.938 71.524 41.938 71.1861C41.938 70.8482 42.0718 70.5242 42.3099 70.2853C42.5481 70.0463 42.871 69.9121 43.2078 69.9121H65.4301C65.7668 69.9121 66.0898 70.0463 66.328 70.2853C66.5661 70.5242 66.6999 70.8482 66.6999 71.1861C66.6999 71.524 66.5661 71.8481 66.328 72.087C66.0898 72.3259 65.7668 72.4602 65.4301 72.4602Z" fill="#CCCCCC"/>
<path d="M58.5378 72.4762H43.116C42.7751 72.4762 42.4482 72.3404 42.2072 72.0986C41.9662 71.8568 41.8308 71.5288 41.8308 71.1869C41.8308 70.8449 41.9662 70.5169 42.2072 70.2751C42.4482 70.0333 42.7751 69.8975 43.116 69.8975H58.5378C58.8786 69.8975 59.2055 70.0333 59.4465 70.2751C59.6876 70.5169 59.823 70.8449 59.823 71.1869C59.823 71.5288 59.6876 71.8568 59.4465 72.0986C59.2055 72.3404 58.8786 72.4762 58.5378 72.4762Z" fill="#ACACAC"/>
<path d="M36.4894 80.5827C37.4537 80.5827 38.2355 79.7984 38.2355 78.8309C38.2355 77.8634 37.4537 77.0791 36.4894 77.0791C35.5251 77.0791 34.7434 77.8634 34.7434 78.8309C34.7434 79.7984 35.5251 80.5827 36.4894 80.5827Z" fill="#3F3D56"/>
<path d="M65.4301 80.1047H43.2078C42.871 80.1047 42.5481 79.9705 42.3099 79.7315C42.0718 79.4926 41.938 79.1686 41.938 78.8307C41.938 78.4928 42.0718 78.1687 42.3099 77.9298C42.5481 77.6909 42.871 77.5566 43.2078 77.5566H65.4301C65.7668 77.5566 66.0898 77.6909 66.328 77.9298C66.5661 78.1687 66.6999 78.4928 66.6999 78.8307C66.6999 79.1686 66.5661 79.4926 66.328 79.7315C66.0898 79.9705 65.7668 80.1047 65.4301 80.1047Z" fill="#CCCCCC"/>
<path d="M36.4894 88.2262C37.4537 88.2262 38.2355 87.4419 38.2355 86.4744C38.2355 85.507 37.4537 84.7227 36.4894 84.7227C35.5251 84.7227 34.7434 85.507 34.7434 86.4744C34.7434 87.4419 35.5251 88.2262 36.4894 88.2262Z" fill="#3F3D56"/>
<path d="M65.4301 87.7492H43.2078C42.871 87.7492 42.5481 87.615 42.3099 87.3761C42.0718 87.1372 41.938 86.8131 41.938 86.4752C41.938 86.1373 42.0718 85.8133 42.3099 85.5743C42.5481 85.3354 42.871 85.2012 43.2078 85.2012H65.4301C65.7668 85.2012 66.0898 85.3354 66.328 85.5743C66.5661 85.8133 66.6999 86.1373 66.6999 86.4752C66.6999 86.8131 66.5661 87.1372 66.328 87.3761C66.0898 87.615 65.7668 87.7492 65.4301 87.7492Z" fill="#CCCCCC"/>
<path d="M53.4584 80.1198H43.116C42.7751 80.1198 42.4482 79.9839 42.2072 79.7421C41.9662 79.5003 41.8308 79.1724 41.8308 78.8304C41.8308 78.4884 41.9662 78.1605 42.2072 77.9187C42.4482 77.6769 42.7751 77.541 43.116 77.541H53.4584C53.7993 77.541 54.1262 77.6769 54.3672 77.9187C54.6082 78.1605 54.7436 78.4884 54.7436 78.8304C54.7436 79.1724 54.6082 79.5003 54.3672 79.7421C54.1262 79.9839 53.7993 80.1198 53.4584 80.1198Z" fill="#ACACAC"/>
<path d="M62.6648 87.7643H43.116C42.7751 87.7643 42.4482 87.6285 42.2072 87.3867C41.9662 87.1449 41.8308 86.8169 41.8308 86.4749C41.8308 86.133 41.9662 85.805 42.2072 85.5632C42.4482 85.3214 42.7751 85.1855 43.116 85.1855H62.6648C63.0056 85.1855 63.3325 85.3214 63.5735 85.5632C63.8145 85.805 63.9499 86.133 63.9499 86.4749C63.9499 86.8169 63.8145 87.1449 63.5735 87.3867C63.3325 87.6285 63.0056 87.7643 62.6648 87.7643Z" fill="#ACACAC"/>
<path d="M59.5459 37.2129H57.3643V30.745C57.3645 30.555 57.4398 30.3728 57.5737 30.2385C57.7076 30.1041 57.8892 30.0285 58.0785 30.0283H58.8316C59.021 30.0285 59.2025 30.1041 59.3364 30.2385C59.4703 30.3728 59.5457 30.555 59.5459 30.745V37.2129Z" fill="#3F3D56"/>
<path d="M60.8687 48.2195H40.0148L39.94 36.4273C39.9392 36.2452 39.9749 36.0647 40.0449 35.8966C40.1149 35.7286 40.2179 35.5763 40.3477 35.4489L45.5864 30.3296C45.8349 30.0859 46.1679 29.9483 46.5154 29.9457L55.2833 29.8653C55.4821 29.864 55.6788 29.9066 55.8594 29.99C56.04 30.0734 56.2001 30.1955 56.3285 30.3478L56.3293 30.3488L60.4937 35.4728C60.7359 35.7714 60.8683 36.1445 60.8687 36.5295L60.8687 48.2195Z" fill="#3F3D56"/>
<path d="M60.8686 48.2197H49.6619V37.6514C49.662 37.3294 49.7764 37.018 49.9846 36.773L54.8537 31.0455C54.9803 30.8964 55.1376 30.7767 55.3149 30.6946C55.4921 30.6126 55.685 30.5702 55.8802 30.5703H55.8853C56.0814 30.5709 56.275 30.6144 56.4525 30.6978C56.6301 30.7813 56.7874 30.9026 56.9134 31.0533L60.5525 35.4C60.7566 35.6439 60.8685 35.9522 60.8686 36.2706V48.2197Z" fill="#ACACAC"/>
<path d="M56.1149 44.1612H54.4935C54.3883 44.161 54.2874 44.1191 54.213 44.0444C54.1387 43.9698 54.0968 43.8686 54.0967 43.763V42.3991C54.0968 42.2936 54.1387 42.1924 54.213 42.1177C54.2874 42.0431 54.3883 42.0011 54.4935 42.001H56.1149C56.2201 42.0011 56.321 42.0431 56.3954 42.1177C56.4698 42.1924 56.5116 42.2936 56.5117 42.3991V43.763C56.5116 43.8686 56.4698 43.9698 56.3954 44.0444C56.321 44.1191 56.2201 44.161 56.1149 44.1612Z" fill="white"/>
<path d="M56.1149 40.6656H54.4935C54.3883 40.6655 54.2874 40.6235 54.213 40.5488C54.1387 40.4742 54.0968 40.373 54.0967 40.2674V38.9352C54.0968 38.8297 54.1387 38.7285 54.213 38.6539C54.2874 38.5792 54.3883 38.5372 54.4935 38.5371H56.1149C56.2201 38.5372 56.321 38.5792 56.3954 38.6539C56.4698 38.7285 56.5116 38.8297 56.5117 38.9352V40.2674C56.5116 40.373 56.4698 40.4742 56.3954 40.5488C56.321 40.6235 56.2201 40.6655 56.1149 40.6656Z" fill="white"/>
<path d="M46.0878 43.6298H44.4664C44.3612 43.6297 44.2603 43.5877 44.1859 43.5131C44.1116 43.4385 44.0697 43.3373 44.0696 43.2317V41.8679C44.0697 41.7623 44.1116 41.6611 44.1859 41.5865C44.2603 41.5118 44.3612 41.4699 44.4664 41.4697H46.0878C46.193 41.4699 46.2938 41.5118 46.3682 41.5865C46.4426 41.6611 46.4845 41.7623 46.4846 41.8679V43.2317C46.4845 43.3373 46.4426 43.4385 46.3682 43.5131C46.2938 43.5877 46.193 43.6297 46.0878 43.6298Z" fill="white"/>
<path d="M46.0878 40.1352H44.4664C44.3612 40.1351 44.2603 40.0931 44.1859 40.0185C44.1116 39.9438 44.0697 39.8426 44.0696 39.7371V38.405C44.0697 38.2994 44.1116 38.1982 44.1859 38.1236C44.2603 38.0489 44.3612 38.007 44.4664 38.0068H46.0878C46.193 38.007 46.2938 38.0489 46.3682 38.1236C46.4426 38.1982 46.4845 38.2994 46.4846 38.405V39.7371C46.4845 39.8426 46.4426 39.9438 46.3682 40.0185C46.2938 40.0931 46.193 40.1351 46.0878 40.1352Z" fill="white"/>
<path d="M64.9045 48.3576H36.5389C36.4968 48.3576 36.4564 48.3408 36.4266 48.3109C36.3968 48.2811 36.3801 48.2406 36.3801 48.1983C36.3801 48.1561 36.3968 48.1156 36.4266 48.0857C36.4564 48.0558 36.4968 48.0391 36.5389 48.0391H64.9045C64.9466 48.0391 64.9869 48.0558 65.0167 48.0857C65.0465 48.1156 65.0632 48.1561 65.0632 48.1983C65.0632 48.2406 65.0465 48.2811 65.0167 48.3109C64.9869 48.3408 64.9466 48.3576 64.9045 48.3576Z" fill="#3F3D56"/>
<path d="M129.841 111H0.15873C0.116632 111 0.0762585 110.983 0.0464909 110.954C0.0167232 110.924 0 110.883 0 110.841C0 110.799 0.0167232 110.758 0.0464909 110.728C0.0762585 110.698 0.116632 110.682 0.15873 110.682H129.841C129.883 110.682 129.924 110.698 129.954 110.728C129.983 110.758 130 110.799 130 110.841C130 110.883 129.983 110.924 129.954 110.954C129.924 110.983 129.883 111 129.841 111Z" fill="#3F3D56"/>
</g>
<defs>
<clipPath id="clip0_221_668">
<rect width="130" height="111" fill="white"/>
</clipPath>
</defs>
</svg>
