<svg width="20" height="20" viewBox="0 0 20 20" fill="none" xmlns="http://www.w3.org/2000/svg">
<g clip-path="url(#clip0_162_2471)">
<path d="M6.66671 18.3332C7.12694 18.3332 7.50004 17.9601 7.50004 17.4998C7.50004 17.0396 7.12694 16.6665 6.66671 16.6665C6.20647 16.6665 5.83337 17.0396 5.83337 17.4998C5.83337 17.9601 6.20647 18.3332 6.66671 18.3332Z" stroke="#25262C" stroke-width="1.5" stroke-linecap="round" stroke-linejoin="round"/>
<path d="M15.8333 18.3332C16.2936 18.3332 16.6667 17.9601 16.6667 17.4998C16.6667 17.0396 16.2936 16.6665 15.8333 16.6665C15.3731 16.6665 15 17.0396 15 17.4998C15 17.9601 15.3731 18.3332 15.8333 18.3332Z" stroke="#25262C" stroke-width="1.5" stroke-linecap="round" stroke-linejoin="round"/>
<path d="M1.70837 1.7085H3.37504L5.59171 12.0585C5.67302 12.4375 5.88393 12.7764 6.18813 13.0167C6.49233 13.257 6.8708 13.3838 7.25837 13.3752H15.4084C15.7877 13.3745 16.1554 13.2446 16.4509 13.0067C16.7463 12.7688 16.9518 12.4373 17.0334 12.0668L18.4084 5.87516H4.26671" stroke="#25262C" stroke-width="1.5" stroke-linecap="round" stroke-linejoin="round"/>
</g>
<defs>
<clipPath id="clip0_162_2471">
<rect width="20" height="20" fill="white"/>
</clipPath>
</defs>
</svg>
