<svg width="23" height="22" viewBox="0 0 23 22" fill="none" xmlns="http://www.w3.org/2000/svg">
<path d="M18.2485 21.8249C17.2448 21.8249 16.4236 21.0064 16.4236 20.0061C16.4236 19.0058 17.2448 18.1874 18.2485 18.1874C19.2522 18.1874 20.0733 19.0058 20.0733 20.0061C20.0733 21.0064 19.2522 21.8249 18.2485 21.8249ZM7.2994 21.8249C6.29573 21.8249 5.47455 21.0064 5.47455 20.0061C5.47455 19.0058 6.29573 18.1874 7.2994 18.1874C8.30306 18.1874 9.12424 19.0058 9.12424 20.0061C9.12424 21.0064 8.30306 21.8249 7.2994 21.8249ZM17.7923 16.3686H6.38697C4.83585 16.3686 3.6497 15.1865 3.6497 13.6405V1.81874H0.912424C0.36497 1.81874 0 1.45499 0 0.909369C0 0.363748 0.36497 0 0.912424 0H4.56212C5.10958 0 5.47455 0.363748 5.47455 0.909369V3.63748H20.3471C21.7157 3.63748 22.8106 4.72872 22.8106 6.09277C22.8106 6.36559 22.8106 6.54746 22.7194 6.82027L20.4383 14.368C20.0733 15.5502 18.9784 16.3686 17.7923 16.3686Z" fill="#3D5EF3"/>
</svg>
