<svg width="128" height="94" viewBox="0 0 128 94" fill="none" xmlns="http://www.w3.org/2000/svg">
<g clip-path="url(#clip0_168_3348)">
<path d="M127.291 5.57329H0.709026C0.521044 5.57309 0.340819 5.49853 0.207896 5.36597C0.0749721 5.23341 0.000205466 5.05369 0 4.86622V0.707065C0.000205466 0.519602 0.0749721 0.339875 0.207896 0.207319C0.340819 0.0747628 0.521044 0.000204477 0.709026 0H127.291C127.479 0.000204898 127.659 0.0747653 127.792 0.207322C127.925 0.339878 128 0.519602 128 0.707065V4.86623C128 5.05369 127.925 5.23342 127.792 5.36597C127.659 5.49853 127.479 5.57309 127.291 5.57329Z" fill="#E4E4E4"/>
<path d="M4.11479 3.5878C4.67075 3.5878 5.12143 3.13835 5.12143 2.58394C5.12143 2.02952 4.67075 1.58008 4.11479 1.58008C3.55884 1.58008 3.10815 2.02952 3.10815 2.58394C3.10815 3.13835 3.55884 3.5878 4.11479 3.5878Z" fill="white"/>
<path d="M7.93559 3.5878C8.49155 3.5878 8.94223 3.13835 8.94223 2.58394C8.94223 2.02952 8.49155 1.58008 7.93559 1.58008C7.37964 1.58008 6.92896 2.02952 6.92896 2.58394C6.92896 3.13835 7.37964 3.5878 7.93559 3.5878Z" fill="white"/>
<path d="M11.7566 3.5878C12.3126 3.5878 12.7633 3.13835 12.7633 2.58394C12.7633 2.02952 12.3126 1.58008 11.7566 1.58008C11.2007 1.58008 10.75 2.02952 10.75 2.58394C10.75 3.13835 11.2007 3.5878 11.7566 3.5878Z" fill="white"/>
<path d="M123.547 1.89271H119.147C119.061 1.89252 118.978 1.85819 118.917 1.79726C118.857 1.73633 118.822 1.65377 118.822 1.56769C118.822 1.48162 118.857 1.39906 118.917 1.33813C118.978 1.27719 119.061 1.24287 119.147 1.24268H123.547C123.634 1.24261 123.717 1.27675 123.778 1.33757C123.839 1.3984 123.873 1.48095 123.873 1.56708C123.874 1.65322 123.84 1.73589 123.779 1.79695C123.718 1.858 123.635 1.89244 123.549 1.89271H123.547Z" fill="white"/>
<path d="M123.547 3.11146H119.147C119.061 3.11127 118.978 3.07694 118.917 3.01601C118.857 2.95508 118.822 2.87252 118.822 2.78644C118.822 2.70037 118.857 2.61781 118.917 2.55688C118.978 2.49594 119.061 2.46162 119.147 2.46143H123.547C123.634 2.46136 123.717 2.4955 123.778 2.55632C123.839 2.61715 123.873 2.6997 123.873 2.78583C123.874 2.87197 123.84 2.95464 123.779 3.0157C123.718 3.07675 123.635 3.11119 123.549 3.11146H123.547Z" fill="white"/>
<path d="M123.547 4.3307H119.147C119.061 4.3307 118.978 4.29645 118.917 4.2355C118.856 4.17455 118.822 4.09188 118.822 4.00568C118.822 3.91948 118.856 3.83681 118.917 3.77586C118.978 3.71491 119.061 3.68066 119.147 3.68066H123.547C123.634 3.6805 123.717 3.71459 123.778 3.77543C123.839 3.83627 123.874 3.91887 123.874 4.00507C123.874 4.09127 123.84 4.174 123.779 4.23507C123.718 4.29614 123.635 4.33053 123.549 4.3307H123.547Z" fill="white"/>
<path d="M36.0932 82.6492C36.559 78.9142 38.8802 75.234 42.4522 74.0186C41.0435 77.863 41.0438 82.0804 42.4531 85.9246C43.0019 87.4052 43.767 88.995 43.2507 90.4872C42.9295 91.4157 42.1436 92.1261 41.2652 92.5703C40.3867 93.0145 39.4118 93.2262 38.4491 93.4336L38.2596 93.5899C36.7313 90.1484 35.6274 86.3843 36.0932 82.6492Z" fill="#F0F0F0"/>
<path d="M42.4876 74.0893C40.4074 76.4136 39.1145 79.3324 38.7926 82.4312C38.7114 83.0971 38.736 83.7716 38.8654 84.4298C39.0122 85.067 39.3275 85.6533 39.7784 86.1278C40.19 86.5787 40.6633 86.9924 40.9577 87.5352C41.1043 87.8153 41.1899 88.1231 41.2088 88.4385C41.2277 88.7539 41.1796 89.0697 41.0675 89.3652C40.8076 90.1088 40.2952 90.7149 39.7735 91.2902C39.1942 91.929 38.5824 92.5833 38.3361 93.4302C38.3063 93.5328 38.1484 93.4807 38.1782 93.3782C38.6066 91.9048 40.0408 91.0679 40.7248 89.7408C41.044 89.1215 41.1779 88.4026 40.8787 87.749C40.6171 87.1773 40.1294 86.7503 39.7087 86.2974C39.262 85.8409 38.9342 85.2822 38.754 84.6703C38.5913 84.0207 38.5408 83.3483 38.6044 82.6818C38.7236 81.1791 39.079 79.7044 39.6575 78.3118C40.309 76.7187 41.2289 75.2486 42.3775 73.9649C42.4487 73.8855 42.5582 74.0104 42.4876 74.0893Z" fill="white"/>
<path d="M38.8374 81.427C38.3234 81.3025 37.8705 80.9999 37.5595 80.5732C37.2486 80.1465 37.0999 79.6234 37.14 79.0975C37.1418 79.076 37.1519 79.0561 37.1681 79.042C37.1844 79.0278 37.2055 79.0205 37.2271 79.0216C37.2486 79.0227 37.2689 79.032 37.2836 79.0477C37.2984 79.0634 37.3065 79.0842 37.3061 79.1057C37.2679 79.5955 37.4065 80.0827 37.6968 80.4794C37.9872 80.8762 38.4102 81.1564 38.8896 81.2695C38.9937 81.2942 38.9409 81.4515 38.8374 81.427Z" fill="white"/>
<path d="M39.5396 85.9265C40.468 85.3737 41.1533 84.4923 41.459 83.4579C41.4891 83.3554 41.6471 83.4076 41.6169 83.5099C41.2968 84.5857 40.5818 85.5015 39.6144 86.0746C39.5222 86.1292 39.4479 85.9807 39.5396 85.9265Z" fill="white"/>
<path d="M40.4633 76.8756C40.6521 76.9651 40.8603 77.0064 41.0691 76.9958C41.2779 76.9852 41.4808 76.9231 41.6595 76.815C41.751 76.7593 41.8252 76.9079 41.7343 76.9632C41.5363 77.0817 41.3121 77.15 41.0815 77.1622C40.8508 77.1744 40.6207 77.1301 40.4112 77.0331C40.3906 77.0256 40.3737 77.0106 40.3639 76.9912C40.3541 76.9717 40.3521 76.9492 40.3583 76.9283C40.3653 76.9075 40.3802 76.8903 40.3999 76.8804C40.4196 76.8705 40.4424 76.8688 40.4633 76.8756Z" fill="white"/>
<path d="M53.3401 80.6897C53.284 80.7261 53.2278 80.7625 53.1716 80.8003C52.4194 81.2936 51.7085 81.847 51.0462 82.4551C50.9942 82.5013 50.9422 82.5489 50.8917 82.5965C49.3115 84.0786 48.021 85.8403 47.0857 87.7921C46.7142 88.5691 46.4026 89.3732 46.1534 90.1974C45.8095 91.3356 45.5273 92.5971 44.8464 93.5281C44.7764 93.626 44.7005 93.7195 44.6189 93.8081H38.4655C38.4515 93.8011 38.4375 93.7955 38.4234 93.7885L38.1777 93.7997C38.1876 93.7563 38.1988 93.7115 38.2087 93.6681C38.2143 93.6429 38.2213 93.6177 38.2269 93.5925C38.2311 93.5757 38.2353 93.5589 38.2381 93.5435C38.2395 93.5379 38.2409 93.5323 38.2423 93.5281C38.2451 93.5127 38.2494 93.4987 38.2522 93.4847C38.3139 93.2341 38.3776 92.9835 38.4431 92.7329C38.4431 92.7315 38.4431 92.7315 38.4445 92.7301C38.9254 90.8157 39.6323 88.9649 40.5504 87.2167C40.5785 87.1649 40.6065 87.1117 40.6374 87.0598C41.0626 86.2859 41.5504 85.548 42.0961 84.8534C42.3962 84.474 42.7153 84.11 43.0522 83.7627C43.9245 82.8672 44.9327 82.1141 46.0397 81.531C48.2467 80.369 50.8018 79.9238 53.1605 80.6336C53.2208 80.6519 53.2798 80.6701 53.3401 80.6897Z" fill="#F0F0F0"/>
<path d="M53.3263 80.7678C50.2621 81.3747 47.4676 82.929 45.3397 85.2099C44.8728 85.6928 44.4853 86.2461 44.1912 86.8494C43.9238 87.4463 43.8215 88.1037 43.895 88.7533C43.9514 89.3604 44.0795 89.9749 43.9869 90.5851C43.9349 90.8968 43.8174 91.1939 43.6421 91.4571C43.4668 91.7202 43.2377 91.9435 42.9698 92.1122C42.3133 92.5498 41.5383 92.7261 40.7744 92.8722C39.9262 93.0344 39.0426 93.1895 38.3347 93.7179C38.2489 93.7819 38.1544 93.6454 38.24 93.5815C39.4716 92.6623 41.1221 92.8552 42.4694 92.2063C43.0981 91.9035 43.6391 91.4099 43.7948 90.7083C43.931 90.0948 43.7994 89.461 43.737 88.8468C43.656 88.2141 43.7315 87.5713 43.957 86.9744C44.2194 86.3581 44.5849 85.7909 45.0381 85.2969C46.0405 84.1687 47.2146 83.2046 48.5173 82.44C49.9993 81.5592 51.6214 80.9377 53.3135 80.6024C53.4182 80.5817 53.4303 80.7472 53.3263 80.7678Z" fill="white"/>
<path d="M45.9815 84.4348C45.6462 84.0268 45.4673 83.5133 45.4767 82.9859C45.486 82.4585 45.6831 81.9516 46.0326 81.5557C46.1036 81.4758 46.2314 81.5821 46.1603 81.662C45.8341 82.0301 45.6506 82.5023 45.6429 82.9935C45.6352 83.4846 45.8038 83.9623 46.1183 84.3404C46.1865 84.4226 46.0494 84.5166 45.9815 84.4348Z" fill="white"/>
<path d="M43.8258 88.4489C44.9008 88.5649 45.9801 88.2726 46.8486 87.6303C46.9346 87.5666 47.0292 87.703 46.9433 87.7667C46.0383 88.4334 44.9145 88.7353 43.796 88.6121C43.6895 88.6003 43.7198 88.4372 43.8258 88.4489Z" fill="white"/>
<path d="M50.0276 81.7772C50.1243 81.9621 50.2656 82.12 50.4387 82.2369C50.6118 82.3539 50.8113 82.4261 51.0192 82.4471C51.1259 82.4576 51.0955 82.6207 50.9895 82.6103C50.7598 82.586 50.5396 82.506 50.3481 82.3772C50.1566 82.2485 49.9996 82.0749 49.8908 81.8717C49.879 81.8534 49.8746 81.8313 49.8785 81.8099C49.8824 81.7884 49.8943 81.7693 49.9119 81.7563C49.93 81.7439 49.9524 81.7391 49.974 81.743C49.9957 81.747 50.015 81.7593 50.0276 81.7772Z" fill="white"/>
<path d="M41.4886 28.9997H21.1302C20.5011 28.999 19.898 28.7494 19.4531 28.3058C19.0083 27.8622 18.758 27.2607 18.7573 26.6333V15.5757C18.758 14.9484 19.0083 14.3469 19.4531 13.9033C19.898 13.4597 20.5011 13.2102 21.1302 13.2095H41.4886C42.1178 13.2102 42.7209 13.4597 43.1657 13.9033C43.6106 14.3469 43.8608 14.9484 43.8615 15.5757V26.6333C43.8608 27.2607 43.6106 27.8622 43.1658 28.3058C42.7209 28.7494 42.1178 28.999 41.4886 28.9997Z" fill="#E6E6E6"/>
<path d="M72.5699 28.9997H52.2115C51.5824 28.999 50.9793 28.7494 50.5344 28.3058C50.0895 27.8622 49.8393 27.2607 49.8386 26.6333V15.5757C49.8393 14.9484 50.0896 14.3469 50.5344 13.9033C50.9793 13.4597 51.5824 13.2102 52.2115 13.2095H72.5699C73.1991 13.2102 73.8022 13.4597 74.2471 13.9033C74.6919 14.3469 74.9421 14.9484 74.9428 15.5757V26.6333C74.9421 27.2607 74.6919 27.8622 74.2471 28.3058C73.8022 28.7494 73.1991 28.999 72.5699 28.9997Z" fill="#ACACAC"/>
<path d="M103.651 28.9997H83.2929C82.6638 28.999 82.0607 28.7494 81.6158 28.3058C81.171 27.8622 80.9207 27.2607 80.92 26.6333V15.5757C80.9207 14.9484 81.171 14.3469 81.6158 13.9033C82.0607 13.4597 82.6638 13.2102 83.2929 13.2095H103.651C104.28 13.2102 104.884 13.4597 105.328 13.9033C105.773 14.3469 106.024 14.9484 106.024 15.5757V26.6333C106.024 27.2607 105.773 27.8622 105.328 28.3058C104.884 28.7494 104.28 28.999 103.651 28.9997Z" fill="#E6E6E6"/>
<path d="M41.4886 53.6374H21.1302C20.5011 53.6367 19.898 53.3871 19.4531 52.9435C19.0083 52.4999 18.758 51.8984 18.7573 51.271V40.2134C18.758 39.5861 19.0083 38.9846 19.4531 38.541C19.898 38.0974 20.5011 37.8479 21.1302 37.8472H41.4886C42.1177 37.8479 42.7209 38.0974 43.1657 38.541C43.6106 38.9846 43.8608 39.5861 43.8615 40.2134V51.271C43.8608 51.8984 43.6106 52.4999 43.1658 52.9435C42.7209 53.3871 42.1178 53.6367 41.4886 53.6374Z" fill="#F2F2F2"/>
<path d="M72.5699 53.6374H52.2115C51.5824 53.6367 50.9793 53.3871 50.5344 52.9435C50.0895 52.4999 49.8393 51.8984 49.8386 51.271V40.2134C49.8393 39.5861 50.0896 38.9846 50.5344 38.541C50.9793 38.0974 51.5824 37.8479 52.2115 37.8472H72.5699C73.1991 37.8479 73.8022 38.0974 74.2471 38.541C74.6919 38.9846 74.9421 39.5861 74.9428 40.2134V51.271C74.9421 51.8984 74.6919 52.4999 74.2471 52.9435C73.8022 53.3871 73.1991 53.6367 72.5699 53.6374Z" fill="#E6E6E6"/>
<path d="M74.0074 55.672C76.0156 55.672 77.6435 54.0486 77.6435 52.046C77.6435 50.0434 76.0156 48.4199 74.0074 48.4199C71.9993 48.4199 70.3713 50.0434 70.3713 52.046C70.3713 54.0486 71.9993 55.672 74.0074 55.672Z" fill="#ACACAC"/>
<path d="M75.5173 51.7417H74.2811V50.5089C74.2811 50.4708 74.2736 50.433 74.2589 50.3978C74.2443 50.3626 74.2229 50.3307 74.1959 50.3037C74.1689 50.2768 74.1368 50.2554 74.1015 50.2408C74.0662 50.2263 74.0284 50.2187 73.9902 50.2188C73.952 50.2188 73.9142 50.2263 73.8789 50.2408C73.8436 50.2554 73.8115 50.2768 73.7845 50.3037C73.7575 50.3307 73.736 50.3626 73.7214 50.3978C73.7068 50.433 73.6993 50.4708 73.6993 50.5089V51.7417H72.463C72.4248 51.7417 72.387 51.7492 72.3517 51.7638C72.3164 51.7784 72.2843 51.7997 72.2573 51.8267C72.2303 51.8536 72.2089 51.8856 72.1943 51.9208C72.1796 51.956 72.1721 51.9937 72.1721 52.0318C72.1721 52.0699 72.1796 52.1076 72.1943 52.1428C72.2089 52.178 72.2303 52.21 72.2573 52.2369C72.2843 52.2639 72.3164 52.2852 72.3517 52.2998C72.387 52.3144 72.4248 52.3219 72.463 52.3219H73.6993V53.5548C73.6993 53.5929 73.7068 53.6306 73.7214 53.6658C73.7361 53.701 73.7575 53.733 73.7845 53.7599C73.8115 53.7868 73.8436 53.8082 73.8789 53.8228C73.9142 53.8374 73.952 53.8449 73.9902 53.8449C74.0673 53.8449 74.1413 53.8143 74.1959 53.7599C74.2504 53.7055 74.2811 53.6317 74.2811 53.5548V52.3219H75.5173C75.5555 52.3219 75.5934 52.3144 75.6287 52.2998C75.664 52.2852 75.696 52.2639 75.723 52.2369C75.75 52.21 75.7715 52.178 75.7861 52.1428C75.8007 52.1076 75.8082 52.0699 75.8082 52.0318C75.8082 51.9937 75.8007 51.956 75.7861 51.9208C75.7715 51.8856 75.75 51.8536 75.723 51.8267C75.696 51.7997 75.664 51.7784 75.6287 51.7638C75.5934 51.7492 75.5555 51.7417 75.5173 51.7417Z" fill="white"/>
<path d="M105.567 31.6705C107.575 31.6705 109.203 30.0471 109.203 28.0445C109.203 26.0419 107.575 24.4185 105.567 24.4185C103.559 24.4185 101.931 26.0419 101.931 28.0445C101.931 30.0471 103.559 31.6705 105.567 31.6705Z" fill="#ACACAC"/>
<path d="M107.077 27.7402H105.841V26.5074C105.841 26.4693 105.833 26.4316 105.819 26.3964C105.804 26.3612 105.783 26.3292 105.756 26.3023C105.729 26.2753 105.696 26.254 105.661 26.2394C105.626 26.2248 105.588 26.2173 105.55 26.2173C105.512 26.2173 105.474 26.2248 105.439 26.2394C105.403 26.254 105.371 26.2753 105.344 26.3023C105.317 26.3292 105.296 26.3612 105.281 26.3964C105.266 26.4316 105.259 26.4693 105.259 26.5074V27.7402H104.023C103.985 27.7402 103.947 27.7477 103.911 27.7623C103.876 27.7769 103.844 27.7983 103.817 27.8252C103.79 27.8521 103.769 27.8841 103.754 27.9193C103.739 27.9545 103.732 27.9922 103.732 28.0303C103.732 28.0684 103.739 28.1062 103.754 28.1414C103.769 28.1766 103.79 28.2085 103.817 28.2355C103.844 28.2624 103.876 28.2838 103.911 28.2984C103.947 28.3129 103.985 28.3204 104.023 28.3204H105.259V29.5533C105.259 29.5914 105.267 29.6291 105.281 29.6643C105.296 29.6995 105.317 29.7315 105.344 29.7584C105.371 29.7854 105.403 29.8067 105.439 29.8213C105.474 29.8359 105.512 29.8434 105.55 29.8434C105.627 29.8434 105.701 29.8128 105.756 29.7584C105.81 29.704 105.841 29.6302 105.841 29.5533V28.3204H107.077C107.115 28.3204 107.153 28.3129 107.188 28.2984C107.224 28.2838 107.256 28.2624 107.283 28.2355C107.31 28.2085 107.331 28.1765 107.346 28.1414C107.36 28.1062 107.368 28.0684 107.368 28.0303C107.368 27.9922 107.36 27.9545 107.346 27.9193C107.331 27.8841 107.31 27.8521 107.283 27.8252C107.256 27.7983 107.224 27.7769 107.188 27.7623C107.153 27.7477 107.115 27.7402 107.077 27.7402Z" fill="white"/>
<path d="M42.9261 31.3527C44.9343 31.3527 46.5622 29.7292 46.5622 27.7266C46.5622 25.724 44.9343 24.1006 42.9261 24.1006C40.918 24.1006 39.29 25.724 39.29 27.7266C39.29 29.7292 40.918 31.3527 42.9261 31.3527Z" fill="#ACACAC"/>
<path d="M44.4361 27.4224H43.1998V26.1895C43.1998 26.1514 43.1923 26.1137 43.1777 26.0785C43.163 26.0433 43.1416 26.0113 43.1146 25.9844C43.0876 25.9574 43.0555 25.9361 43.0202 25.9215C42.9849 25.9069 42.9471 25.8994 42.9089 25.8994C42.8707 25.8994 42.8329 25.9069 42.7976 25.9215C42.7623 25.9361 42.7302 25.9574 42.7032 25.9844C42.6762 26.0113 42.6548 26.0433 42.6401 26.0785C42.6255 26.1137 42.618 26.1514 42.618 26.1895V27.4224H41.3817C41.3435 27.4224 41.3057 27.4299 41.2704 27.4445C41.2351 27.459 41.203 27.4804 41.176 27.5073C41.149 27.5343 41.1276 27.5663 41.113 27.6015C41.0983 27.6367 41.0908 27.6744 41.0908 27.7125C41.0908 27.7894 41.1215 27.8632 41.176 27.9176C41.2306 27.972 41.3046 28.0026 41.3817 28.0026H42.618V29.2354C42.618 29.2735 42.6255 29.3112 42.6401 29.3464C42.6548 29.3816 42.6762 29.4136 42.7032 29.4406C42.7302 29.4675 42.7623 29.4889 42.7976 29.5034C42.8329 29.518 42.8707 29.5255 42.9089 29.5255C42.9471 29.5255 42.9849 29.518 43.0202 29.5034C43.0555 29.4889 43.0876 29.4675 43.1146 29.4406C43.1416 29.4136 43.163 29.3816 43.1777 29.3464C43.1923 29.3113 43.1998 29.2735 43.1998 29.2354V28.0026H44.4361C44.4743 28.0026 44.5121 27.9951 44.5474 27.9805C44.5827 27.9659 44.6148 27.9445 44.6418 27.9176C44.6688 27.8907 44.6902 27.8587 44.7048 27.8235C44.7194 27.7883 44.727 27.7506 44.727 27.7125C44.727 27.6355 44.6963 27.5617 44.6418 27.5073C44.5872 27.4529 44.5132 27.4224 44.4361 27.4224Z" fill="white"/>
<path d="M70.1486 22.7172C70.215 22.9173 70.2365 23.1295 70.2117 23.3388C70.1869 23.5481 70.1164 23.7495 70.0052 23.9287C69.8939 24.1079 69.7446 24.2605 69.5678 24.376C69.391 24.4914 69.1909 24.5668 68.9818 24.5968L67.3004 36.0414L64.5425 34.6981L67.3165 23.2742C67.2893 22.9204 67.3931 22.5689 67.6084 22.2864C67.8237 22.0039 68.1354 21.8099 68.4845 21.7413C68.8336 21.6726 69.1958 21.734 69.5025 21.9139C69.8092 22.0938 70.0391 22.3796 70.1486 22.7172Z" fill="#9E616A"/>
<path d="M50.0674 59.3714C50.1902 59.1998 50.2737 59.0035 50.3122 58.7963C50.3507 58.5891 50.3431 58.3759 50.29 58.1719C50.237 57.9679 50.1397 57.778 50.0051 57.6155C49.8704 57.4531 49.7017 57.322 49.5108 57.2316L50.6451 45.0581L48.2694 46.2725L47.5276 58.0032C47.3965 58.3331 47.3914 58.6995 47.5131 59.0329C47.6349 59.3664 47.875 59.6437 48.1881 59.8123C48.5012 59.9809 48.8654 60.0292 49.2117 59.9479C49.5581 59.8667 49.8626 59.6615 50.0674 59.3714Z" fill="#9E616A"/>
<path d="M51.6905 53.2144L61.8853 52.8233L62.4735 42.2656H50.7102L51.6905 53.2144Z" fill="#9E616A"/>
<path d="M49.7983 90.4999L51.5404 90.4997L52.3691 83.7988H49.798L49.7983 90.4999Z" fill="#9E616A"/>
<path d="M49.3662 89.6429L52.1201 89.479V90.6556L54.7383 92.4589C54.8677 92.5479 54.9651 92.6759 55.0163 92.824C55.0676 92.9722 55.07 93.1328 55.0232 93.2825C54.9764 93.4321 54.8829 93.5629 54.7563 93.6558C54.6298 93.7486 54.4767 93.7987 54.3195 93.7987H51.0409L50.4758 92.6348L50.2551 93.7987H49.0189L49.3662 89.6429Z" fill="#2F2E41"/>
<path d="M57.5469 90.4999L59.2891 90.4997L60.1178 83.7988H57.5466L57.5469 90.4999Z" fill="#9E616A"/>
<path d="M51.549 50.7359C51.549 50.7359 48.4986 53.1918 50.1522 61.9624C49.9004 61.9924 50.1855 62.4873 50.1855 62.4873L50.4241 69.6337L50.6085 70.4528L49.9955 71.7744L50.2482 73.2104L49.4691 86.2431L52.3473 86.6143L55.1016 73.0806L55.6262 71.559L56.1523 70.2253L55.8685 68.803L56.1012 66.5955L57.6891 59.152L58.0778 72.0617L57.5354 73.2942L57.8372 74.6471L57.1648 75.3653L56.899 87.444L59.968 87.5872L62.5073 75.411L62.3104 73.8571L62.6482 72.7083V70.0247L63.2268 68.7581L64.4882 61.8521C64.4882 61.8521 64.8688 56.4543 62.0923 50.1025L51.549 50.7359Z" fill="#2F2E41"/>
<path d="M52.7921 33.4912C52.7921 33.4912 48.9394 34.2511 48.2755 37.5277C47.6117 40.8044 47.1846 48.2193 47.1846 48.2193L47.33 49.2519L51.0568 50.1137L53.4355 39.7242L52.7921 33.4912Z" fill="#3F3D56"/>
<path d="M61.5847 34.5973C61.5847 34.5973 61.9753 34.0516 64.1623 33.9674C64.2523 33.9639 64.1408 33.7858 64.1408 33.7858L65.1926 28.6592L68.6977 30.5945L68.1061 35.9691L62.3463 42.5021L61.5847 34.5973Z" fill="#3F3D56"/>
<path d="M59.4 49.8807C57.7499 49.8808 55.266 49.6992 51.5267 49.1456C51.2859 49.1094 51.0629 48.9973 50.8905 48.8258C50.718 48.6542 50.6051 48.4322 50.5682 48.1921C50.4461 48.0635 50.3666 47.9006 50.3406 47.7254C50.3146 47.5502 50.3434 47.3713 50.4229 47.2129L50.4264 47.2062L50.3417 47.1066C50.2106 46.9531 50.1337 46.761 50.1225 46.5597C50.1114 46.3584 50.1667 46.159 50.28 45.9921L49.122 37.7306C49.0045 36.9102 49.1844 36.0749 49.6293 35.375C50.0742 34.675 50.755 34.1564 51.5492 33.9124L51.9767 33.7796L53.5933 31.6709L53.6252 31.6713L58.8151 31.7402L60.4993 33.873L63.2219 34.5132L63.2289 34.5545L63.8611 38.1968C64.1898 40.0911 63.4358 40.8363 62.4735 42.5022L62.7559 47.1808L62.8841 47.413C62.9552 47.5415 62.979 47.6908 62.9514 47.835C62.9238 47.9792 62.8466 48.1092 62.733 48.2026C62.8189 48.4474 62.8247 48.7129 62.7497 48.9612L62.6831 49.1807C62.6832 49.187 62.6655 49.2762 62.5217 49.385C62.2626 49.5813 61.5184 49.8807 59.4 49.8807Z" fill="#3F3D56"/>
<path d="M57.1148 89.6429L59.8688 89.479V90.6556L62.487 92.4589C62.6163 92.5479 62.7137 92.6759 62.765 92.824C62.8162 92.9722 62.8186 93.1328 62.7719 93.2825C62.7251 93.4321 62.6316 93.5629 62.505 93.6558C62.3784 93.7486 62.2254 93.7987 62.0682 93.7987H58.7895L58.2244 92.6348L58.0038 93.7987H56.7676L57.1148 89.6429Z" fill="#2F2E41"/>
<path d="M60.0072 27.0755C60.3672 24.8636 58.8609 22.7794 56.6428 22.4205C54.4247 22.0615 52.3348 23.5637 51.9748 25.7757C51.6149 27.9876 53.1212 30.0717 55.3393 30.4307C57.5574 30.7896 59.6473 29.2875 60.0072 27.0755Z" fill="#9E616A"/>
<path d="M58.3703 22.4606C56.8791 21.4378 55.5658 21.282 54.4871 21.5721C54.3473 21.3564 54.1512 21.1827 53.9199 21.0698C53.0785 18.9557 50.5182 17.6861 48.3209 18.3033C46.1094 18.9244 44.5835 21.3674 44.9997 23.6206C45.2575 25.0174 46.139 26.2268 46.4935 27.6023C47.1798 30.2649 45.5056 33.315 42.8866 34.1733C45.3663 34.6699 48.096 33.1594 48.9856 30.7982C49.4177 29.6514 49.4437 28.3993 49.4986 27.1754C49.5131 26.3306 49.6169 25.4897 49.8083 24.6667C49.9033 24.2974 50.0375 23.9393 50.2086 23.5985C50.5814 22.8492 51.2006 22.2501 51.9629 21.9012C51.8946 22.1117 51.8776 22.3354 51.9131 22.5538C51.9486 22.7722 52.0357 22.9791 52.1672 23.1573C51.5857 23.8838 51.2691 24.6695 51.2691 25.14C50.061 27.3419 51.7886 29.2332 53.9966 30.4379C54.8773 30.921 55.8942 31.0978 56.8868 30.9404L56.9792 30.5472L57.1044 30.9014L57.5222 32.089C58.0042 32.3215 58.482 32.5764 58.9556 32.8536C58.7757 32.0109 58.6301 31.1698 58.5299 30.3474C58.3912 29.2281 58.8747 27.5617 59.2234 26.5483C59.4396 25.9238 59.5506 25.2678 59.5518 24.6071V24.5782L59.8914 25.6659L61.1276 25.14C60.8976 23.8245 61.1276 22.331 58.3703 22.4606Z" fill="#2F2E41"/>
<path d="M109.211 94.0001H18.7889C18.7388 93.9998 18.6907 93.9798 18.6554 93.9443C18.62 93.9089 18.6001 93.8609 18.6001 93.8108C18.6001 93.7608 18.62 93.7128 18.6554 93.6773C18.6907 93.6419 18.7388 93.6218 18.7889 93.6216H109.211C109.261 93.6218 109.309 93.6419 109.345 93.6773C109.38 93.7128 109.4 93.7608 109.4 93.8108C109.4 93.8609 109.38 93.9089 109.345 93.9443C109.309 93.9798 109.261 93.9998 109.211 94.0001Z" fill="#CCCCCC"/>
<path d="M42.5104 56.1486C44.5185 56.1486 46.1464 54.5251 46.1464 52.5225C46.1464 50.5199 44.5185 48.8965 42.5104 48.8965C40.5022 48.8965 38.8743 50.5199 38.8743 52.5225C38.8743 54.5251 40.5022 56.1486 42.5104 56.1486Z" fill="#E6E6E6"/>
<path d="M97.2193 50.4386H84.4659C84.0718 50.4381 83.6939 50.2818 83.4152 50.0039C83.1366 49.726 82.9798 49.3491 82.9794 48.9561V42.0292C82.9798 41.6362 83.1366 41.2594 83.4152 40.9815C83.6939 40.7036 84.0718 40.5473 84.4659 40.5469H97.2193C97.6134 40.5473 97.9912 40.7036 98.2699 40.9815C98.5485 41.2594 98.7053 41.6362 98.7057 42.0292V48.9561C98.7053 49.3491 98.5486 49.7259 98.2699 50.0039C97.9912 50.2818 97.6134 50.4381 97.2193 50.4386Z" fill="#F2F2F2"/>
<path d="M97.4072 47.6247C98.4736 47.6247 99.3381 46.7626 99.3381 45.6991C99.3381 44.6356 98.4736 43.7734 97.4072 43.7734C96.3407 43.7734 95.4762 44.6356 95.4762 45.6991C95.4762 46.7626 96.3407 47.6247 97.4072 47.6247Z" fill="#ACACAC"/>
<path d="M98.209 45.5373H97.5525V44.8826C97.5525 44.8623 97.5485 44.8423 97.5407 44.8236C97.533 44.8049 97.5216 44.7879 97.5072 44.7736C97.4929 44.7593 97.4759 44.748 97.4571 44.7402C97.4384 44.7325 97.4183 44.7285 97.398 44.7285C97.357 44.7285 97.3177 44.7447 97.2887 44.7736C97.2598 44.8025 97.2435 44.8417 97.2435 44.8826V45.5373H96.587C96.546 45.5373 96.5067 45.5535 96.4777 45.5824C96.4488 45.6113 96.4325 45.6505 96.4325 45.6913C96.4325 45.7116 96.4365 45.7316 96.4443 45.7503C96.452 45.769 96.4634 45.786 96.4777 45.8003C96.4921 45.8146 96.5091 45.8259 96.5279 45.8337C96.5466 45.8414 96.5667 45.8454 96.587 45.8454H97.2435V46.5001C97.2435 46.5204 97.2475 46.5404 97.2553 46.5591C97.263 46.5778 97.2744 46.5948 97.2888 46.6091C97.3031 46.6234 97.3201 46.6347 97.3389 46.6425C97.3576 46.6502 97.3777 46.6542 97.398 46.6542C97.439 46.6542 97.4783 46.6379 97.5072 46.6091C97.5362 46.5802 97.5525 46.541 97.5525 46.5001V45.8454H98.209C98.25 45.8454 98.2893 45.8292 98.3183 45.8003C98.3472 45.7714 98.3635 45.7322 98.3635 45.6914C98.3635 45.6711 98.3595 45.6511 98.3517 45.6324C98.344 45.6137 98.3326 45.5967 98.3183 45.5824C98.3039 45.5681 98.2869 45.5568 98.2681 45.549C98.2494 45.5413 98.2293 45.5373 98.209 45.5373Z" fill="white"/>
<path d="M102.415 48.4726H91.9052C91.4591 48.4721 91.0315 48.2951 90.716 47.9806C90.4006 47.666 90.2232 47.2396 90.2227 46.7947V40.5384C90.2228 40.4565 90.2556 40.3781 90.3137 40.3203C90.3718 40.2625 90.4505 40.23 90.5326 40.23C90.6147 40.23 90.6935 40.2625 90.7516 40.3203C90.8097 40.3781 90.8424 40.4565 90.8426 40.5384V42.2139L103.051 43.3206C103.294 43.3249 103.527 43.4245 103.698 43.5979C103.869 43.7713 103.965 44.0047 103.965 44.2479C103.965 44.267 103.963 44.2861 103.96 44.3048L103.345 47.5768C103.336 47.817 103.234 48.0446 103.061 48.2117C102.888 48.3788 102.656 48.4723 102.415 48.4726ZM90.8426 42.8347V46.7947C90.843 47.0756 90.955 47.345 91.1542 47.5436C91.3534 47.7423 91.6235 47.854 91.9052 47.8543H102.415C102.497 47.8542 102.576 47.8216 102.634 47.7637C102.692 47.7057 102.725 47.6271 102.725 47.5452C102.725 47.5261 102.727 47.507 102.73 47.4882L103.344 44.224C103.338 44.1464 103.303 44.074 103.246 44.0211C103.188 43.9682 103.113 43.9388 103.035 43.9387C103.026 43.9387 103.016 43.9383 103.007 43.9374L90.8426 42.8347Z" fill="#ACACAC"/>
<path d="M89.1123 51.358C89.3977 51.358 89.629 51.1274 89.629 50.8428C89.629 50.5583 89.3977 50.3276 89.1123 50.3276C88.827 50.3276 88.5957 50.5583 88.5957 50.8428C88.5957 51.1274 88.827 51.358 89.1123 51.358Z" fill="#ACACAC"/>
<path d="M102.002 51.358C102.287 51.358 102.518 51.1274 102.518 50.8428C102.518 50.5583 102.287 50.3276 102.002 50.3276C101.717 50.3276 101.485 50.5583 101.485 50.8428C101.485 51.1274 101.717 51.358 102.002 51.358Z" fill="#ACACAC"/>
<path d="M102.518 50.3277H88.6991C88.6169 50.3277 88.5381 50.2952 88.48 50.2372C88.4218 50.1792 88.3892 50.1006 88.3892 50.0186C88.3892 49.9366 88.4218 49.858 88.48 49.8C88.5381 49.742 88.6169 49.7095 88.6991 49.7095H102.518C102.601 49.7095 102.68 49.742 102.738 49.8C102.796 49.858 102.828 49.9366 102.828 50.0186C102.828 50.1006 102.796 50.1792 102.738 50.2372C102.68 50.2952 102.601 50.3277 102.518 50.3277Z" fill="#ACACAC"/>
<path d="M91.3592 40.7447H88.6727C88.5906 40.7445 88.5119 40.7119 88.4539 40.6539C88.396 40.596 88.3634 40.5175 88.3634 40.4356C88.3634 40.3537 88.396 40.2752 88.4539 40.2173C88.5119 40.1593 88.5906 40.1267 88.6727 40.1265H91.3592C91.4413 40.1267 91.5199 40.1593 91.5779 40.2173C91.6359 40.2752 91.6684 40.3537 91.6684 40.4356C91.6684 40.5175 91.6359 40.596 91.5779 40.6539C91.5199 40.7119 91.4413 40.7445 91.3592 40.7447Z" fill="#ACACAC"/>
<path d="M93.5144 50.1704C93.4403 50.1705 93.3687 50.144 93.3126 50.0957L91.2751 48.3497C91.2441 48.3232 91.2187 48.291 91.2002 48.2547C91.1818 48.2185 91.1707 48.179 91.1675 48.1384C91.1644 48.0979 91.1693 48.0572 91.182 48.0185C91.1947 47.9799 91.2149 47.9442 91.2415 47.9133C91.2681 47.8825 91.3005 47.8572 91.3368 47.8389C91.3732 47.8205 91.4129 47.8095 91.4535 47.8065C91.4942 47.8035 91.535 47.8085 91.5737 47.8212C91.6124 47.834 91.6482 47.8542 91.6791 47.8807L93.7166 49.6268C93.7646 49.668 93.7988 49.7228 93.8147 49.7839C93.8305 49.845 93.8272 49.9096 93.8052 49.9688C93.7832 50.028 93.7435 50.079 93.6915 50.1151C93.6395 50.1511 93.5777 50.1704 93.5144 50.1704Z" fill="#ACACAC"/>
<path d="M93.9436 48.283C93.9029 48.283 93.8626 48.2751 93.825 48.2595C93.7874 48.244 93.7533 48.2212 93.7245 48.1925C93.6957 48.1638 93.6728 48.1298 93.6573 48.0922C93.6417 48.0547 93.6337 48.0146 93.6337 47.974V43.0118C93.6337 42.9298 93.6663 42.8511 93.7245 42.7932C93.7826 42.7352 93.8614 42.7026 93.9436 42.7026C94.0259 42.7026 94.1047 42.7352 94.1628 42.7932C94.221 42.8511 94.2536 42.9298 94.2536 43.0118V47.9739C94.2536 48.0145 94.2456 48.0547 94.23 48.0922C94.2145 48.1297 94.1916 48.1638 94.1629 48.1925C94.1341 48.2212 94.0999 48.244 94.0623 48.2595C94.0247 48.275 93.9844 48.283 93.9436 48.283Z" fill="#ACACAC"/>
<path d="M100.492 48.2828C100.451 48.2828 100.411 48.2748 100.373 48.2593C100.336 48.2437 100.301 48.221 100.273 48.1923C100.244 48.1636 100.221 48.1295 100.205 48.092C100.19 48.0545 100.182 48.0143 100.182 47.9737V43.4237C100.182 43.3418 100.215 43.2633 100.273 43.2055C100.331 43.1477 100.41 43.1152 100.492 43.1152C100.574 43.1152 100.653 43.1477 100.711 43.2055C100.769 43.2633 100.802 43.3418 100.802 43.4237V47.9737C100.802 48.0143 100.794 48.0544 100.778 48.0919C100.763 48.1295 100.74 48.1635 100.711 48.1922C100.682 48.2209 100.648 48.2437 100.61 48.2592C100.573 48.2748 100.532 48.2828 100.492 48.2828Z" fill="#ACACAC"/>
</g>
<defs>
<clipPath id="clip0_168_3348">
<rect width="128" height="94" fill="white"/>
</clipPath>
</defs>
</svg>
