<svg width="16" height="16" viewBox="0 0 16 16" fill="none" xmlns="http://www.w3.org/2000/svg">
<path d="M12.1546 3.83789V12.7938C12.1546 13.1331 12.0198 13.4585 11.7799 13.6985C11.5399 13.9384 11.2145 14.0732 10.8752 14.0732H4.47814C4.13882 14.0732 3.8134 13.9384 3.57346 13.6985C3.33353 13.4585 3.19873 13.1331 3.19873 12.7938V3.83789" stroke="white" stroke-width="1.5" stroke-linecap="round" stroke-linejoin="round"/>
<path d="M1.91895 3.83789H13.4337" stroke="white" stroke-width="1.5" stroke-linecap="round" stroke-linejoin="round"/>
<path d="M5.11768 3.83812V2.55871C5.11768 2.21939 5.25247 1.89396 5.49241 1.65403C5.73234 1.41409 6.05777 1.2793 6.39709 1.2793H8.95591C9.29523 1.2793 9.62066 1.41409 9.86059 1.65403C10.1005 1.89396 10.2353 2.21939 10.2353 2.55871V3.83812" stroke="white" stroke-width="1.5" stroke-linecap="round" stroke-linejoin="round"/>
</svg>
