<svg width="18" height="18" viewBox="0 0 18 18" fill="none" xmlns="http://www.w3.org/2000/svg">
<path d="M9 2.25H3.75C3.35218 2.25 2.97064 2.40804 2.68934 2.68934C2.40804 2.97064 2.25 3.35218 2.25 3.75V14.25C2.25 14.6478 2.40804 15.0294 2.68934 15.3107C2.97064 15.592 3.35218 15.75 3.75 15.75H14.25C14.6478 15.75 15.0294 15.592 15.3107 15.3107C15.592 15.0294 15.75 14.6478 15.75 14.25V9" stroke="white" stroke-width="1.5" stroke-linecap="round" stroke-linejoin="round"/>
<path d="M13.7812 1.96892C14.0796 1.67055 14.4842 1.50293 14.9062 1.50293C15.3282 1.50293 15.7328 1.67055 16.0312 1.96892C16.3296 2.26729 16.4972 2.67196 16.4972 3.09392C16.4972 3.51588 16.3296 3.92055 16.0312 4.21892L9.27145 10.9794C9.09336 11.1574 8.87335 11.2876 8.6317 11.3582L6.47695 11.9882C6.41241 12.007 6.344 12.0081 6.27888 11.9914C6.21376 11.9748 6.15432 11.9409 6.10678 11.8933C6.05925 11.8458 6.02536 11.7864 6.00868 11.7212C5.992 11.6561 5.99312 11.5877 6.01195 11.5232L6.64195 9.36842C6.71284 9.12696 6.84335 8.90721 7.02145 8.72942L13.7812 1.96892Z" stroke="white" stroke-width="1.5" stroke-linecap="round" stroke-linejoin="round"/>
</svg>
