<svg width="309" height="282" viewBox="0 0 309 282" fill="none" xmlns="http://www.w3.org/2000/svg">
<path opacity="0.21" d="M25.0898 261.233L103.717 58.7301L157.013 179.74L210.652 34.1943L300.858 260.958L25.0898 261.233Z" fill="#AEA2E9"/>
<path d="M51.0205 267.711H132.299" stroke="#1C00A0" stroke-miterlimit="10"/>
<path d="M211.248 267.711H280.93" stroke="#1C00A0" stroke-miterlimit="10"/>
<path d="M1.18359 261.233H308.199" stroke="#1C00A0" stroke-miterlimit="10"/>
<path d="M37.7802 90.7393C33.8939 90.7393 30.5008 92.8467 28.6694 95.9816C27.3419 94.9492 25.6764 94.3328 23.8663 94.3328C19.5344 94.3328 16.0225 97.036 16.0225 101.379V103.927H27.228H31.7101H48.3324V100.499C48.3324 94.6574 43.6076 90.7393 37.7802 90.7393Z" fill="#FF572B"/>
<path d="M249.212 19.3594C245.326 19.3594 241.932 21.4669 240.101 24.6024C238.774 23.5701 237.108 22.9537 235.298 22.9537C230.966 22.9537 227.454 25.6569 227.454 29.9988V32.5472H238.66H243.142H259.763V29.1199C259.764 23.2783 255.04 19.3594 249.212 19.3594Z" fill="#FF572B"/>
<path d="M102.699 1.09863C98.8128 1.09863 95.4198 3.20612 93.5884 6.34096C92.2609 5.30862 90.5953 4.69221 88.7852 4.69221C84.4533 4.69221 80.9414 7.39541 80.9414 11.7374V14.2858H92.147H96.6291H113.251V10.8577C113.251 5.01754 108.527 1.09863 102.699 1.09863Z" fill="#FF572B"/>
<path d="M291.144 105.3C287.258 105.3 283.865 107.407 282.034 110.542C280.706 109.51 279.041 108.893 277.231 108.893C272.899 108.893 269.387 111.597 269.387 115.939V118.488H280.592H285.074H301.697V115.06C301.697 109.218 296.973 105.3 291.144 105.3Z" fill="#FF572B"/>
<path d="M74.8809 63.6924L78.0753 66.8943" stroke="#1C00A0" stroke-miterlimit="10"/>
<path d="M78.0753 63.6924L74.8809 66.8943" stroke="#1C00A0" stroke-miterlimit="10"/>
<path d="M171.33 39.0859L174.525 42.2878" stroke="#1C00A0" stroke-miterlimit="10"/>
<path d="M174.525 39.0859L171.33 42.2878" stroke="#1C00A0" stroke-miterlimit="10"/>
<path d="M277.734 72.4258L280.93 75.6277" stroke="#1C00A0" stroke-miterlimit="10"/>
<path d="M280.93 72.4258L277.734 75.6277" stroke="#1C00A0" stroke-miterlimit="10"/>
<path d="M21.8955 164.501L25.09 167.703" stroke="#1C00A0" stroke-miterlimit="10"/>
<path d="M25.09 164.501L21.8955 167.703" stroke="#1C00A0" stroke-miterlimit="10"/>
<path d="M299.26 164.501L302.454 167.703" stroke="#1C00A0" stroke-miterlimit="10"/>
<path d="M302.454 164.501L299.26 167.703" stroke="#1C00A0" stroke-miterlimit="10"/>
<path d="M55.3345 129.307C55.3345 130 54.775 130.561 54.0839 130.561C53.3934 130.561 52.834 130 52.834 129.307C52.834 128.615 53.3934 128.055 54.0839 128.055C54.7743 128.055 55.3345 128.615 55.3345 129.307Z" stroke="#1C00A0" stroke-miterlimit="10"/>
<path d="M46.3071 40.6864C46.3071 41.3784 45.7477 41.9399 45.0572 41.9399C44.3668 41.9399 43.8066 41.3791 43.8066 40.6864C43.8066 39.9944 44.3661 39.4336 45.0572 39.4336C45.7477 39.4336 46.3071 39.9944 46.3071 40.6864Z" stroke="#1C00A0" stroke-miterlimit="10"/>
<path d="M174.178 2.35214C174.178 3.04417 173.619 3.60493 172.928 3.60493C172.238 3.60493 171.678 3.04417 171.678 2.35214C171.678 1.66011 172.237 1.09863 172.928 1.09863C173.618 1.09863 174.178 1.66011 174.178 2.35214Z" stroke="#1C00A0" stroke-miterlimit="10"/>
<path d="M248.38 141.094C248.38 141.786 247.821 142.347 247.13 142.347C246.44 142.347 245.88 141.786 245.88 141.094C245.88 140.402 246.439 139.841 247.13 139.841C247.821 139.841 248.38 140.402 248.38 141.094Z" stroke="#1C00A0" stroke-miterlimit="10"/>
<path d="M245.474 54.9305C245.474 55.6226 244.915 56.1833 244.224 56.1833C243.534 56.1833 242.974 55.6226 242.974 54.9305C242.974 54.2385 243.533 53.6777 244.224 53.6777C244.915 53.6777 245.474 54.2392 245.474 54.9305Z" stroke="#1C00A0" stroke-miterlimit="10"/>
<path opacity="0.22" d="M119.966 276.415C119.966 279.094 108.583 281.265 94.5411 281.265C80.499 281.265 69.1162 279.094 69.1162 276.415C69.1162 273.736 80.499 271.565 94.5411 271.565C108.583 271.565 119.966 273.736 119.966 276.415Z" fill="#AEA2E9"/>
<path opacity="0.22" d="M268.787 276.415C268.787 279.094 257.404 281.265 243.362 281.265C229.32 281.265 217.938 279.094 217.938 276.415C217.938 273.736 229.32 271.565 243.362 271.565C257.404 271.565 268.787 273.736 268.787 276.415Z" fill="#AEA2E9"/>
<path opacity="0.22" d="M223.97 260.957C223.97 263.636 190.952 265.807 150.224 265.807C109.496 265.807 76.4785 263.636 76.4785 260.957C76.4785 258.279 109.496 256.107 150.224 256.107C190.952 256.107 223.97 258.278 223.97 260.957Z" fill="#AEA2E9"/>
<path d="M215.964 260.958H99.0286C93.1992 260.958 88.4736 256.221 88.4736 250.378V101.318C88.4736 95.4748 93.1992 90.7383 99.0286 90.7383H215.964C221.793 90.7383 226.519 95.4748 226.519 101.318V250.378C226.519 256.221 221.793 260.958 215.964 260.958Z" fill="#FFB507"/>
<path d="M211.247 105.3H103.229V248.267H211.247V105.3Z" fill="white"/>
<path opacity="0.4" d="M169.545 122.322H111.055V143.722H169.545V122.322Z" fill="#8E8AFF"/>
<path d="M115.948 126.403H161.618" stroke="#1C00A0" stroke-miterlimit="10"/>
<path d="M115.948 137.007H149.798" stroke="#1C00A0" stroke-miterlimit="10"/>
<path d="M115.948 131.705H140.3" stroke="#1C00A0" stroke-miterlimit="10"/>
<path opacity="0.4" d="M169.545 151.418H111.055V172.817H169.545V151.418Z" fill="#8E8AFF"/>
<path d="M115.948 155.499H161.618" stroke="#1C00A0" stroke-miterlimit="10"/>
<path d="M115.948 166.102H149.798" stroke="#1C00A0" stroke-miterlimit="10"/>
<path d="M115.948 160.801H140.3" stroke="#1C00A0" stroke-miterlimit="10"/>
<path opacity="0.4" d="M169.545 180.515H111.055V201.914H169.545V180.515Z" fill="#8E8AFF"/>
<path opacity="0.4" d="M169.545 206.59H111.055V227.989H169.545V206.59Z" stroke="#8E8AFF" stroke-miterlimit="10"/>
<path d="M115.948 184.596H161.618" stroke="#1C00A0" stroke-miterlimit="10"/>
<path d="M115.948 195.198H149.798" stroke="#1C00A0" stroke-miterlimit="10"/>
<path d="M115.948 189.897H140.3" stroke="#1C00A0" stroke-miterlimit="10"/>
<path d="M187.939 140.541C191.834 140.541 194.991 137.376 194.991 133.472C194.991 129.568 191.834 126.403 187.939 126.403C184.044 126.403 180.887 129.568 180.887 133.472C180.887 137.376 184.044 140.541 187.939 140.541Z" stroke="#8E8AFF" stroke-miterlimit="10"/>
<path d="M187.939 168.165C191.834 168.165 194.991 165 194.991 161.096C194.991 157.192 191.834 154.027 187.939 154.027C184.044 154.027 180.887 157.192 180.887 161.096C180.887 165 184.044 168.165 187.939 168.165Z" stroke="#8E8AFF" stroke-miterlimit="10"/>
<path d="M180.157 131.222L187.032 138.688L201.64 122.322" stroke="#FFB507" stroke-width="2" stroke-miterlimit="10" stroke-linecap="round"/>
<path d="M180.157 159.195L187.032 166.66L193.671 158.282" stroke="#FFB507" stroke-width="2" stroke-miterlimit="10" stroke-linecap="round"/>
<path d="M187.939 197.202C191.834 197.202 194.991 194.037 194.991 190.133C194.991 186.229 191.834 183.064 187.939 183.064C184.044 183.064 180.887 186.229 180.887 190.133C180.887 194.037 184.044 197.202 187.939 197.202Z" stroke="#8E8AFF" stroke-miterlimit="10"/>
<path d="M190.621 226.404C194.223 224.919 195.942 220.788 194.46 217.178C192.978 213.567 188.857 211.845 185.255 213.33C181.653 214.815 179.934 218.945 181.416 222.556C182.898 226.166 187.019 227.889 190.621 226.404Z" stroke="#8E8AFF" stroke-miterlimit="10"/>
<path d="M180.157 218.007L187.032 225.472L201.64 209.106" stroke="#FF9426" stroke-width="2" stroke-miterlimit="10" stroke-linecap="round" stroke-linejoin="round"/>
<path d="M233.504 249.386C233.471 249.086 233.459 248.806 233.464 248.542C233.409 248.095 233.378 247.599 233.383 247.034C233.399 244.761 233.115 235.063 232.961 229.271C232.627 224.207 232.856 219.705 232.856 219.705L247.83 218.679C248.42 220.874 248.661 222.705 248.732 224.164C249.137 226.432 251.377 242.785 251.982 245.784C252.013 245.94 252.037 246.085 252.061 246.232C255.31 251.111 257.753 269.675 258.361 272.89C258.441 273.318 258.203 273.288 257.947 273.256C257.198 273.162 257.463 272.448 256.412 272.586C255.855 272.658 255.748 273.437 255.748 273.437C254.291 269.133 249.416 253.989 247.193 249.446C246.858 248.761 246.686 248.142 246.619 247.58C244.832 242.58 241.995 233.968 241.194 230.25C240.768 234.503 240.474 244.111 239.604 248.603C241.568 254.69 238.82 267.516 239.132 274.81C238.273 273.58 237.524 273.319 237.182 273.369C236.628 273.451 236.356 273.912 236.356 273.912C235.804 264.128 234.06 254.425 233.504 249.386Z" fill="#1C00A0"/>
<path d="M241.075 189.442C239.449 189.014 237.277 189.537 236.456 190.131C232.363 193.084 229.23 195.488 227.657 196.475C225.362 194.316 220.791 190.595 220.193 189.833C219.71 189.218 218.731 190.098 218.72 190.784C218.706 191.629 219.714 191.713 221.251 193.926C223.464 197.115 224.236 197.857 226.428 199.751C226.723 200.007 227.057 200.137 227.389 200.177C227.503 200.201 227.621 200.205 227.74 200.184C227.96 200.166 228.172 200.109 228.365 200.017C229.652 199.609 232.002 198.59 236.245 195.932C239.276 194.035 240.407 193.073 241.236 192.403C242.715 191.209 242.083 189.707 241.075 189.442Z" fill="#EBAF84"/>
<path d="M242.85 183.803C242.878 183.964 243.372 187.414 243.6 190.073C243.711 191.376 242.857 192.679 241.922 192.773C241.907 192.775 241.895 192.776 241.881 192.777C240.962 192.84 239.801 191.756 239.795 190.471C239.784 188.143 239.512 185.78 239.506 185.743L242.85 183.803Z" fill="#EBAF84"/>
<path d="M246.558 198.605C245.911 201.018 245.636 203.519 245.395 206.002C245.217 207.824 245.424 209.694 245.791 211.483C246.014 212.567 246.303 213.637 246.624 214.696C246.706 214.965 247.675 216.976 248.321 218.375C248.614 219.008 248.168 219.732 247.472 219.75C244.096 219.84 235.689 220.064 232.949 220.154C232.479 220.17 232.104 219.768 232.158 219.301C232.585 215.592 235.285 206.797 232.84 201.461C230.992 197.426 233.064 197.155 234.24 193.611C234.528 192.743 234.743 191.795 235.265 191.028C235.768 190.287 236.619 189.737 237.46 189.463C237.908 189.317 238.375 189.242 238.84 189.172C241.359 188.793 247.276 187.649 248.084 191.224C248.304 192.2 248.22 193.201 247.986 194.166C247.724 195.243 247.291 196.27 246.942 197.322C246.8 197.747 246.673 198.174 246.558 198.605Z" fill="#FFB507"/>
<path d="M244.48 181.167C244.387 184.149 244.345 184.81 243.137 186.112C241.93 187.413 240.122 188.095 238.722 188.191C237.21 188.294 235.979 186.77 235.552 185.54C235.11 184.267 234.489 181.252 234.692 177.981C234.795 176.323 236.683 174.189 238.771 174.047C240.858 173.903 244.708 173.883 244.48 181.167Z" fill="#EBAF84"/>
<path d="M236.17 273.9C236.022 274.244 230.674 276.643 232.039 276.999C233.404 277.354 234.941 276.977 235.72 276.796C236.499 276.616 237.262 276.546 238.191 276.477C239.415 276.385 239.42 276.308 239.161 274.934C238.804 273.043 236.649 272.785 236.17 273.9Z" fill="#321144"/>
<path d="M255.759 273.155C255.61 273.5 250.959 276.698 252.324 277.054C253.689 277.409 255.226 277.032 256.004 276.851C256.784 276.671 259.008 275.563 258.749 274.189C258.392 272.298 256.237 272.04 255.759 273.155Z" fill="#321144"/>
<path d="M243.603 181.265C243.256 182.318 243.42 183.32 243.97 183.502C244.52 183.685 245.249 182.979 245.596 181.926C245.944 180.873 245.779 179.872 245.229 179.689C244.678 179.506 243.951 180.212 243.603 181.265Z" fill="#EBAF84"/>
<path d="M256.286 272.624C256.205 272.662 256.13 272.708 256.061 272.763C256.123 272.703 256.199 272.657 256.286 272.624Z" fill="#FFC385"/>
<path d="M258.094 223.269L265.211 215.372L203.575 159.57L196.459 167.468L258.094 223.269Z" fill="#1C00A0"/>
<path d="M262.247 218.669L263.037 217.792L201.16 161.771L200.369 162.649L262.247 218.669Z" fill="white"/>
<path d="M260.269 220.85L261.06 219.973L199.182 163.952L198.391 164.829L260.269 220.85Z" fill="white"/>
<path d="M259.423 224.474L266.709 216.389L265.138 214.966L257.852 223.052L259.423 224.474Z" fill="white"/>
<path d="M264.069 224.915L267.627 220.967C268.657 219.825 268.567 218.062 267.428 217.03L266.712 216.382L259.426 224.466L260.142 225.114C261.281 226.146 263.04 226.057 264.069 224.915Z" fill="#FF572B"/>
<path d="M196.458 167.462L203.576 159.565L196.372 158.185L193.181 157.569L194.186 160.611L196.458 167.462Z" fill="#EBAF84"/>
<path d="M194.186 160.611L196.372 158.185L193.181 157.569L194.186 160.611Z" fill="#FF572B"/>
<path d="M257.532 201.219C257.036 200.19 255.68 198.046 251.586 193.848C249.089 191.286 247.909 190.384 247.079 189.716C245.601 188.524 244.271 189.462 244.228 190.507C244.159 192.19 245.133 194.205 245.886 194.882C249.256 197.912 252.025 200.279 253.497 201.694C250.898 203.79 246.645 207.684 245.8 208.168C245.756 208.193 245.734 208.229 245.701 208.259C244.873 208.316 243.965 208.495 243.483 208.827C243.017 209.147 244.008 209.151 244.722 209.163C243.435 209.887 242.602 210.168 242.216 210.866C241.78 211.655 243.463 211.765 244.066 211.514C244.668 211.263 246.877 210.495 247.098 209.749V209.748C247.657 209.476 248.248 208.655 250.163 207.702C253.771 205.907 254.652 205.224 256.93 203.254C257.352 202.889 257.548 202.415 257.574 201.95C257.647 201.703 257.643 201.45 257.532 201.219Z" fill="#EBAF84"/>
<path d="M220.386 190.975C220.707 190.569 221.175 189.923 221.427 189.207C221.572 188.797 221.397 188.278 220.905 188.353C220.474 188.419 219.273 189.116 219.055 189.737C218.87 190.264 218.929 190.94 219.159 191.384C219.391 191.83 219.861 191.638 220.386 190.975Z" fill="#EBAF84"/>
<path d="M244.225 189.042L243.969 188.127L238.771 188.695L238.84 189.172L244.225 189.042Z" fill="#FFB507"/>
<path d="M244.555 174.941C243.311 173.579 239.599 172.248 236.912 174.179C236.045 174.555 235.005 175.615 234.69 176.284C234.088 177.562 234.418 180.27 234.668 179.389C234.818 178.865 235.307 178.455 235.874 178.06C236.929 178.921 238.777 179.763 240.528 180.345L241.556 186.83H246.248C247.376 176.484 244.555 174.941 244.555 174.941Z" fill="#321144"/>
<path opacity="0.4" d="M123.116 210.87L70.3057 236.067L79.4819 255.389L132.292 230.192L123.116 210.87Z" fill="#8E8AFF"/>
<path d="M76.4785 237.649L117.715 217.974" stroke="#1C00A0" stroke-miterlimit="10"/>
<path d="M81.0254 247.222L111.589 232.64" stroke="#1C00A0" stroke-miterlimit="10"/>
<path d="M78.752 242.436L100.739 231.945" stroke="#1C00A0" stroke-miterlimit="10"/>
<path d="M81.3864 233.853L73.4913 239.125L77.4239 251.425C77.4239 251.425 80.2838 252.705 80.8056 253.694C81.3273 254.684 82.2569 255.964 81.7345 255.905C81.212 255.847 79.703 254.567 79.4126 254.567C79.1222 254.567 79.8767 258.058 79.8767 258.058C79.8767 258.058 77.2645 257.709 76.2779 256.196C75.2907 254.683 74.6992 252.006 74.6992 252.006C74.6992 252.006 70.7381 244.587 69.195 238.644C68.9537 237.715 69.2861 236.732 70.0199 236.114C72.5169 234.01 78.3115 229.24 80.5159 228.383C83.3602 227.278 85.1019 231.779 81.3864 233.853Z" fill="#EBAF84"/>
<path d="M88.8457 249.068L89.8109 250.626C89.8109 250.626 111.34 249.505 114.214 253.258C117.088 257.01 110.47 263.644 102.633 268.706C94.7955 273.768 97.4953 272.197 97.4953 272.197C97.4953 272.197 104.984 273.244 104.897 274.379C104.81 275.513 90.6166 274.379 90.6166 274.379L103.33 259.803L85.479 260.676L81.6475 249.941L88.8457 249.068Z" fill="#18008A"/>
<path d="M88.2222 248.37L88.8457 252.559C88.8457 252.559 98.8014 258.931 102.72 264.43C106.638 269.928 109.878 275.905 108.343 278.22C105.68 282.234 80.4282 271.499 80.4282 271.499L81.2118 275.688C81.2118 275.688 83.5273 277.338 83.1009 277.949C82.6746 278.56 76.6835 276.997 76.6835 276.997C76.6835 276.997 74.4193 267.484 75.203 265.477C75.9866 263.469 80.9207 268.008 80.9207 268.008L93.5969 269.583C93.5969 269.583 83.9978 265.041 78.7726 261.026C74.9197 258.065 74.0314 252.909 76.4458 248.37H88.2222Z" fill="#1C00A0"/>
<path d="M80.9214 268.008L90.2202 269.163C89.8458 269.952 89.2158 271.942 90.1547 275.258C84.8334 273.37 80.4282 271.499 80.4282 271.499L81.2118 275.688C81.2118 275.688 83.5273 277.338 83.1009 277.949C82.6746 278.56 76.6835 276.998 76.6835 276.998C76.6835 276.998 74.4193 267.484 75.203 265.477C75.9874 263.47 80.9214 268.008 80.9214 268.008Z" fill="#EBAF84"/>
<path d="M79.6226 266.914L80.9216 268.008L80.6625 272.752L81.2113 275.688C81.2113 275.688 83.5267 277.337 83.1004 277.949C82.8143 278.359 80.7935 278.177 78.5699 277.549C77.399 277.219 76.5086 276.268 76.2552 275.076C75.6409 272.188 74.6423 266.913 75.2032 265.476C75.7277 264.134 78.103 265.717 79.6226 266.914Z" fill="#FFC385"/>
<path d="M99.2803 215.903C99.2803 215.903 103.808 221.881 95.231 223.671C86.654 225.46 88.1153 220.629 88.6833 219.452C89.2506 218.274 96.32 214.768 99.2803 215.903Z" fill="#FFB507"/>
<path d="M98.4101 218.167C98.4101 218.167 97.5716 221.857 98.4101 223.212H97.1054C97.1054 223.212 96.3594 224.66 95.8469 225.641C95.3345 226.622 93.6568 225.221 93.0041 225.641C92.3514 226.062 91.1243 229.627 91.1243 229.627L84.709 227.697L90.068 216.58L98.4101 218.167Z" fill="#EBAF84"/>
<path d="M92.8795 227.123C92.8795 227.123 90.6161 227.512 87.3654 225.533L86.2045 226.697L82.0825 227.138C82.0825 227.138 78.367 231.759 77.7285 237.403C77.0901 243.047 74.3504 250.669 75.453 250.902C76.5563 251.134 86.9746 251.435 88.8452 250.902C89.8103 250.627 88.3519 243.628 89.8609 242.173C91.3699 240.719 93.3913 239.692 94.0988 237.402C95.1145 234.114 92.3571 228.965 92.3571 228.965L92.8795 227.123Z" fill="#FF572B"/>
<path d="M103.841 241.847C103.841 241.847 97.8866 235.759 96.3193 233.664C94.7519 231.57 92.0087 229.627 90.2677 231.779C88.7651 233.637 91.3995 236.457 91.966 237.33C92.3995 237.998 98.6938 243.708 101.62 246.347C102.504 247.145 103.792 247.29 104.832 246.713L116.38 240.317C116.38 240.317 117.455 240.881 118.891 240.707C120.328 240.532 120.12 240.556 120.729 239.989C121.338 239.422 123.341 238.043 123.341 237.213C123.341 237.213 118.901 237.861 118.247 237.25C117.594 236.639 118.987 234.762 118.291 234.152L115.858 237.213L103.841 241.847Z" fill="#EBAF84"/>
<path d="M100.252 215.816C99.9962 212.433 94.4471 211.452 91.1964 212.732C87.9457 214.012 87.5393 216.863 84.695 218.143C81.8507 219.423 81.7923 221.984 80.2834 223.496C78.7737 225.008 76.3358 227.627 77.9615 230.652C79.5872 233.678 83.7085 229.721 86.0887 229.081C88.4689 228.442 87.7136 226.871 89.1073 224.892C90.5003 222.914 94.3318 223.146 94.9126 219.713C94.9126 219.713 100.6 220.412 100.252 215.816Z" fill="#321144"/>
<path d="M137.971 125.844C137.971 125.844 144.452 127.835 145.001 129.307L134.402 128.381L136.029 125.674L137.971 125.844Z" fill="#25232A"/>
<path d="M142.565 125.844C142.565 125.844 149.046 127.835 149.595 129.307L138.996 128.381L140.623 125.674L142.565 125.844Z" fill="#25232A"/>
<path d="M132.862 81.1924L133.567 86.0566C133.567 86.0566 150.599 94.6977 151.128 99.7075C151.621 104.388 143.704 126.272 143.704 126.272H141.059L141.587 101.14C141.587 101.14 135.075 99.41 125.071 93.5427C120.853 91.0692 120.246 85.6214 122.702 81.1924H132.862Z" fill="#18008A"/>
<path d="M127.874 81.1924L128.58 86.0566C128.58 86.0566 145.611 94.6977 146.14 99.7075C146.634 104.388 138.716 126.272 138.716 126.272H136.071L136.6 101.14C136.6 101.14 130.088 99.41 120.083 93.5427C115.866 91.0692 115.259 85.6214 117.715 81.1924H127.874Z" fill="#1C00A0"/>
<path d="M142.403 46.4276C143.054 46.7522 143.357 44.2788 143.414 43.4262C143.472 42.5736 142.935 41.8467 142.282 41.5263C141.629 41.2067 140.797 40.6788 140.067 40.6866C138.349 40.7044 138.349 40.7044 136.632 40.7223C135.913 40.7294 135.171 40.743 134.491 41.0833C133.246 41.7054 132.488 43.3178 132.336 44.8516C132.184 46.3848 132.524 47.8716 132.861 49.3163C133.086 50.2809 133.404 51.366 134.217 51.6785C135.005 51.9817 135.915 51.3917 136.541 50.6554C137.554 49.464 138.624 50.0997 139.479 48.7549C140.336 47.4107 140.116 46.2236 141.453 46.5004" fill="#321144"/>
<path d="M140.467 71.5L140.277 77.1961L148.653 83.1547L150.433 83.6035C150.955 83.7348 151.374 84.1229 151.547 84.633L151.596 84.7778L149.681 84.8613L151.257 87.1935C151.566 87.6501 151.405 88.2743 150.913 88.5233L149.93 89.0227C149.561 89.2097 149.113 89.1255 148.837 88.8165L144.951 84.4667L136.104 79.5034C135.538 79.1859 135.204 78.5716 135.246 77.9231L135.715 70.4648L140.467 71.5Z" fill="#EBAF84"/>
<path d="M140.332 61.1299L141.999 72.6462L134.755 74.0267L135.57 64.7006L140.332 61.1299Z" fill="#FFB507"/>
<path d="M135.229 55.1609C132.569 54.4504 127.395 55.2879 124.829 59.0313C122.264 62.7747 116.315 77.1861 116.272 84.2042C116.272 84.2042 125.402 85.8437 133.55 83.607C133.55 83.607 135.172 74.998 136.724 71.4201C138.276 67.8423 138.172 67.9621 140.332 61.1303C140.332 61.1303 139.486 56.2974 135.229 55.1609Z" fill="#FFB507"/>
<path d="M141.613 45.7445L141.999 49.5906L140.884 49.4929C140.884 49.4929 140.861 51.3821 140.785 52.1854C140.709 52.9894 140.169 53.7521 138.194 53.3397L137.254 58.48C137.254 58.48 134.517 59.3512 132.55 55.067L134.045 50.155C134.045 50.155 132.672 49.8246 132.68 48.4149C132.689 47.0051 134.451 47.8491 134.451 47.8491L134.631 50.5666L135.907 50.9483L136.211 46.4123C136.211 46.4123 139.181 47.2705 140.1 46.5721C140.582 46.2054 140.933 45.6846 140.933 45.6846L141.613 45.7445Z" fill="#EBAF84"/>
<path d="M124.517 89.0002L136.116 93.5619L155.087 93.9443L164.328 79.3253L144.797 78.1074L136.348 92.2392L124.589 87.9828L124.517 89.0002Z" fill="#AEA2E9"/>
<path d="M152.552 86.334C152.302 86.9939 151.68 87.3913 151.163 87.2215C150.646 87.0517 150.429 86.3782 150.679 85.7183C150.929 85.0584 151.551 84.661 152.068 84.8315C152.584 85.0006 152.801 85.6741 152.552 86.334Z" fill="#F3F0D8"/>
<path d="M126.65 69.8234L125.843 77.1647L135.287 85.7987C135.287 85.7987 140.465 86.7847 140.516 87.3012C140.566 87.8177 138.022 87.8933 138.022 87.8933L140.085 91.2286L140.188 91.3285C140.965 92.0869 140.638 93.4039 139.596 93.7078L138.98 93.8876C138.519 94.0217 138.021 93.9133 137.658 93.5987L136.156 92.2959C136.008 92.1675 135.877 92.0206 135.767 91.8586L133.28 88.208L121.665 80.2375C121.164 79.8936 120.856 79.3314 120.834 78.7235L120.505 69.2891L126.65 69.8234Z" fill="#EBAF84"/>
<path d="M127.132 57.0922C129.724 57.8698 130.055 60.7029 129.783 63.3611C129.511 66.0194 129.861 70.4662 129.861 70.4662L119.967 68.7511C119.967 68.7511 121.45 60.9654 122.285 59.4743C123.546 57.2241 125.359 56.5606 127.132 57.0922Z" fill="#FFB507"/>
</svg>
