<svg width="17" height="11" viewBox="0 0 17 11" fill="none" xmlns="http://www.w3.org/2000/svg">
<g clip-path="url(#clip0_107_503)">
<path d="M1.46053 5.73931C1.4015 5.58496 1.4015 5.41517 1.46053 5.26081C2.03549 3.90771 3.01144 2.75078 4.26466 1.93668C5.51789 1.12259 6.99194 0.687988 8.49995 0.687988C10.008 0.687988 11.482 1.12259 12.7352 1.93668C13.9885 2.75078 14.9644 3.90771 15.5394 5.26081C15.5984 5.41517 15.5984 5.58496 15.5394 5.73931C14.9644 7.09241 13.9885 8.24935 12.7352 9.06345C11.482 9.87754 10.008 10.3121 8.49995 10.3121C6.99194 10.3121 5.51789 9.87754 4.26466 9.06345C3.01144 8.24935 2.03549 7.09241 1.46053 5.73931Z" stroke="#25262C" stroke-width="1.1" stroke-linecap="round" stroke-linejoin="round"/>
<path d="M8.5 7.5625C9.6736 7.5625 10.625 6.63909 10.625 5.5C10.625 4.36091 9.6736 3.4375 8.5 3.4375C7.32639 3.4375 6.375 4.36091 6.375 5.5C6.375 6.63909 7.32639 7.5625 8.5 7.5625Z" stroke="#25262C" stroke-width="1.1" stroke-linecap="round" stroke-linejoin="round"/>
</g>
<defs>
<clipPath id="clip0_107_503">
<rect width="17" height="11" fill="white"/>
</clipPath>
</defs>
</svg>
