<svg width="22" height="21" viewBox="0 0 22 21" fill="none" xmlns="http://www.w3.org/2000/svg">
<path d="M8.74964 17.75C8.74955 17.9358 8.80125 18.118 8.89893 18.2761C8.99661 18.4342 9.13641 18.5619 9.30264 18.645L11.3026 19.645C11.4551 19.7212 11.6246 19.7572 11.7949 19.7494C11.9652 19.7417 12.1307 19.6906 12.2757 19.6009C12.4207 19.5113 12.5403 19.386 12.6233 19.2371C12.7062 19.0881 12.7497 18.9205 12.7496 18.75V11.75C12.7499 11.2544 12.9341 10.7765 13.2666 10.409L20.4896 2.42C20.6191 2.27656 20.7042 2.09868 20.7347 1.90788C20.7652 1.71708 20.7398 1.52153 20.6615 1.34487C20.5833 1.16822 20.4555 1.01802 20.2936 0.912452C20.1318 0.806881 19.9429 0.750456 19.7496 0.75H1.74964C1.55625 0.75007 1.36702 0.806216 1.20489 0.911636C1.04276 1.01706 0.914669 1.16723 0.836144 1.34396C0.757619 1.5207 0.732026 1.71641 0.762464 1.90739C0.792902 2.09837 0.878066 2.27643 1.00764 2.42L8.23264 10.409C8.56518 10.7765 8.74942 11.2544 8.74964 11.75V17.75Z" stroke="#25262C" stroke-width="1.5" stroke-linecap="round" stroke-linejoin="round"/>
</svg>
