<svg width="24" height="24" viewBox="0 0 24 24" fill="none" xmlns="http://www.w3.org/2000/svg">
<path d="M12 12V18" stroke="#25262C" stroke-width="1.5" stroke-linecap="round" stroke-linejoin="round"/>
<path d="M4.07708 10.615C4.01369 10.767 3.9888 10.9323 4.00463 11.0962C4.02047 11.2601 4.07654 11.4175 4.16786 11.5546C4.25918 11.6916 4.38292 11.8039 4.52811 11.8817C4.67329 11.9594 4.83541 12 5.00008 12H19.0001C19.1648 12 19.3269 11.9594 19.4721 11.8817C19.6172 11.8039 19.741 11.6916 19.8323 11.5546C19.9236 11.4175 19.9797 11.2601 19.9955 11.0962C20.0114 10.9323 19.9865 10.767 19.9231 10.615L16.8461 3.231C16.6943 2.8665 16.4379 2.5551 16.1094 2.33604C15.7809 2.11697 15.3949 2.00005 15.0001 2H9.00008C8.60535 1.99997 8.21943 2.11674 7.89093 2.33562C7.56244 2.5545 7.30606 2.86569 7.15408 3.23L4.07708 10.615Z" fill="#3D5EF3" fill-opacity="0.3" stroke="#25262C" stroke-width="1.5" stroke-linecap="round" stroke-linejoin="round"/>
<path d="M8 20C8 19.4696 8.21071 18.9609 8.58579 18.5858C8.96086 18.2107 9.46957 18 10 18H14C14.5304 18 15.0391 18.2107 15.4142 18.5858C15.7893 18.9609 16 19.4696 16 20V21C16 21.2652 15.8946 21.5196 15.7071 21.7071C15.5196 21.8946 15.2652 22 15 22H9C8.73478 22 8.48043 21.8946 8.29289 21.7071C8.10536 21.5196 8 21.2652 8 21V20Z" stroke="#25262C" stroke-width="1.5" stroke-linecap="round" stroke-linejoin="round"/>
</svg>
