<svg width="74" height="100" viewBox="0 0 74 100" fill="none" xmlns="http://www.w3.org/2000/svg">
<g clip-path="url(#clip0_168_3845)">
<path d="M47.0252 21.2429C47.0252 21.5151 46.9941 21.794 46.9288 22.0729L44.1991 33.8077C43.812 35.476 42.1571 36.5091 40.5072 36.1147L29.5674 32.6855L29.0332 32.5188C28.4108 32.9743 27.5418 33.1838 26.6335 33.0221C25.0457 32.7383 23.9463 31.433 24.1782 30.1045C24.4103 28.7778 25.8853 27.9312 27.4732 28.2134C28.3814 28.3751 29.1279 28.8718 29.5592 29.5138L29.5674 29.5154L29.5951 29.5204L39.1171 30.7102L39.9175 20.9541C40.0695 19.0893 41.6116 17.6553 43.464 17.6553C45.4733 17.6553 47.0252 19.3138 47.0252 21.2429Z" fill="#ED9DA0"/>
<path d="M47.0251 21.2429C47.0251 21.5151 46.9941 21.794 46.9288 22.0729L44.6891 34.3027C44.302 35.9711 42.6471 37.0041 40.9972 36.6098L30.0574 33.537L30.5474 28.7514L38.8786 29.9065L39.9175 20.9541C40.0694 19.0893 41.6115 17.6553 43.4639 17.6553C45.4732 17.6553 47.0251 19.3138 47.0251 21.2429Z" fill="#2F2E43"/>
<path d="M0 99.876H5.80565H10.966H11.1735H15.7164H46.8275H54.2307H74" stroke="#090814" stroke-width="1.5" stroke-miterlimit="10"/>
<path d="M61.2332 85.6864L58.5908 87.6543L60.5389 90.3237L63.1813 88.3557L61.2332 85.6864Z" fill="#ED9DA0"/>
<path d="M64.5023 91.1198L58.8854 95.3029C58.4054 95.6605 57.8419 95.9087 57.2559 96.0208L55.8534 96.2892C55.5634 96.3447 55.2629 96.2255 55.0878 95.9855C54.8824 95.7041 54.8882 95.3154 55.102 95.0404L56.8024 92.8523L59.0409 88.19L59.0538 88.2019C59.3774 88.5007 59.8688 88.9501 59.9056 88.9721C60.5969 89.1267 61.1278 89.0398 61.4836 88.7141C62.1042 88.1458 61.9791 87.0313 61.9778 87.0201L61.9767 87.0116L61.9841 87.0072C62.1531 86.9066 62.316 86.8841 62.4682 86.9402C62.7913 87.0593 62.9599 87.4878 62.9841 87.5534C63.2995 87.598 64.1198 88.5482 64.1858 88.6251C64.6578 88.7115 64.9827 88.8905 65.1516 89.1571C65.2992 89.3902 65.3278 89.6875 65.2366 90.0406C65.127 90.4655 64.8662 90.8488 64.5023 91.1198Z" fill="#090814"/>
<path d="M38.5735 93.4746H35.2906V96.791H38.5735V93.4746Z" fill="#ED9DA0"/>
<path d="M38.0132 99.8079H31.035C30.4385 99.8079 29.8392 99.6699 29.3016 99.4089L28.0151 98.7842C27.7491 98.655 27.5773 98.3789 27.5773 98.0808C27.5773 97.7312 27.8102 97.4218 28.1438 97.3286L30.7979 96.5867L35.3383 94.1758L35.3417 94.1932C35.4266 94.6276 35.5582 95.2839 35.5749 95.3237C36.0405 95.8626 36.5188 96.1109 36.9966 96.0619C37.8299 95.9766 38.3838 95.0045 38.3893 94.9947L38.3936 94.9872L38.4021 94.9881C38.5972 95.0085 38.7415 95.088 38.8311 95.2244C39.0212 95.5139 38.9052 95.9599 38.8861 96.0271C39.1138 96.2522 39.216 97.5088 39.2239 97.6102C39.553 97.9626 39.7094 98.3015 39.6887 98.6173C39.6706 98.8934 39.519 99.1498 39.2382 99.3795C38.9004 99.6558 38.4653 99.8079 38.0132 99.8079Z" fill="#090814"/>
<path d="M51.9685 41.6338H36.2348L33.7268 94.3623H39.2677L42.8476 70.3948L57.2131 89.5688L62.4576 84.7753L51.9685 70.3948V41.6338Z" fill="#090814"/>
<path d="M47.9179 6.98085C47.9179 6.98085 52.2528 6.97139 50.6334 2.75189C49.014 -1.46761 45.9987 0.421685 45.9987 0.421685C45.9987 0.421685 44.7281 1.09967 44.99 2.61233" fill="#090814"/>
<path d="M48.3517 9.00517C48.3517 5.77005 45.7556 3.14746 42.5532 3.14746C39.3508 3.14746 36.7546 5.77005 36.7546 9.00517C36.7546 11.6289 38.4623 13.8494 40.8159 14.5951L41.9369 22.0789L47.6514 17.2682C47.6514 17.2682 46.4169 15.6798 45.7549 13.8886C47.3196 12.8396 48.3517 11.0445 48.3517 9.00517Z" fill="#ED9DA0"/>
<path d="M45.3392 13.9534C45.3392 13.9534 46.1092 10.9711 44.8501 9.59977C43.5939 8.23159 43.4316 10.3604 43.4316 10.3604L42.5252 10.1614C42.5252 10.1614 42.6828 8.0911 40.9093 7.73278L42.0522 5.26438C42.0522 5.26438 37.6766 6.12265 37.556 5.69453C36.607 2.32588 45.6601 -0.551739 48.1609 4.58757C52.0505 12.5809 45.3392 13.9534 45.3392 13.9534Z" fill="#090814"/>
<path d="M48.5135 34.4053L51.0832 42.0549L36.5446 41.8899L38.7122 34.9003L48.5135 34.4053Z" fill="#ED9DA0"/>
<path d="M47.2007 14.9902L40.7534 17.2545L34.6582 49.042L47.2007 50.589L48.1152 45.7424L48.9871 50.589H53.3317L48.6477 18.9786C48.438 17.5638 47.9457 16.2068 47.2007 14.9902Z" fill="#ACACAC"/>
<path d="M45.3929 52.34L45.5051 47.115L42.4853 47.0488L42.3731 52.2738C41.8096 52.8021 41.4377 53.6231 41.4177 54.554C41.3827 56.1826 42.436 57.5266 43.7703 57.5559C45.1045 57.5851 46.2145 56.2885 46.2495 54.6598C46.2695 53.729 45.9331 52.8925 45.3929 52.34Z" fill="#ED9DA0"/>
<path d="M41.2239 26.1885V51.5142H46.4684L48.0184 26.4023" fill="#090814"/>
<path d="M51.7851 53.0508C51.693 53.0508 51.601 53.0475 51.5086 53.0404C50.4066 52.9568 49.4584 52.3599 48.6901 51.2665C45.7988 47.1509 39.9688 33.5312 39.9688 29.6581C39.9688 25.957 40.7664 17.4743 40.794 17.3472L46.6823 14.0537C49.5072 14.7237 51.4735 17.337 51.358 20.2676C51.0758 27.4279 51.8024 43.7503 56.5568 50.5144L56.5961 50.5702L56.5492 50.6195C56.4509 50.7223 54.199 53.0508 51.7851 53.0508Z" fill="#090814"/>
<path d="M23.3815 43.8109C22.5122 43.8109 21.5612 43.5953 20.626 43.3829C19.9325 43.2244 19.3205 43.1863 18.8278 43.1546C18.084 43.1071 17.494 43.069 17.1676 42.6284C16.8444 42.194 16.8444 41.4553 17.1676 39.997C17.5976 38.0599 18.5547 34.9688 19.7285 32.4262C21.2411 29.1449 22.6973 27.6359 24.0531 27.9434C25.8701 28.3555 26.5951 31.4181 26.865 33.2093C27.2416 35.7075 27.2102 38.6749 26.7834 40.593C26.2185 43.1356 24.9224 43.8077 23.3815 43.8077L23.3815 43.8109ZM23.7141 28.476C22.7161 28.476 21.4922 29.947 20.24 32.6703C19.0851 35.1749 18.1405 38.2184 17.7199 40.127C17.4469 41.3507 17.4187 42.0197 17.6227 42.2923C17.7953 42.5237 18.2441 42.5523 18.8686 42.5903C19.3801 42.622 20.0141 42.6632 20.7516 42.8313C23.6796 43.4939 25.5124 43.7348 26.2373 40.4725C27.0125 36.9757 26.4225 29.0657 23.9338 28.5014C23.8616 28.4855 23.7895 28.476 23.7173 28.476L23.7141 28.476Z" fill="#DFDFE0"/>
<path d="M35.2317 67.315L7.3258 67.4989L2.98865 65.4857L5.51499 39.4541L8.05702 39.5841L34.2023 40.9283L35.2317 67.315Z" fill="#E2E3E4"/>
<path opacity="0.2" d="M7.3258 67.4989L2.98865 65.4857L5.51499 39.4541L8.05702 39.5841L7.3258 67.4989Z" fill="#272223"/>
<path d="M8.87482 35.5961L8.83477 35.5556L8.79472 35.5961C6.84573 33.6288 3.68714 33.6312 1.73975 35.6001C-0.207635 37.5698 -0.246886 40.8003 1.7021 42.7675L8.83957 49.9706L15.9722 42.7586C17.9196 40.7889 17.8788 37.5585 15.9306 35.5912C13.9816 33.624 10.823 33.6264 8.87562 35.5953L8.87482 35.5961Z" fill="#ACACAC"/>
</g>
<defs>
<clipPath id="clip0_168_3845">
<rect width="74" height="100" fill="white"/>
</clipPath>
</defs>
</svg>
