<svg width="18" height="18" viewBox="0 0 18 18" fill="none" xmlns="http://www.w3.org/2000/svg">
<g clip-path="url(#clip0_130_314)">
<path d="M10.4999 9.75002L4.21419 16.035C4.06645 16.1828 3.89105 16.3 3.69801 16.38C3.50496 16.46 3.29805 16.5012 3.08908 16.5013C2.66705 16.5013 2.26228 16.3338 1.96381 16.0354C1.66535 15.737 1.49763 15.3323 1.49756 14.9103C1.49749 14.4883 1.66507 14.0835 1.96344 13.785L8.25144 7.49927" stroke="#25262C" stroke-width="1.5" stroke-linecap="round" stroke-linejoin="round"/>
<path d="M10 2L6.5 5.5L12.5 11L16 7.5L10 2Z" fill="#3D5EF3" fill-opacity="0.3"/>
<path d="M12 12L16.5 7.5M16.125 7.875L10.125 1.875M6 6L10.5 1.5M6.375 5.625L12.375 11.625" stroke="#25262C" stroke-width="1.5" stroke-linecap="round" stroke-linejoin="round"/>
</g>
<defs>
<clipPath id="clip0_130_314">
<rect width="18" height="18" fill="white"/>
</clipPath>
</defs>
</svg>
