<svg width="29" height="27" viewBox="0 0 29 27" fill="none" xmlns="http://www.w3.org/2000/svg">
<path d="M22.4597 26.1152C21.2244 26.1152 20.2137 25.1359 20.2137 23.939C20.2137 22.742 21.2244 21.7627 22.4597 21.7627C23.695 21.7627 24.7056 22.742 24.7056 23.939C24.7056 25.1359 23.695 26.1152 22.4597 26.1152ZM8.98387 26.1152C7.74859 26.1152 6.7379 25.1359 6.7379 23.939C6.7379 22.742 7.74859 21.7627 8.98387 21.7627C10.2192 21.7627 11.2298 22.742 11.2298 23.939C11.2298 25.1359 10.2192 26.1152 8.98387 26.1152ZM21.8982 19.5864H7.86089C5.95181 19.5864 4.49194 18.1718 4.49194 16.322V2.17627H1.12298C0.449194 2.17627 0 1.74101 0 1.08813C0 0.435254 0.449194 0 1.12298 0H5.61492C6.28871 0 6.7379 0.435254 6.7379 1.08813V4.35254H25.0425C26.727 4.35254 28.0746 5.6583 28.0746 7.2905C28.0746 7.61694 28.0746 7.83457 27.9623 8.16101L25.1548 17.1925C24.7056 18.6071 23.3581 19.5864 21.8982 19.5864Z" fill="#3D5EF3"/>
</svg>
