<svg width="119" height="152" viewBox="0 0 119 152" fill="none" xmlns="http://www.w3.org/2000/svg">
<g clip-path="url(#clip0_230_2857)">
<path d="M115.741 17.9311C110.32 10.6829 88.4407 19.2656 78.7297 23.5563C74.4317 22.1868 68.7947 21.0632 62.2848 20.1491C55.7823 19.1765 50.057 18.6531 45.546 18.7454C37.4578 11.8695 18.9304 -2.56335 11.6714 2.84245C4.46213 8.21143 9.13853 26.4983 11.7107 34.717C6.2745 41.4412 3.50745 49.2675 2.49744 56.2057C1.62398 62.2053 1.4678 68.3013 2.03543 74.5024C3.14451 86.6054 11.1032 96.9296 22.5671 101.03C31.4207 104.193 40.4081 106.435 49.5295 107.757C58.6508 109.08 67.9064 109.482 77.2957 108.965C89.4549 108.289 100.029 100.652 104.543 89.3646C106.856 83.5812 108.445 77.693 109.318 71.6931C110.328 64.7563 109.908 56.4702 106.616 48.4822C111.415 41.34 121.123 25.128 115.741 17.9311Z" fill="#B1B9C6"/>
<path d="M68.1195 25.3678C66.6736 35.2988 62.6065 42.9243 59.0478 42.4084C55.4817 41.8912 53.7574 33.4261 55.2032 23.4951C55.3935 22.1751 55.639 20.8637 55.9389 19.5641C60.1634 19.9813 64.3663 20.5931 68.5342 21.3976C68.4514 22.7262 68.313 24.0507 68.1195 25.3678ZM54.7257 20.0947C53.2808 30.0183 49.2202 37.6521 45.6541 37.1353C42.2251 36.638 40.496 28.7391 41.6708 19.2812C44.0068 19.0231 46.3594 18.9463 48.7073 19.0514C50.7444 19.1425 52.7791 19.2796 54.8099 19.4626C54.7867 19.6764 54.7567 19.8818 54.7257 20.0947ZM82.3067 25.0875C80.7454 34.5281 76.8288 41.6552 73.3843 41.1559C69.8179 40.6387 68.1025 32.1674 69.5472 22.2437C69.5781 22.0309 69.6082 21.8254 69.6468 21.6138C71.9447 22.074 74.2301 22.5944 76.5006 23.1744C78.478 23.6773 80.418 24.3166 82.3067 25.0875Z" fill="#91A2B5"/>
<path d="M10.1464 35.2079C6.99319 25.1287 2.87133 7.35033 10.6884 1.5289C14.4643 -1.28339 20.4925 -0.223254 29.1162 4.76989C35.6329 8.54347 42.224 13.7759 46.6059 17.5008L44.48 19.9916C29.1846 6.98962 16.9889 0.919715 12.649 4.1509C8.18855 7.47294 8.42268 18.7186 13.2758 34.2332L10.1464 35.2079ZM107.976 49.3905L105.252 47.5695C114.319 34.0661 117.748 23.3513 114.424 18.9071C111.182 14.5712 97.7589 16.926 79.3931 25.0533L78.0641 22.0626C83.3186 19.7374 91.1226 16.5938 98.4589 14.8242C108.152 12.486 114.233 13.1812 117.052 16.9504C122.877 24.7395 113.866 40.6184 107.976 49.3905Z" fill="#67828E"/>
<path d="M106.087 32.131C106.087 32.131 106.777 34.6072 106.565 37.2396C106.374 39.6734 104.651 41.3023 102.634 41.7942C99.2678 36.6327 94.8607 32.2281 89.6936 28.8612C89.8174 28.1905 90.0747 27.5514 90.4503 26.9817C90.826 26.412 91.3123 25.9233 91.8805 25.5445C96.7289 22.2798 103.26 18.9479 107.203 21.2591C114.07 25.2907 106.087 32.131 106.087 32.131ZM16.8713 19.1961C16.8713 19.1961 15.5037 21.374 14.9563 23.9577C14.4452 26.3449 15.6328 28.3963 17.4261 29.4404C22.1247 25.448 27.6057 22.4769 33.5194 20.7167C33.6562 19.401 33.2948 18.0365 32.3686 16.9158C28.6517 12.4093 23.341 7.36061 18.9017 8.45637C11.1688 10.3715 16.8713 19.1961 16.8713 19.1961Z" fill="white"/>
<path d="M69.4494 110.817C62.6584 110.817 55.9078 110.335 49.2932 109.376C40.1064 108.045 30.9282 105.755 22.0142 102.57C16.0984 100.454 10.9484 96.7183 7.11986 91.7664C3.29817 86.8234 0.975591 80.9052 0.402308 74.6515C-0.173652 68.3619 -0.0147865 62.0768 0.874739 55.9704C1.89159 48.9837 5.44285 35.8746 17.7992 26.5753C17.9711 26.446 18.1668 26.3517 18.3752 26.2978C18.5836 26.244 18.8006 26.2316 19.0138 26.2614C19.227 26.2913 19.4322 26.3627 19.6177 26.4717C19.8032 26.5806 19.9654 26.725 20.095 26.8965C20.2246 27.068 20.3191 27.2634 20.3731 27.4713C20.4271 27.6793 20.4394 27.8958 20.4096 28.1085C20.3797 28.3213 20.3081 28.5261 20.1989 28.7112C20.0897 28.8963 19.945 29.0582 19.7731 29.1875C8.35359 37.7817 5.06384 49.9515 4.11927 56.4409C3.26664 62.2932 3.11491 68.3201 3.66737 74.3538C4.18353 79.9876 6.27496 85.318 9.71525 89.7681C13.1603 94.2239 17.7951 97.5857 23.1194 99.4899C31.8281 102.601 40.793 104.838 49.7644 106.139C58.7358 107.439 67.9681 107.84 77.2043 107.331C82.8506 107.018 88.2529 105.111 92.8261 101.818C97.3936 98.5286 100.918 94.0125 103.02 88.7582C105.27 83.1318 106.843 77.311 107.695 71.4581C108.64 64.9687 108.956 52.3681 100.46 40.8859C100.207 40.5365 100.103 40.1019 100.17 39.6763C100.236 39.2508 100.469 38.8686 100.816 38.6127C101.163 38.3568 101.597 38.2479 102.024 38.3096C102.452 38.3713 102.837 38.5986 103.098 38.9422C112.291 51.3662 111.957 64.9417 110.939 71.9283C110.05 78.0353 108.41 84.1058 106.065 89.9709C103.732 95.8033 99.8173 100.817 94.7446 104.471C89.6624 108.131 83.6598 110.25 77.3858 110.598C74.7389 110.744 72.0909 110.817 69.4494 110.817ZM89.7035 30.4795C89.392 30.4796 89.0869 30.3907 88.8244 30.2233C86.625 28.8259 84.2167 27.5387 81.6659 26.3969C77.6054 24.5833 71.0071 23.0259 62.0562 21.7689C53.1018 20.43 46.3327 20.0494 41.922 20.6351C39.1535 21.0048 36.4775 21.5549 33.9695 22.2703C33.7619 22.3318 33.544 22.3515 33.3287 22.3285C33.1133 22.3054 32.9046 22.2399 32.7148 22.1359C32.5249 22.0319 32.3575 21.8914 32.2224 21.7224C32.0873 21.5535 31.9871 21.3595 31.9275 21.1517C31.868 20.9438 31.8503 20.7263 31.8755 20.5116C31.9007 20.2969 31.9684 20.0893 32.0744 19.9009C32.1805 19.7124 32.323 19.5468 32.4936 19.4136C32.6642 19.2804 32.8596 19.1823 33.0684 19.1249C35.7287 18.3658 38.5618 17.7831 41.4883 17.3924C46.2051 16.766 53.283 17.1492 62.5278 18.5315C71.769 19.8291 78.6639 21.4717 83.0068 23.4115C85.7033 24.6183 88.2526 25.9819 90.5856 27.4642C90.9523 27.6972 91.2112 28.066 91.3054 28.4895C91.3996 28.913 91.3214 29.3565 91.0881 29.7225C90.9397 29.9547 90.7351 30.1459 90.4931 30.2782C90.251 30.4105 89.9795 30.4798 89.7035 30.4795Z" fill="#67828E"/>
<path d="M91.7548 84.4671C91.6763 84.4671 91.5971 84.4615 91.5171 84.4499L82.05 83.0772C81.6228 83.0114 81.2389 82.7799 80.9819 82.4331C80.7249 82.0862 80.6155 81.6521 80.6777 81.2252C80.7399 80.7983 80.9685 80.4132 81.3139 80.1537C81.6592 79.8943 82.0933 79.7814 82.5216 79.8397L91.9886 81.2125C92.3986 81.2718 92.7708 81.4838 93.0305 81.8058C93.2902 82.1278 93.4181 82.536 93.3885 82.9483C93.3589 83.3606 93.1739 83.7465 92.8708 84.0282C92.5678 84.31 92.169 84.4668 91.7548 84.4671ZM88.7378 93.0922C88.4642 93.0923 88.1949 93.0236 87.9548 92.8924L80.6259 88.9066C80.4369 88.8038 80.27 88.6648 80.1348 88.4977C79.9995 88.3305 79.8987 88.1384 79.8378 87.9323C79.777 87.7262 79.7575 87.5102 79.7803 87.2966C79.8032 87.083 79.8679 86.876 79.971 86.6873C80.074 86.4987 80.2132 86.3321 80.3808 86.1972C80.5483 86.0623 80.7408 85.9616 80.9473 85.9009C81.1538 85.8402 81.3703 85.8207 81.5844 85.8435C81.7984 85.8663 82.0059 85.9309 82.1949 86.0337L89.5238 90.0196C89.9056 90.2272 90.189 90.5777 90.3118 90.9938C90.4346 91.41 90.3867 91.8578 90.1786 92.2387C90.0377 92.4972 89.8294 92.713 89.5759 92.8632C89.3223 93.0134 89.0327 93.0925 88.7378 93.0922ZM25.6291 74.8799C25.5506 74.8799 25.4715 74.8742 25.3914 74.8626L15.9244 73.4902C15.4942 73.4278 15.1064 73.1974 14.8465 72.8497C14.5865 72.502 14.4755 72.0655 14.538 71.6362C14.5689 71.4236 14.6414 71.2191 14.7515 71.0344C14.8615 70.8497 15.007 70.6886 15.1796 70.56C15.3521 70.4315 15.5484 70.3382 15.7571 70.2854C15.9658 70.2327 16.1829 70.2215 16.3959 70.2525L25.863 71.6249C26.2932 71.6873 26.6809 71.9177 26.9409 72.2654C27.2009 72.6131 27.3118 73.0496 27.2493 73.4789C27.1927 73.8676 26.9979 74.223 26.7004 74.4802C26.403 74.7374 26.0227 74.8792 25.6291 74.8799ZM16.5872 82.6316C16.1829 82.6303 15.7933 82.48 15.4932 82.2095C15.1931 81.939 15.0038 81.5674 14.9616 81.1661C14.9193 80.7649 15.0271 80.3621 15.2643 80.0353C15.5015 79.7085 15.8513 79.4807 16.2466 79.3956L24.4091 77.6559C24.8342 77.5658 25.2778 77.6476 25.6426 77.8835C26.0073 78.1194 26.2633 78.49 26.3544 78.9141C26.4451 79.3384 26.3633 79.7813 26.1269 80.1453C25.8904 80.5094 25.5188 80.7649 25.0936 80.8556L16.9311 82.5953C16.8181 82.6195 16.7028 82.6316 16.5872 82.6316Z" fill="#91A2B5"/>
<path d="M75.9929 59.6995C75.9144 59.6995 75.8353 59.6939 75.7553 59.6823L70.7888 58.9624C70.3585 58.9 69.9707 58.6696 69.7107 58.3219C69.4507 57.9741 69.3398 57.5376 69.4023 57.1082C69.4648 56.6789 69.6957 56.2919 70.0441 56.0325C70.3926 55.773 70.8301 55.6623 71.2603 55.7247L76.2268 56.4446C76.6372 56.5034 77.0099 56.7152 77.2701 57.0374C77.5302 57.3595 77.6583 57.7681 77.6287 58.1807C77.5991 58.5934 77.4138 58.9795 77.1103 59.2613C76.8068 59.5431 76.4075 59.6997 75.9929 59.6995ZM43.3016 54.9596C43.223 54.9596 43.1439 54.954 43.0639 54.9424L38.0974 54.2222C37.6702 54.1564 37.2862 53.9249 37.0292 53.5781C36.7722 53.2312 36.6629 52.7971 36.7251 52.3702C36.7872 51.9433 37.0159 51.5582 37.3612 51.2988C37.7065 51.0393 38.1406 50.9264 38.5689 50.9848L43.5354 51.705C43.9453 51.7643 44.3176 51.9763 44.5773 52.2983C44.837 52.6203 44.9649 53.0285 44.9353 53.4408C44.9056 53.8531 44.7207 54.2389 44.4176 54.5207C44.1145 54.8025 43.7158 54.9593 43.3016 54.9596Z" fill="white"/>
<path d="M43.0374 80.6917C42.8259 82.144 42.8128 83.5708 42.9818 84.9231C43.627 90.1647 46.9022 94.3355 51.3909 94.9862C51.7187 95.0337 52.0409 95.0649 52.3598 95.0646C57.6369 95.2163 62.5031 90.3312 63.475 83.6545C64.5059 76.5749 60.4001 72.6565 54.7613 71.8389C49.1144 71.0204 44.0682 73.6121 43.0374 80.6917Z" fill="#67828E"/>
<path d="M42.9814 84.9228C43.6267 90.1644 46.9019 94.3352 51.3906 94.986C51.7184 95.0335 52.0406 95.0646 52.3595 95.0643C52.5462 94.8328 52.7284 94.5977 52.906 94.3592C57.2025 88.6305 56.5418 84.7004 53.5165 82.4451C50.7215 80.3705 47.1518 80.0612 42.9814 84.9228Z" fill="#FD80A6"/>
<path d="M62.8921 74.3662C61.3782 72.5062 59.2237 71.2018 56.6045 70.5377L57.0088 67.7616L58.0453 67.9118C58.4755 67.974 58.9129 67.8632 59.2613 67.6037C59.6096 67.3442 59.8405 66.9573 59.9031 66.5281C59.9341 66.3155 59.9229 66.0989 59.87 65.8907C59.8171 65.6824 59.7236 65.4867 59.5948 65.3145C59.4661 65.1423 59.3046 64.9972 59.1197 64.8873C58.9347 64.7774 58.7298 64.7049 58.5168 64.6741L53.1993 63.9031C52.7726 63.8482 52.3413 63.9629 51.9985 64.2224C51.6558 64.4819 51.429 64.8655 51.3671 65.2904C51.3053 65.7153 51.4132 66.1475 51.6678 66.4936C51.9223 66.8398 52.303 67.0722 52.7277 67.1408L53.7645 67.291L53.3602 70.0683C47.0044 69.8198 42.3875 73.7549 41.412 80.4554H41.4117C40.2533 88.4152 44.6227 95.661 51.1525 96.6077C51.6331 96.6775 52.1181 96.7126 52.6037 96.7128C55.3446 96.7128 58.0274 95.5915 60.2842 93.4748C62.8359 91.0817 64.545 87.6774 65.0963 83.8893C65.6473 80.1071 64.8851 76.8139 62.8921 74.3662ZM61.8518 83.4194C61.4067 86.4781 60.0525 89.2028 58.039 91.0912C56.1276 92.884 53.8478 93.6939 51.624 93.3706C46.8831 92.6833 43.7578 87.1006 44.6566 80.9262C45.8022 73.0578 51.9382 73.0792 54.5235 73.4544C57.0471 73.8202 59.0612 74.8489 60.3476 76.4291C61.7673 78.1727 62.2736 80.5248 61.8518 83.4194Z" fill="#67828E"/>
<path d="M80.0122 73.9689C76.7626 73.9689 73.5532 72.4946 71.4647 69.7022C71.2048 69.3545 71.0939 68.918 71.1564 68.4887C71.219 68.0594 71.4498 67.6724 71.7982 67.413C72.1466 67.1535 72.584 67.0428 73.0143 67.1052C73.4445 67.1675 73.8322 67.3979 74.0923 67.7455C76.5228 70.9957 81.1493 71.6669 84.4069 69.2409C84.5794 69.1124 84.7756 69.0191 84.9843 68.9663C85.193 68.9135 85.41 68.9023 85.6231 68.9332C85.8361 68.9641 86.041 69.0366 86.2259 69.1465C86.4109 69.2564 86.5723 69.4016 86.7011 69.5738C86.8298 69.746 86.9233 69.9418 86.9762 70.15C87.0291 70.3583 87.0404 70.5748 87.0094 70.7874C86.9784 71 86.9058 71.2044 86.7956 71.389C86.6855 71.5736 86.54 71.7347 86.3674 71.8631C84.5329 73.2323 82.3031 73.9712 80.0122 73.9689ZM32.9968 67.1523C29.7475 67.1523 26.5375 65.6781 24.449 62.8857C24.189 62.538 24.0781 62.1014 24.1406 61.6721C24.2031 61.2428 24.434 60.8558 24.7824 60.5963C25.1308 60.3368 25.5683 60.2261 25.9985 60.2885C26.4288 60.3509 26.8165 60.5813 27.0766 60.929C29.5068 64.1788 34.1339 64.8501 37.3912 62.4246C37.5637 62.2961 37.7599 62.2028 37.9686 62.15C38.1772 62.0972 38.3943 62.0859 38.6073 62.1168C38.8203 62.1477 39.0252 62.2201 39.2102 62.33C39.3951 62.4399 39.5566 62.5851 39.6854 62.7573C39.8141 62.9294 39.9076 63.1252 39.9605 63.3334C40.0135 63.5417 40.0248 63.7582 39.9938 63.9708C39.9629 64.1834 39.8903 64.3878 39.7801 64.5724C39.67 64.757 39.5245 64.9181 39.352 65.0466C37.5174 66.4157 35.2876 67.1545 32.9968 67.1523Z" fill="#605C5D"/>
<path d="M108.591 115.636C108.591 128.028 110.586 137.012 93.2471 140.34V118.562L108.591 115.636Z" fill="#B1B9C6"/>
<path d="M93.2453 141.976C92.8373 141.976 92.444 141.824 92.1422 141.55C91.8403 141.276 91.6518 140.9 91.6133 140.495C91.5748 140.089 91.6891 139.684 91.934 139.358C92.1789 139.033 92.5367 138.81 92.9374 138.734C107.257 135.986 107.156 129.646 106.989 119.142C106.971 118.011 106.952 116.841 106.952 115.636C106.952 115.202 107.125 114.786 107.432 114.479C107.74 114.172 108.157 114 108.592 114C109.026 114 109.443 114.172 109.751 114.479C110.058 114.786 110.231 115.202 110.231 115.636C110.231 116.815 110.249 117.972 110.267 119.091C110.434 129.602 110.579 138.68 93.5568 141.946C93.4542 141.966 93.3499 141.976 93.2453 141.976Z" fill="#67828E"/>
<path d="M92.8682 150.364H27.1373C23.9285 150.364 21.3271 147.768 21.3271 144.566V104.329C21.3271 101.127 23.9285 98.5312 27.1373 98.5312H92.8682C96.077 98.5312 98.6783 101.127 98.6783 104.329V144.566C98.6783 147.768 96.077 150.364 92.8682 150.364Z" fill="#89D770"/>
<path d="M92.8674 152H27.1369C23.029 152 19.6875 148.665 19.6875 144.566V104.329C19.6875 100.23 23.0293 96.8955 27.1369 96.8955H92.8677C96.9756 96.8955 100.317 100.23 100.317 104.329V144.566C100.317 148.665 96.9753 152 92.8674 152ZM27.1369 100.167C24.8369 100.167 22.9659 102.034 22.9659 104.33V144.566C22.9659 146.861 24.8369 148.728 27.1369 148.728H92.8677C95.1677 148.728 97.0387 146.861 97.0387 144.566V104.329C97.0387 102.034 95.1677 100.167 92.8677 100.167H27.1369V100.167Z" fill="#6DB850"/>
<path d="M108.27 114.133C110.053 119.367 109.657 124.234 104.412 126.012C99.1675 127.791 93.4707 124.99 91.6881 119.756C89.9055 114.522 92.7124 108.838 97.9573 107.059C103.202 105.28 106.488 108.899 108.27 114.133Z" fill="#B1B9C6"/>
<path d="M101.174 128.187C99.4101 128.187 97.6563 127.783 96.0272 126.982C93.2313 125.608 91.1387 123.228 90.1361 120.283C89.1329 117.338 89.3391 114.18 90.7168 111.39C92.0946 108.599 94.4784 106.512 97.4299 105.511C100.404 104.502 103.169 104.907 105.426 106.682C107.272 108.133 108.751 110.463 109.822 113.607C110.892 116.751 111.143 119.497 110.565 121.771C109.86 124.551 107.914 126.553 104.94 127.562C103.727 127.975 102.455 128.186 101.174 128.187ZM100.532 108.239C99.8914 108.239 99.2108 108.362 98.4846 108.608C96.3625 109.328 94.6483 110.829 93.6576 112.836C92.6672 114.842 92.5188 117.113 93.2399 119.231C93.9611 121.348 95.4658 123.059 97.4763 124.048C99.4862 125.035 101.762 125.184 103.885 124.464C105.81 123.811 106.956 122.667 107.388 120.967C107.801 119.34 107.569 117.159 106.718 114.659C105.867 112.16 104.719 110.29 103.397 109.251C102.537 108.575 101.59 108.239 100.532 108.239Z" fill="#67828E"/>
<path d="M84.1722 119.665L77.9202 113.427C77.6128 113.12 77.1958 112.948 76.7611 112.948C76.3263 112.948 75.9093 113.12 75.6019 113.427C75.2945 113.734 75.1219 114.15 75.1219 114.583C75.1219 115.017 75.2947 115.433 75.6021 115.74L79.0555 119.187H70.7374V106.843C70.7374 106.409 70.5647 105.993 70.2573 105.686C69.9498 105.379 69.5329 105.207 69.0981 105.207H46.7764V105.21C46.509 105.21 46.2412 105.272 45.9976 105.404C45.7374 105.544 45.5201 105.752 45.3687 106.005C45.2172 106.258 45.1372 106.548 45.1372 106.843V134.129C45.1372 134.681 45.4154 135.195 45.8774 135.497L59.3574 144.321C59.6046 144.482 59.8911 144.574 60.1865 144.587C60.4819 144.6 60.7752 144.532 61.0353 144.392C61.2955 144.252 61.5128 144.044 61.6642 143.791C61.8157 143.537 61.8957 143.248 61.8957 142.953V135.765H69.0981C69.5329 135.765 69.9498 135.593 70.2573 135.286C70.5647 134.979 70.7374 134.563 70.7374 134.129V122.458H79.0555L75.6021 125.904C75.2947 126.211 75.1219 126.627 75.1219 127.061C75.1219 127.495 75.2945 127.911 75.6019 128.218C75.9093 128.524 76.3263 128.697 76.7611 128.697C77.1958 128.697 77.6128 128.525 77.9202 128.218L84.1722 121.979C84.3244 121.827 84.4452 121.647 84.5276 121.448C84.61 121.25 84.6524 121.037 84.6524 120.822C84.6524 120.607 84.61 120.395 84.5276 120.196C84.4452 119.998 84.3244 119.817 84.1722 119.665ZM58.6175 139.923L48.416 133.246V109.872L58.6175 116.549V139.923ZM52.2647 108.479H67.4589V119.187H61.896V115.666C61.896 115.395 61.8283 115.127 61.6991 114.889C61.5699 114.65 61.3832 114.447 61.1558 114.298L52.2647 108.479ZM67.4589 132.493H61.896V122.458H67.4589V132.493Z" fill="white"/>
<path d="M38.0824 97.2934L35.3299 95.1603C31.8944 92.498 27.0175 92.9525 24.1293 96.097C20.377 96.1142 15.8797 97.7191 11.8191 100.799C4.63089 106.251 1.53451 114.256 4.9034 118.679C8.22885 123.045 16.6094 122.286 23.739 117.023C27.3117 119.284 32.0836 118.506 34.7319 115.103L39.0668 109.533C41.3037 110.435 43.5391 110.618 44.8282 108.781C47.0178 105.663 43.0512 101.144 38.0824 97.2934Z" fill="#B1B9C6"/>
<path d="M39.0899 96.0018C39.0825 95.9961 39.0742 95.9928 39.0667 95.9872L36.3348 93.8702C32.4173 90.8338 26.9216 91.187 23.4227 94.4823C19.3431 94.686 14.7952 96.4886 10.8283 99.4963C2.79909 105.585 -0.377316 114.446 3.59788 119.67C5.37812 122.007 8.27904 123.155 11.6616 123.155C15.4208 123.155 19.775 121.736 23.8484 118.955C25.1943 119.604 26.67 119.94 28.1648 119.939C31.1321 119.939 34.0696 118.622 36.0263 116.108L39.6451 111.459C40.4421 111.692 41.2361 111.832 41.9998 111.832C42.2223 111.832 42.4428 111.82 42.6596 111.795C44.1195 111.63 45.3333 110.912 46.1707 109.72C49.2641 105.314 44.0275 99.8279 39.0899 96.0018ZM6.20814 117.69C3.4408 114.053 6.46489 106.914 12.8123 102.101C15.1998 100.29 17.7964 98.9865 20.3052 98.296L17.5729 101.807C14.2112 106.127 14.9978 112.37 19.3264 115.725L20.9088 116.951C15.0722 120.471 8.6527 120.899 6.20814 117.69ZM43.4858 107.842C43.1871 108.267 42.8188 108.484 42.2913 108.544C39.8381 108.819 35.4113 105.766 33.1929 103.775C32.8699 103.484 32.4446 103.334 32.0104 103.356C31.5762 103.379 31.1687 103.572 30.8776 103.895C30.5865 104.217 30.4356 104.641 30.4581 105.075C30.4806 105.508 30.6747 105.915 30.9976 106.205C31.407 106.573 33.729 108.613 36.527 110.131L33.4371 114.102C31.1839 116.996 26.9912 117.523 24.09 115.275L21.3375 113.141C18.4369 110.893 17.9097 106.709 20.1624 103.814L24.9816 97.6215C27.2319 94.7302 31.4231 94.2057 34.3243 96.4542L37.0768 98.5872L37.0785 98.5849L37.0794 98.5858C42.2345 102.581 44.6895 106.127 43.4858 107.842Z" fill="#67828E"/>
</g>
<defs>
<clipPath id="clip0_230_2857">
<rect width="119" height="152" fill="white"/>
</clipPath>
</defs>
</svg>
