<svg width="131" height="112" viewBox="0 0 131 112" fill="none" xmlns="http://www.w3.org/2000/svg">
<g clip-path="url(#clip0_226_1257)">
<path d="M9.83703 102.781C10.5919 103.045 11.4024 103.112 12.1904 102.973C12.9784 102.835 13.7173 102.497 14.3361 101.991C15.9119 100.673 16.406 98.5031 16.8079 96.4929L17.997 90.5469L15.5076 92.2547C13.7173 93.4828 11.8868 94.7504 10.6473 96.5293C9.40785 98.3081 8.86711 100.737 9.86269 102.662" fill="#E6E6E6"/>
<path d="M10.2214 110.394C9.90806 108.12 9.58569 105.816 9.806 103.517C10.0012 101.476 10.6264 99.482 11.8991 97.8466C12.5746 96.9804 13.3967 96.2382 14.3282 95.6534C14.571 95.5007 14.7946 95.8842 14.5528 96.0363C12.941 97.0512 11.6942 98.5498 10.9924 100.316C10.2172 102.28 10.0928 104.422 10.2263 106.508C10.307 107.77 10.4785 109.024 10.6507 110.276C10.6643 110.332 10.6558 110.392 10.627 110.443C10.5981 110.493 10.551 110.531 10.4952 110.548C10.4383 110.564 10.3777 110.556 10.3265 110.527C10.2752 110.498 10.2375 110.45 10.2215 110.394L10.2214 110.394Z" fill="#F2F2F2"/>
<path d="M12.4766 106.744C12.8003 107.235 13.2452 107.634 13.7687 107.903C14.2921 108.172 14.8763 108.303 15.465 108.282C16.9781 108.21 18.2391 107.158 19.3742 106.159L22.7321 103.205L20.5098 103.099C18.9116 103.023 17.2722 102.952 15.7499 103.443C14.2277 103.935 12.8239 105.116 12.5455 106.686" fill="#E6E6E6"/>
<path d="M9.33591 111.702C10.8444 109.042 12.5939 106.087 15.7202 105.142C16.5894 104.881 17.5008 104.787 18.4054 104.866C18.6905 104.891 18.6193 105.329 18.3348 105.304C16.8185 105.179 15.3051 105.578 14.0495 106.434C12.8412 107.253 11.9003 108.392 11.1041 109.6C10.6163 110.341 10.1794 111.112 9.74255 111.882C9.60294 112.129 9.19468 111.951 9.33591 111.702Z" fill="#F2F2F2"/>
<path d="M130.033 78.8735H46.8709C46.6146 78.8732 46.369 78.7716 46.1878 78.5911C46.0066 78.4105 45.9046 78.1658 45.9043 77.9105V0.963045C45.9046 0.707732 46.0066 0.462971 46.1878 0.282438C46.369 0.101905 46.6146 0.000333758 46.8709 0H130.033C130.29 0.000333758 130.535 0.101905 130.716 0.282438C130.898 0.462971 131 0.707732 131 0.963045V77.9103C131 78.1656 130.898 78.4104 130.716 78.5909C130.535 78.7715 130.29 78.8732 130.033 78.8735Z" fill="white"/>
<path d="M130.033 78.8735H46.8709C46.6146 78.8732 46.369 78.7716 46.1878 78.5911C46.0066 78.4105 45.9046 78.1658 45.9043 77.9105V0.963045C45.9046 0.707732 46.0066 0.462971 46.1878 0.282438C46.369 0.101905 46.6146 0.000333758 46.8709 0H130.033C130.29 0.000333758 130.535 0.101905 130.716 0.282438C130.898 0.462971 131 0.707732 131 0.963045V77.9103C131 78.1656 130.898 78.4104 130.716 78.5909C130.535 78.7715 130.29 78.8732 130.033 78.8735ZM46.8709 0.384459C46.7173 0.384791 46.5701 0.445724 46.4615 0.553921C46.3529 0.662117 46.2918 0.808769 46.2914 0.961782V77.9103C46.2918 78.0633 46.3529 78.2099 46.4615 78.3181C46.5701 78.4263 46.7173 78.4873 46.8709 78.4876H130.033C130.187 78.4873 130.334 78.4264 130.443 78.3182C130.551 78.21 130.612 78.0633 130.613 77.9103V0.963045C130.612 0.810032 130.551 0.663381 130.443 0.555184C130.334 0.446988 130.187 0.386055 130.033 0.385723L46.8709 0.384459Z" fill="#CACACA"/>
<path d="M86.1668 19.9951C85.993 19.9954 85.8263 20.0644 85.7035 20.187C85.5807 20.3096 85.5117 20.4757 85.5117 20.6489C85.5117 20.8221 85.5807 20.9883 85.7035 21.1109C85.8263 21.2334 85.993 21.3024 86.1668 21.3027H122.175C122.349 21.3024 122.515 21.2334 122.638 21.1109C122.761 20.9883 122.83 20.8221 122.83 20.6489C122.83 20.4757 122.761 20.3096 122.638 20.187C122.515 20.0644 122.349 19.9954 122.175 19.9951H86.1668Z" fill="#E4E4E4"/>
<path d="M86.1668 23.918C85.9931 23.9184 85.8266 23.9875 85.7039 24.11C85.5811 24.2326 85.5122 24.3987 85.5122 24.5718C85.5122 24.7449 85.5811 24.911 85.7039 25.0335C85.8266 25.1561 85.9931 25.2252 86.1668 25.2256H104.55C104.723 25.2252 104.89 25.1561 105.013 25.0335C105.135 24.911 105.204 24.7449 105.204 24.5718C105.204 24.3987 105.135 24.2326 105.013 24.11C104.89 23.9875 104.723 23.9184 104.55 23.918H86.1668Z" fill="#E4E4E4"/>
<path d="M54.6947 45.0166C54.5209 45.017 54.3544 45.0861 54.2317 45.2087C54.109 45.3312 54.04 45.4973 54.04 45.6704C54.04 45.8435 54.109 46.0096 54.2317 46.1322C54.3544 46.2547 54.5209 46.3238 54.6947 46.3242H122.21C122.384 46.3238 122.55 46.2547 122.673 46.1322C122.796 46.0096 122.865 45.8435 122.865 45.6704C122.865 45.4973 122.796 45.3312 122.673 45.2087C122.55 45.0861 122.384 45.017 122.21 45.0166H54.6947Z" fill="#E4E4E4"/>
<path d="M54.6947 48.9395C54.5209 48.9399 54.3544 49.0089 54.2317 49.1315C54.109 49.2541 54.04 49.4201 54.04 49.5933C54.04 49.7664 54.109 49.9325 54.2317 50.055C54.3544 50.1776 54.5209 50.2467 54.6947 50.2471H104.585C104.759 50.2467 104.925 50.1776 105.048 50.055C105.171 49.9325 105.239 49.7664 105.239 49.5933C105.239 49.4201 105.171 49.2541 105.048 49.1315C104.925 49.0089 104.759 48.9399 104.585 48.9395H54.6947Z" fill="#E4E4E4"/>
<path d="M54.6947 52.7744C54.5209 52.7748 54.3544 52.8439 54.2317 52.9665C54.109 53.089 54.04 53.2551 54.04 53.4282C54.04 53.6014 54.109 53.7674 54.2317 53.89C54.3544 54.0126 54.5209 54.0816 54.6947 54.082H122.21C122.384 54.0816 122.55 54.0126 122.673 53.89C122.796 53.7674 122.865 53.6014 122.865 53.4282C122.865 53.2551 122.796 53.089 122.673 52.9665C122.55 52.8439 122.384 52.7748 122.21 52.7744H54.6947Z" fill="#E4E4E4"/>
<path d="M54.6947 56.6973C54.5209 56.6977 54.3544 56.7668 54.2317 56.8893C54.109 57.0119 54.04 57.178 54.04 57.3511C54.04 57.5242 54.109 57.6903 54.2317 57.8128C54.3544 57.9354 54.5209 58.0045 54.6947 58.0049H104.585C104.759 58.0045 104.925 57.9354 105.048 57.8128C105.171 57.6903 105.239 57.5242 105.239 57.3511C105.239 57.178 105.171 57.0119 105.048 56.8893C104.925 56.7668 104.759 56.6977 104.585 56.6973H54.6947Z" fill="#E4E4E4"/>
<path d="M54.6947 60.6338C54.5209 60.6342 54.3544 60.7033 54.2317 60.8258C54.109 60.9484 54.04 61.1145 54.04 61.2876C54.04 61.4607 54.109 61.6268 54.2317 61.7494C54.3544 61.8719 54.5209 61.941 54.6947 61.9414H122.21C122.384 61.941 122.55 61.8719 122.673 61.7494C122.796 61.6268 122.865 61.4607 122.865 61.2876C122.865 61.1145 122.796 60.9484 122.673 60.8258C122.55 60.7033 122.384 60.6342 122.21 60.6338H54.6947Z" fill="#E4E4E4"/>
<path d="M54.6947 64.5566C54.5209 64.5571 54.3544 64.6261 54.2317 64.7487C54.109 64.8713 54.04 65.0373 54.04 65.2105C54.04 65.3836 54.109 65.5496 54.2317 65.6722C54.3544 65.7948 54.5209 65.8638 54.6947 65.8643H104.585C104.759 65.8638 104.925 65.7948 105.048 65.6722C105.171 65.5496 105.239 65.3836 105.239 65.2105C105.239 65.0373 105.171 64.8713 105.048 64.7487C104.925 64.6261 104.759 64.5571 104.585 64.5566H54.6947Z" fill="#E4E4E4"/>
<path d="M65.3881 32.0039C63.5234 32.0039 61.7006 31.453 60.1502 30.4208C58.5997 29.3886 57.3913 27.9216 56.6777 26.2051C55.9641 24.4887 55.7773 22.6 56.1411 20.7778C56.5049 18.9556 57.4028 17.2818 58.7214 15.9681C60.0399 14.6544 61.7198 13.7598 63.5487 13.3973C65.3776 13.0348 67.2732 13.2209 68.996 13.9318C70.7188 14.6428 72.1912 15.8468 73.2272 17.3916C74.2632 18.9363 74.8161 20.7525 74.8161 22.6103C74.8133 25.1008 73.8191 27.4884 72.0516 29.2494C70.2841 31.0104 67.8877 32.001 65.3881 32.0039Z" fill="#ACACAC"/>
<path d="M36.7692 67.5217C36.7529 67.1788 36.6614 66.8437 36.501 66.5399C36.3407 66.2361 36.1154 65.971 35.8411 65.7633C35.5668 65.5557 35.2501 65.4105 34.9134 65.3379C34.5767 65.2654 34.2281 65.2673 33.8921 65.3435L30.7758 60.9678L27.645 62.2061L32.133 68.3238C32.2989 68.8776 32.6629 69.3515 33.1561 69.6557C33.6492 69.9599 34.2373 70.0733 34.8087 69.9745C35.3802 69.8756 35.8954 69.5713 36.2568 69.1192C36.6181 68.6672 36.8004 68.0987 36.7692 67.5217Z" fill="#A0616A"/>
<path d="M30.6952 67.1977L21.2656 55.0095L24.7988 43.946C25.0577 41.1645 26.8047 40.3878 26.879 40.3561L26.9924 40.3076L30.0669 48.4765L27.8095 54.4742L33.3503 63.7589L30.6952 67.1977Z" fill="#3F3D56"/>
<path d="M63.4426 29.6248C63.1008 29.6675 62.7725 29.7844 62.4809 29.9671C62.1893 30.1499 61.9414 30.3942 61.7548 30.6827C61.5682 30.9713 61.4474 31.2971 61.4008 31.6372C61.3543 31.9773 61.3831 32.3234 61.4854 32.6512L57.3477 36.0851L58.8289 39.0993L64.6037 34.1682C65.145 33.9606 65.5911 33.5623 65.8574 33.0489C66.1237 32.5355 66.1918 31.9427 66.0486 31.3826C65.9055 30.8226 65.5612 30.3343 65.0808 30.0103C64.6005 29.6864 64.0176 29.5492 63.4426 29.6248Z" fill="#A0616A"/>
<path d="M63.5877 35.684L52.1204 45.9933L40.7763 43.339C37.9729 43.2969 37.0606 41.6216 37.0231 41.5502L36.9658 41.4413L44.9025 37.7556L51.0788 39.5343L59.9413 33.3125L63.5877 35.684Z" fill="#3F3D56"/>
<path d="M43.7247 108.972L46.8058 108.972L48.2713 97.1318L43.7241 97.132L43.7247 108.972Z" fill="#A0616A"/>
<path d="M52.748 111.822L43.0648 111.823L43.0646 108.095L50.0312 108.095C50.7517 108.095 51.4427 108.38 51.9522 108.888C52.4617 109.395 52.748 110.084 52.748 110.801L52.748 111.822Z" fill="#2F2E41"/>
<path d="M31.4105 108.972L34.4916 108.972L35.9574 97.1318L31.4102 97.132L31.4105 108.972Z" fill="#A0616A"/>
<path d="M40.4336 111.822L30.7504 111.823L30.7502 108.095L37.7168 108.095C38.0735 108.095 38.4268 108.165 38.7564 108.301C39.086 108.437 39.3855 108.636 39.6378 108.888C39.89 109.139 40.0902 109.437 40.2267 109.766C40.3632 110.094 40.4335 110.446 40.4335 110.801L40.4336 111.822Z" fill="#2F2E41"/>
<path d="M30.3145 65.7529L30.5657 83.2803L30.8172 106.316L36.3459 105.816L39.1105 74.016L42.6289 105.816H48.3367L48.9116 73.7656L46.9011 66.7546L30.3145 65.7529Z" fill="#2F2E41"/>
<path d="M41.136 68.1068C35.1202 68.1073 29.5828 65.3945 29.508 65.3573L29.4459 65.3263L28.9411 53.2554C28.7947 52.8288 25.9121 44.4119 25.4239 41.7366C24.9292 39.0261 32.0982 36.6473 32.9688 36.3691L33.1664 34.1887L41.2002 33.3262L42.2184 36.1162L45.1006 37.1929C45.4274 37.3151 45.6978 37.5524 45.8606 37.86C46.0235 38.1675 46.0674 38.5239 45.9842 38.8616L44.3823 45.352L48.2946 66.8253L47.4523 66.8616C45.4334 67.7701 43.2544 68.1067 41.136 68.1068Z" fill="#3F3D56"/>
<path d="M40.272 31.2391C43.0752 29.7124 44.1053 26.2107 42.573 23.4178C41.0407 20.625 37.5261 19.5986 34.723 21.1253C31.9198 22.652 30.8897 26.1537 32.422 28.9466C33.9543 31.7394 37.4689 32.7658 40.272 31.2391Z" fill="#A0616A"/>
<path d="M32.813 31.761C33.9154 32.931 35.9626 32.3029 36.1063 30.7046C36.1175 30.5805 36.1167 30.4557 36.1038 30.3317C36.0297 29.6237 35.6191 28.981 35.7175 28.2334C35.7397 28.0474 35.8093 27.8701 35.9196 27.7183C36.798 26.5463 38.8601 28.2425 39.6891 27.1815C40.1975 26.531 39.5999 25.5067 39.99 24.7796C40.5049 23.8199 42.0299 24.2933 42.9863 23.7677C44.0503 23.183 43.9867 21.5564 43.2863 20.567C42.4321 19.3604 40.9343 18.7166 39.4553 18.6238C37.9763 18.531 36.5074 18.9294 35.1266 19.4655C33.5577 20.0747 32.0019 20.9166 31.0364 22.2911C29.8623 23.9626 29.7493 26.2098 30.3365 28.1643C30.6937 29.3532 31.9128 30.8057 32.813 31.761Z" fill="#2F2E41"/>
<path d="M73.5006 111.97H0.19241C0.14138 111.97 0.0924363 111.95 0.0563525 111.914C0.0202686 111.878 0 111.829 0 111.779C0 111.728 0.0202686 111.679 0.0563525 111.643C0.0924363 111.607 0.14138 111.587 0.19241 111.587H73.5006C73.5516 111.587 73.6005 111.607 73.6366 111.643C73.6727 111.679 73.693 111.728 73.693 111.779C73.693 111.829 73.6727 111.878 73.6366 111.914C73.6005 111.95 73.5516 111.97 73.5006 111.97Z" fill="#CACACA"/>
<path d="M64.8436 26.1586C64.6736 26.1588 64.5099 26.0947 64.3854 25.9792L61.2766 23.1022C61.146 22.9811 61.069 22.8132 61.0625 22.6355C61.056 22.4578 61.1205 22.2848 61.242 22.1545C61.3635 22.0242 61.5319 21.9473 61.7102 21.9406C61.8886 21.934 62.0623 21.9981 62.1932 22.119L64.8265 24.5559L70.0363 19.3653C70.0987 19.3026 70.173 19.2528 70.2548 19.2188C70.3366 19.1848 70.4244 19.1672 70.513 19.167C70.6017 19.1668 70.6895 19.1841 70.7714 19.2178C70.8534 19.2516 70.9278 19.3011 70.9905 19.3636C71.0532 19.426 71.1029 19.5002 71.1367 19.5819C71.1705 19.6635 71.1879 19.751 71.1877 19.8393C71.1875 19.9277 71.1698 20.0151 71.1356 20.0966C71.1015 20.1781 71.0515 20.2521 70.9885 20.3143L65.32 25.9621C65.2575 26.0245 65.1832 26.0739 65.1015 26.1076C65.0197 26.1414 64.9321 26.1587 64.8436 26.1586Z" fill="white"/>
</g>
<defs>
<clipPath id="clip0_226_1257">
<rect width="131" height="112" fill="white"/>
</clipPath>
</defs>
</svg>
