<svg width="134" height="106" viewBox="0 0 134 106" fill="none" xmlns="http://www.w3.org/2000/svg">
<g clip-path="url(#clip0_221_249)">
<path d="M32.1709 57.4719C31.1014 51.7238 32.7852 45.1844 37.465 41.7051C37.1998 48.0585 39.1809 54.3014 43.0578 59.3292C44.56 61.2628 46.4312 63.2563 46.3731 65.7081C46.3369 67.2336 45.5154 68.6548 44.4328 69.7255C43.3501 70.7962 42.0164 71.5681 40.6987 72.328L40.4936 72.6485C36.6308 68.2729 33.2403 63.22 32.1709 57.4719Z" fill="#F0F0F0"/>
<path d="M37.5503 41.7926C35.5841 46.2116 35.0545 51.1405 36.0365 55.8791C36.2299 56.903 36.5828 57.8898 37.0821 58.8034C37.5972 59.6775 38.336 60.3971 39.2217 60.8875C40.0384 61.3614 40.9284 61.7512 41.6162 62.4162C41.9632 62.7619 42.2335 63.1773 42.4095 63.6352C42.5854 64.0932 42.6629 64.5833 42.637 65.0734C42.6041 66.2964 42.1355 67.4346 41.6388 68.5316C41.0873 69.7497 40.4953 71.0061 40.531 72.3755C40.5354 72.5415 40.2787 72.5385 40.2744 72.3728C40.2122 69.9903 41.9274 68.0768 42.3096 65.7906C42.4879 64.7238 42.3472 63.5966 41.6004 62.7697C40.9474 62.0466 40.0299 61.6439 39.1989 61.1712C38.3279 60.7055 37.5836 60.0328 37.0312 59.2116C36.4871 58.3266 36.097 57.355 35.8775 56.3385C35.347 54.058 35.1768 51.7079 35.3733 49.3742C35.5827 46.7096 36.2445 44.1007 37.3301 41.6602C37.3973 41.5092 37.6171 41.6426 37.5503 41.7926Z" fill="white"/>
<path d="M35.6309 54.3716C34.8169 54.4291 34.009 54.1942 33.3515 53.7088C32.694 53.2234 32.2298 52.519 32.0417 51.7216C32.0042 51.5601 32.2523 51.494 32.2899 51.6557C32.4636 52.3986 32.8962 53.0546 33.5093 53.5054C34.1225 53.9562 34.8759 54.172 35.6336 54.1139C35.7982 54.1015 35.7946 54.3593 35.6309 54.3716Z" fill="white"/>
<path d="M38.7761 60.7024C39.8811 59.4475 40.4746 57.8203 40.4381 56.1455C40.4344 55.9796 40.691 55.9825 40.6947 56.1482C40.7294 57.8912 40.1084 59.5832 38.9556 60.8866C38.8457 61.0107 38.6667 60.8259 38.7761 60.7024Z" fill="white"/>
<path d="M35.8833 46.8699C36.2029 46.9135 36.5283 46.8768 36.8302 46.7629C37.1322 46.6491 37.4012 46.4617 37.6132 46.2176C37.7216 46.0921 37.9004 46.2771 37.7928 46.4018C37.5573 46.6703 37.2599 46.8769 36.9266 47.0034C36.5933 47.13 36.2341 47.1726 35.8806 47.1276C35.847 47.1262 35.8151 47.1119 35.7915 47.0877C35.7679 47.0635 35.7544 47.0312 35.7537 46.9974C35.7542 46.9633 35.7681 46.9307 35.7924 46.9069C35.8167 46.883 35.8493 46.8697 35.8833 46.8699Z" fill="white"/>
<path d="M56.6027 46.4592C56.5373 46.5395 56.4718 46.6198 56.407 46.7022C55.5328 47.7863 54.7479 48.9398 54.0598 50.1516C54.0051 50.2444 53.9511 50.3393 53.8991 50.4335C52.2724 53.3706 51.2027 56.5854 50.7445 59.9147C50.5634 61.2396 50.4829 62.5764 50.5038 63.9136C50.5327 65.7604 50.7104 67.7604 50.1467 69.4589C50.0899 69.6367 50.0221 69.8109 49.9438 69.9803L40.8986 72.8745C40.8748 72.8707 40.8515 72.869 40.8275 72.8653L40.4717 72.9974C40.4658 72.9285 40.4612 72.8569 40.4553 72.7881C40.4517 72.7481 40.4502 72.7075 40.4466 72.6676C40.4449 72.6407 40.4432 72.6138 40.4401 72.5897C40.4395 72.5808 40.439 72.5718 40.439 72.565C40.4359 72.5409 40.4356 72.5181 40.4331 72.4961C40.4062 72.0961 40.3813 71.6954 40.3607 71.2934C40.36 71.2913 40.36 71.2913 40.3614 71.2886C40.2061 68.2267 40.3041 65.1249 40.8677 62.1366C40.8846 62.0467 40.9009 61.9548 40.922 61.8636C41.1835 60.518 41.554 59.1962 42.03 57.9112C42.2928 57.2085 42.5909 56.5196 42.9232 55.8471C43.7849 54.1112 44.9132 52.5222 46.2666 51.1384C48.965 48.3802 52.5118 46.5194 56.3123 46.4608C56.4095 46.4594 56.5048 46.4586 56.6027 46.4592Z" fill="#F0F0F0"/>
<path d="M56.6189 46.5811C52.3998 48.9207 49.0219 52.5359 46.9652 56.9131C46.5058 57.8476 46.1959 58.8489 46.0469 59.8802C45.9342 60.8896 46.0926 61.9109 46.5058 62.838C46.8737 63.7101 47.3507 64.5595 47.5011 65.5063C47.571 65.9921 47.5378 66.4873 47.4037 66.9593C47.2696 67.4313 47.0377 67.8695 46.7232 68.2452C45.9637 69.2018 44.9072 69.8272 43.8529 70.4028C42.6823 71.0419 41.4563 71.6871 40.6639 72.8022C40.5679 72.9373 40.3648 72.7798 40.4606 72.6449C41.8393 70.7049 44.356 70.2141 46.0318 68.6198C46.8137 67.8759 47.3772 66.8908 47.2766 65.779C47.1887 64.8068 46.6976 63.9305 46.3174 63.0507C45.9012 62.1522 45.7103 61.1651 45.7615 60.1754C45.8577 59.1398 46.1286 58.1282 46.5628 57.1838C47.5064 55.0422 48.7795 53.0629 50.3354 51.3184C52.1001 49.3175 54.1926 47.6345 56.5225 46.3423C56.6667 46.2624 56.7622 46.5017 56.6189 46.5811Z" fill="white"/>
<path d="M47.545 55.4647C46.8606 55.0184 46.3563 54.3424 46.1224 53.5572C45.8885 52.7721 45.9401 51.9291 46.268 51.1786C46.3348 51.027 46.5726 51.1242 46.5056 51.276C46.199 51.9743 46.151 52.7596 46.3703 53.4903C46.5897 54.2209 47.0618 54.8488 47.7016 55.2605C47.8406 55.3502 47.6831 55.5538 47.545 55.4647Z" fill="white"/>
<path d="M46.2613 62.4203C47.896 62.0865 49.3454 61.1461 50.3203 59.7868C50.4168 59.652 50.62 59.8095 50.5236 59.9441C49.5064 61.3568 47.9962 62.3323 46.2943 62.6759C46.1321 62.7086 46.1 62.4528 46.2613 62.4203Z" fill="white"/>
<path d="M52.2443 49.6271C52.4733 49.8552 52.7551 50.0226 53.0645 50.1143C53.3738 50.2059 53.701 50.219 54.0166 50.1523C54.1783 50.1176 54.2103 50.3734 54.0496 50.4079C53.7005 50.4799 53.3392 50.4651 52.9972 50.3646C52.6552 50.264 52.3429 50.0809 52.0877 49.8313C52.0616 49.8098 52.0447 49.7791 52.0404 49.7455C52.0361 49.712 52.0446 49.678 52.0643 49.6505C52.0852 49.6236 52.1158 49.606 52.1495 49.6017C52.1832 49.5973 52.2173 49.6064 52.2443 49.6271Z" fill="white"/>
<path d="M70.8108 15.0268C70.8411 15.1606 70.8609 15.2965 70.8699 15.4334L81.4751 21.5776L84.0529 20.0873L86.8009 23.7002L82.4928 26.7839C82.1448 27.033 81.7257 27.162 81.2984 27.1515C80.8712 27.1411 80.4588 26.9917 80.1233 26.7259L69.1874 18.0618C68.6939 18.2453 68.1564 18.2735 67.6465 18.1427C67.1366 18.0119 66.6785 17.7284 66.333 17.3297C65.9875 16.9311 65.771 16.4362 65.7124 15.911C65.6538 15.3858 65.7558 14.8551 66.0048 14.3895C66.2539 13.9239 66.6381 13.5455 67.1066 13.3046C67.575 13.0637 68.1053 12.9718 68.627 13.041C69.1488 13.1101 69.6372 13.3372 70.0273 13.6919C70.4173 14.0467 70.6907 14.5123 70.8108 15.0268Z" fill="#FFB6B6"/>
<path d="M81.6223 20.899C81.656 20.7423 81.7229 20.5947 81.8185 20.4663C81.9141 20.3379 82.0362 20.2317 82.1764 20.155L87.0726 17.4759C87.7247 16.9817 88.5452 16.7674 89.3544 16.8799C90.1636 16.9924 90.8953 17.4225 91.3891 18.0761C91.8829 18.7296 92.0985 19.5531 91.9886 20.366C91.8786 21.1789 91.4522 21.9149 90.8028 22.4125L86.8785 26.416C86.7665 26.5302 86.6313 26.6189 86.4821 26.6759C86.3329 26.733 86.1732 26.7571 86.0139 26.7465C85.8546 26.736 85.6995 26.6911 85.559 26.615C85.4185 26.5388 85.296 26.4331 85.1999 26.3051L81.8212 21.8064C81.725 21.6784 81.6575 21.5311 81.6231 21.3745C81.5888 21.2179 81.5885 21.0557 81.6223 20.899Z" fill="#3F3D56"/>
<path d="M90.3696 5.3238C91.0741 3.06912 92.6761 1.0012 94.8916 0.238995C97.1072 -0.523209 100.352 0.637876 102.017 2.30498C105.064 5.35444 105.808 15.8305 103.714 19.141C103.298 19.1189 101.861 19.1025 101.44 19.0866L100.844 17.0913V19.067C97.5544 18.9649 94.13 19.0288 90.7038 19.0949C90.3967 16.751 89.6651 7.57848 90.3696 5.3238Z" fill="#2F2E41"/>
<path d="M89.4271 99.9639H86.4271L85 88.3428L89.4278 88.343L89.4271 99.9639Z" fill="#FFB6B6"/>
<path d="M115.69 98.09L112.787 98.8498L108.487 87.966L112.771 86.8447L115.69 98.09Z" fill="#FFB6B6"/>
<path d="M99.1568 28.5882L99.8367 30.3631L99.7007 32.138L86.3967 36.7656L87.0569 28.9978L88.5522 27.2227L99.1568 28.5882Z" fill="#FFB6B6"/>
<path d="M94.9504 12.6161C97.5747 12.6161 99.7021 10.4796 99.7021 7.84416C99.7021 5.20872 97.5747 3.07227 94.9504 3.07227C92.3261 3.07227 90.1987 5.20872 90.1987 7.84416C90.1987 10.4796 92.3261 12.6161 94.9504 12.6161Z" fill="#FFB7B7"/>
<path d="M91.6854 1.62992C92.5985 1.07095 93.6442 0.768583 94.7134 0.754427C95.7826 0.740272 96.836 1.01485 97.7633 1.54945C98.6907 2.08406 99.458 2.85905 99.9851 3.7934C100.512 4.72775 100.779 5.78714 100.759 6.86079C98.1691 7.52562 95.4089 7.8037 92.4839 7.02091L91.8153 5.37753L91.4211 7.02213C90.5262 7.65428 89.6625 7.65315 88.83 7.01871C88.7947 5.94809 89.0398 4.88691 89.5409 3.94126C90.042 2.99561 90.7815 2.1986 91.6854 1.62992Z" fill="#2F2E41"/>
<path d="M90.7692 105.685H88.6404L88.2604 103.666L87.2872 105.685H81.6411C81.3705 105.685 81.1069 105.598 80.8889 105.437C80.6709 105.276 80.5099 105.049 80.4293 104.789C80.3488 104.53 80.353 104.251 80.4412 103.994C80.5295 103.737 80.6972 103.516 80.9199 103.361L85.4287 100.234V98.1934L90.1712 98.4776L90.7692 105.685Z" fill="#2F2E41"/>
<path d="M118.688 103.217L116.628 103.756L115.754 101.899L115.319 104.099L109.855 105.529C109.593 105.598 109.317 105.581 109.065 105.48C108.814 105.379 108.601 105.201 108.458 104.97C108.315 104.739 108.249 104.469 108.27 104.198C108.291 103.927 108.397 103.669 108.574 103.464L112.151 99.2953L111.639 97.3208L116.299 96.3945L118.688 103.217Z" fill="#2F2E41"/>
<path d="M115.322 90.7815L106.528 72.6305L103.767 50.5384C105.67 46.9885 102.136 39.7652 102.136 39.7652V36.7324L88.4425 39.3267C85.6419 46.998 84.2837 55.1248 84.4372 63.294L84.989 92.6606H84.8159C84.5287 92.6606 84.2532 92.7752 84.0501 92.9791C83.847 93.1831 83.7329 93.4597 83.7329 93.7481C83.7329 94.0366 83.847 94.3132 84.0501 94.5172C84.2532 94.7211 84.5287 94.8357 84.8159 94.8357H90.2307C90.5179 94.8357 90.7933 94.7211 90.9964 94.5172C91.1995 94.3132 91.3136 94.0366 91.3136 93.7481C91.3136 93.4597 91.1995 93.1831 90.9964 92.9791C90.7933 92.7752 90.5179 92.6606 90.2307 92.6606H90.0911L93.9782 55.3011L98.498 73.7371L109.421 90.7117C109.142 90.7335 108.883 90.8629 108.697 91.0727C108.511 91.2825 108.414 91.5564 108.425 91.8368C108.436 92.1172 108.555 92.3824 108.757 92.5765C108.959 92.7707 109.228 92.8788 109.507 92.8781H114.922C115.174 92.8783 115.418 92.7904 115.612 92.6293C115.806 92.4682 115.939 92.2442 115.986 91.9958C116.033 91.7474 115.993 91.4901 115.871 91.2685C115.75 91.0468 115.556 90.8746 115.322 90.7815Z" fill="#2F2E41"/>
<path d="M103.374 41.6245C103.329 41.447 103.229 41.2884 103.088 41.1714C102.948 41.0544 102.775 40.985 102.593 40.9731C102.412 38.9008 101.22 25.6104 101.174 25.2205L101.173 25.204L100.827 17.7959C100.815 17.5269 100.704 17.2719 100.516 17.0797C100.328 16.8875 100.076 16.7715 99.8087 16.754L97.9848 16.6342C97.9598 16.6334 97.9361 16.6228 97.9187 16.6047C97.9013 16.5867 97.8915 16.5625 97.8915 16.5374C97.8915 16.3351 97.8519 16.1348 97.7748 15.9479C97.6977 15.7611 97.5847 15.5913 97.4423 15.4482C97.2999 15.3052 97.1308 15.1917 96.9447 15.1143C96.7586 15.0369 96.5592 14.9971 96.3578 14.9971H90.9579C90.6081 14.9972 90.2704 15.1255 90.0082 15.358C89.746 15.5904 89.5772 15.911 89.5337 16.2595C89.5313 16.2835 89.5199 16.3057 89.5019 16.3217C89.484 16.3376 89.4606 16.3462 89.4366 16.3456L89.436 16.3456C88.8224 16.3329 88.2246 16.5416 87.7511 16.9336C87.2776 17.3257 86.9597 17.8753 86.8552 18.4826C86.117 22.7961 84.6375 32.5861 85.369 38.0289C85.6236 39.9235 85.5079 42.7732 85.4116 44.3585C85.402 44.5117 85.4226 44.6653 85.4723 44.8104C85.5219 44.9556 85.5996 45.0895 85.7009 45.2045C85.4855 45.2669 85.3027 45.4107 85.1909 45.6058C85.0791 45.8009 85.0471 46.0319 85.1017 46.2502C85.1578 46.474 85.3002 46.6662 85.4975 46.7845C85.6948 46.9028 85.9307 46.9376 86.1535 46.8812L102.745 42.6808C102.968 42.6244 103.159 42.4815 103.277 42.2834C103.395 42.0853 103.43 41.8483 103.374 41.6245Z" fill="#3F3D56"/>
<path d="M75.9519 72.7696C75.9488 72.2832 75.7743 71.8135 75.4593 71.444C75.1443 71.0744 74.7091 70.8288 74.231 70.7508L44.8147 65.8997C44.5326 65.8528 44.2439 65.8657 43.9671 65.9375L37.0732 67.7277L33.1177 68.756L25.818 70.6511C25.3773 70.766 24.9871 71.0245 24.7085 71.3862C24.4299 71.7478 24.2787 72.192 24.2786 72.6493V103.605C24.2808 104.077 24.4431 104.534 24.7389 104.9C25.0346 105.267 25.4461 105.522 25.9053 105.622L55.8679 105.281C56.0085 105.311 56.1521 105.326 56.2959 105.326C56.5056 105.326 56.7141 105.294 56.9141 105.231L74.7156 105.676C75.1357 105.544 75.5024 105.28 75.7612 104.923C76.02 104.565 76.1571 104.133 76.1522 103.692L75.9519 72.7696Z" fill="white"/>
<path d="M75.9519 72.7696C75.9488 72.2832 75.7743 71.8135 75.4593 71.444C75.1443 71.0744 74.7091 70.8288 74.231 70.7508L44.8147 65.8997C44.5326 65.8528 44.2439 65.8657 43.9671 65.9375L37.0732 67.7277L33.1177 68.756L25.818 70.6511C25.3773 70.766 24.9871 71.0245 24.7085 71.3862C24.4299 71.7478 24.2787 72.192 24.2786 72.6493V103.605C24.2808 104.077 24.4431 104.534 24.7389 104.9C25.0346 105.267 25.4461 105.522 25.9053 105.622L55.8679 105.281C56.0085 105.311 56.1521 105.326 56.2959 105.326C56.5056 105.326 56.7141 105.294 56.9141 105.231L74.7156 105.676C75.1357 105.544 75.5024 105.28 75.7612 104.923C76.02 104.565 76.1571 104.133 76.1522 103.692L75.9519 72.7696ZM74.5615 105.184L56.76 105.609C56.506 105.689 56.2361 105.702 55.9757 105.647L26.0115 105.118C25.6672 105.043 25.3588 104.852 25.1371 104.576C24.9155 104.301 24.7938 103.959 24.7923 103.605V72.6493C24.7925 72.3324 24.8895 72.0232 25.0701 71.7633C25.2508 71.5035 25.5064 71.3056 25.8026 71.1962C25.8496 71.1784 25.8976 71.1635 25.9464 71.1515L33.669 69.1464L38.2359 67.9598L44.0955 66.438C44.2212 66.4043 44.3507 66.3875 44.4808 66.3881C44.5645 66.388 44.6481 66.3949 44.7308 66.4087L74.1471 71.2598C74.3838 71.2988 74.6082 71.3926 74.8026 71.5338C74.997 71.675 75.156 71.8596 75.267 72.0732C75.3781 72.2897 75.4368 72.5295 75.4382 72.7731L75.6386 103.695C75.6423 104.026 75.5395 104.35 75.3455 104.619C75.1515 104.887 74.8766 105.085 74.5615 105.184Z" fill="#CCCCCC"/>
<path d="M75.2669 72.0726C75.2469 72.0858 75.225 72.0957 75.2019 72.1018L66.5494 74.4509L63.8559 75.1817L56.1949 77.2607C56.173 77.2661 56.1506 77.269 56.1281 77.2693C56.1126 77.2691 56.0972 77.2679 56.0819 77.2659L25.1912 71.61L25.0885 71.5911C25.0216 71.5785 24.9623 71.5398 24.9238 71.4834C24.8852 71.4271 24.8704 71.3577 24.8826 71.2904C24.8948 71.2231 24.9331 71.1635 24.989 71.1244C25.0449 71.0854 25.1139 71.0702 25.1809 71.0821L25.8025 71.1956L56.1178 76.7465L62.7206 74.9547L66.4141 73.9521L74.933 71.6393L75.0683 71.6031C75.1268 71.5877 75.1888 71.5933 75.2436 71.6191C75.2984 71.6448 75.3424 71.6891 75.368 71.7441C75.3746 71.7573 75.3798 71.7711 75.3834 71.7854C75.3975 71.8395 75.3938 71.8967 75.3728 71.9485C75.3518 72.0003 75.3146 72.0438 75.2669 72.0726Z" fill="#CCCCCC"/>
<path d="M56.3851 105.386C56.2443 105.386 56.1295 105.272 56.1282 106L55.8713 77.8843C55.87 76.8718 55.9841 76.7552 56.1259 76.7539H56.1282C56.269 76.7539 56.3837 76.8678 56.3851 77.8796L56.6419 105.996C56.6432 105.268 56.5292 105.384 56.3874 105.386H56.3851Z" fill="#CCCCCC"/>
<path d="M66.6223 105.712L63.8559 105.741L62.7206 74.9552L33.753 69.1669C33.7246 69.1618 33.6966 69.1549 33.6691 69.1462C33.4465 69.0826 33.2521 68.945 33.1177 68.7559L37.0732 67.7275L38.2359 67.9597L65.7224 73.4505C65.8669 73.4791 66.0036 73.5389 66.123 73.6255C66.2424 73.7122 66.3417 73.8238 66.4142 73.9526C66.4998 74.1022 66.6205 105.533 66.6223 105.712Z" fill="#CCCCCC"/>
<path d="M88.7802 16.42C88.7779 16.0534 88.6464 15.6995 88.4089 15.421C88.1715 15.1424 87.8436 14.9574 87.4832 14.8985L65.3135 11.2425C65.101 11.2072 64.8834 11.2169 64.6747 11.271L59.4791 12.6202L56.4981 13.3952L50.9966 14.8234C50.6645 14.91 50.3704 15.1048 50.1604 15.3774C49.9505 15.6499 49.8365 15.9847 49.8364 16.3293V34.5771C49.8381 34.9328 49.9605 35.2772 50.1834 35.5536C50.4062 35.83 50.7163 36.0218 51.0624 36.0973L73.6438 40.9224C73.7498 40.9452 73.858 40.9565 73.9664 40.9561C74.1244 40.9564 74.2815 40.9323 74.4323 40.8848L87.8485 36.63C88.1651 36.5308 88.4414 36.3317 88.6365 36.0623C88.8315 35.7928 88.9349 35.4675 88.9312 35.1344L88.7802 16.42Z" fill="white"/>
<path d="M65.0625 12.582C65.0463 12.582 65.0302 12.5841 65.0145 12.5882L51.3363 16.1406C51.2948 16.1514 51.2581 16.1757 51.2319 16.2097C51.2056 16.2437 51.1914 16.2855 51.1914 16.3286V34.5761C51.1916 34.6205 51.2068 34.6635 51.2347 34.6981C51.2625 34.7326 51.3012 34.7566 51.3445 34.766L73.9258 39.591C73.9586 39.5979 73.9925 39.5962 74.0244 39.5862L87.4408 35.3315C87.4803 35.3191 87.5148 35.2943 87.5391 35.2606C87.5635 35.2269 87.5763 35.1863 87.5758 35.1447L87.4254 16.4304C87.4251 16.3847 87.4086 16.3405 87.379 16.3057C87.3493 16.2709 87.3084 16.2478 87.2634 16.2405L65.0937 12.5846C65.0834 12.5829 65.0729 12.5821 65.0625 12.582Z" fill="#ACACAC"/>
<path d="M88.7802 16.42C88.7779 16.0534 88.6464 15.6995 88.4089 15.421C88.1715 15.1424 87.8436 14.9574 87.4832 14.8985L65.3135 11.2425C65.101 11.2072 64.8834 11.2169 64.6747 11.271L59.4791 12.6202L56.4981 13.3952L50.9966 14.8234C50.6645 14.91 50.3704 15.1048 50.1604 15.3774C49.9505 15.6499 49.8365 15.9847 49.8364 16.3293V34.5771C49.8381 34.9328 49.9605 35.2772 50.1834 35.5536C50.4062 35.83 50.7163 36.0218 51.0624 36.0973L73.6438 40.9224C73.7498 40.9452 73.858 40.9565 73.9664 40.9561C74.1244 40.9564 74.2815 40.9323 74.4323 40.8848L87.8485 36.63C88.1651 36.5308 88.4414 36.3317 88.6365 36.0623C88.8315 35.7928 88.9349 35.4675 88.9312 35.1344L88.7802 16.42ZM87.7323 36.2593L74.3161 40.5141C74.1248 40.574 73.9213 40.5838 73.7251 40.5426L51.1424 35.7176C50.8829 35.6608 50.6505 35.5168 50.4835 35.3095C50.3164 35.1021 50.2247 34.8438 50.2236 34.5771V16.3293C50.2237 16.0905 50.2968 15.8575 50.433 15.6617C50.5691 15.4658 50.7618 15.3166 50.985 15.2342C51.0204 15.2208 51.0566 15.2096 51.0934 15.2005L56.9136 13.6894L60.3554 12.7951L64.7715 11.6482C64.8662 11.6228 64.9639 11.6101 65.0619 11.6106C65.125 11.6106 65.188 11.6158 65.2503 11.6261L87.42 15.2822C87.5984 15.3116 87.7675 15.3823 87.914 15.4887C88.0605 15.5951 88.1803 15.7342 88.264 15.8952C88.3477 16.0584 88.392 16.2391 88.3931 16.4227L88.544 35.137C88.5468 35.3868 88.4694 35.6309 88.3232 35.8331C88.1769 36.0353 87.9698 36.1847 87.7323 36.2593Z" fill="#3F3D56"/>
<path d="M88.264 15.895C88.2489 15.905 88.2323 15.9124 88.2149 15.9171L81.694 17.6874L79.664 18.2382L73.8902 19.8051C73.8738 19.8091 73.8569 19.8113 73.8399 19.8116C73.8283 19.8113 73.8166 19.8105 73.8051 19.809L50.5242 15.5464L50.4468 15.5321C50.3963 15.5227 50.3517 15.4935 50.3225 15.451C50.2934 15.4085 50.2823 15.3562 50.2915 15.3055C50.3007 15.2548 50.3295 15.2098 50.3717 15.1804C50.4139 15.1509 50.4659 15.1395 50.5165 15.1485L50.9849 15.2341L73.8322 19.4176L78.8084 18.0671L81.592 17.3115L88.0123 15.5684L88.1143 15.5412C88.1583 15.5295 88.2051 15.5338 88.2464 15.5532C88.2877 15.5726 88.3208 15.606 88.3401 15.6475C88.3451 15.6574 88.349 15.6678 88.3517 15.6786C88.3623 15.7193 88.3596 15.7625 88.3437 15.8015C88.3279 15.8405 88.2999 15.8733 88.264 15.895Z" fill="#3F3D56"/>
<path d="M74.0334 41.0014C73.9824 41.0014 73.9334 40.9811 73.8971 40.9451C73.8609 40.909 73.8403 40.86 73.8398 40.8087L73.6462 19.619C73.6458 19.5675 73.6657 19.5178 73.7017 19.4811C73.7377 19.4443 73.7867 19.4233 73.8381 19.4229H73.8398C73.8909 19.4229 73.9398 19.4431 73.9761 19.4792C74.0123 19.5152 74.0329 19.5642 74.0334 19.6155L74.227 40.8052C74.2274 40.8567 74.2075 40.9064 74.1715 40.9432C74.1355 40.9799 74.0865 41.0009 74.0352 41.0014H74.0334Z" fill="#3F3D56"/>
<path d="M81.694 38.4236L79.664 38.9744L78.8084 18.0672L56.9769 13.7049C56.9555 13.7011 56.9343 13.6959 56.9136 13.6893C56.7459 13.6414 56.5994 13.5376 56.498 13.3951L59.4791 12.6201L60.3554 12.7951L81.0707 16.9332C81.1796 16.9548 81.2826 16.9998 81.3726 17.0652C81.4626 17.1305 81.5375 17.2146 81.5921 17.3117C81.6566 17.4244 81.6927 38.2888 81.694 38.4236Z" fill="#3F3D56"/>
<path d="M80.7845 26.5031C80.8883 26.5923 80.985 26.6896 81.0736 26.794L93.2344 25.3677L94.4171 22.627L98.7691 23.8788L97.1449 28.9352C97.0137 29.3436 96.7541 29.6983 96.405 29.946C96.056 30.1937 95.6364 30.321 95.2091 30.3088L81.2855 29.9113C80.9986 30.3544 80.5841 30.6991 80.0972 30.8998C79.6104 31.1005 79.0743 31.1475 78.5601 31.0347C78.046 30.9219 77.5782 30.6546 77.2191 30.2683C76.8599 29.8821 76.6264 29.3951 76.5495 28.8723C76.4727 28.3495 76.5561 27.8155 76.7888 27.3415C77.0215 26.8674 77.3924 26.4758 77.8521 26.2186C78.3118 25.9614 78.8387 25.8509 79.3625 25.9017C79.8863 25.9525 80.3823 26.1623 80.7845 26.5031Z" fill="#FFB6B6"/>
<path d="M92.9494 24.7352C92.8832 24.5893 92.8492 24.4308 92.8496 24.2704C92.85 24.1101 92.8849 23.9518 92.9518 23.8062L95.2883 18.722C95.5179 17.9347 96.0489 17.271 96.765 16.8763C97.4811 16.4816 98.3238 16.3883 99.1084 16.6167C99.8929 16.845 100.555 17.3766 100.95 18.0946C101.345 18.8127 101.44 19.6588 101.215 20.4473L100.446 26.0116C100.424 26.1704 100.368 26.3226 100.282 26.4578C100.196 26.593 100.082 26.708 99.9482 26.7951C99.8141 26.8821 99.663 26.9391 99.505 26.9622C99.347 26.9852 99.1859 26.9738 99.0327 26.9287L93.6482 25.3441C93.495 25.2991 93.3532 25.2214 93.2326 25.1163C93.112 25.0112 93.0154 24.8812 92.9494 24.7352Z" fill="#3F3D56"/>
<path d="M133.742 105.938H0.257876C0.189608 105.938 0.124202 105.91 0.0759989 105.862C0.027796 105.813 0.000732422 105.747 0.000732422 105.679C0.000732422 105.61 0.027796 105.545 0.0759989 105.496C0.124202 105.447 0.189608 105.42 0.257876 105.42H133.742C133.811 105.42 133.876 105.447 133.924 105.496C133.973 105.544 134 105.61 134 105.679C134 105.748 133.973 105.813 133.924 105.862C133.876 105.911 133.811 105.938 133.742 105.938Z" fill="#CACACA"/>
<path d="M26.0154 78.4186C30.2991 78.4186 33.7718 74.9312 33.7718 70.6292C33.7718 66.3273 30.2991 62.8398 26.0154 62.8398C21.7317 62.8398 18.259 66.3273 18.259 70.6292C18.259 74.9312 21.7317 78.4186 26.0154 78.4186Z" fill="#ACACAC"/>
<path d="M24.9573 74.6837C24.8233 74.6837 24.6912 74.6523 24.5714 74.5922C24.4516 74.532 24.3475 74.4446 24.2671 74.337L22.1511 71.5035C22.0138 71.3197 21.9548 71.0886 21.9872 70.8611C22.0196 70.6337 22.1406 70.4284 22.3236 70.2905C22.5067 70.1527 22.7368 70.0935 22.9633 70.126C23.1899 70.1585 23.3942 70.28 23.5315 70.4639L24.9159 72.3174L28.4716 66.9613C28.5342 66.8663 28.615 66.7846 28.7092 66.7209C28.8034 66.6572 28.9091 66.6129 29.0204 66.5903C29.1317 66.5678 29.2463 66.5675 29.3577 66.5896C29.4691 66.6116 29.5751 66.6555 29.6695 66.7188C29.764 66.782 29.8451 66.8634 29.9082 66.9581C29.9713 67.0529 30.0152 67.1593 30.0373 67.2711C30.0594 67.383 30.0592 67.4981 30.037 67.6099C30.0147 67.7217 29.9706 67.8279 29.9073 67.9226L25.6752 74.2978C25.5987 74.4131 25.4957 74.5083 25.375 74.5754C25.2542 74.6425 25.1192 74.6795 24.9813 74.6834C24.9733 74.6835 24.9653 74.6837 24.9573 74.6837Z" fill="white"/>
<path d="M59.0417 29.2553C59.0176 29.2552 58.9936 29.2525 58.97 29.2472L52.2557 27.7246C52.1717 27.7055 52.0988 27.6536 52.0528 27.5805C52.0069 27.5074 51.9917 27.4189 52.0106 27.3346C52.0296 27.2502 52.0811 27.1769 52.1539 27.1307C52.2266 27.0844 52.3147 27.0691 52.3987 27.088L59.113 28.6106C59.191 28.6283 59.2597 28.6742 59.3061 28.7395C59.3524 28.8049 59.3732 28.8852 59.3644 28.9649C59.3556 29.0447 59.3178 29.1184 59.2583 29.172C59.1987 29.2255 59.1217 29.2552 59.0417 29.2553Z" fill="white"/>
<path d="M33.2011 90.5375C33.1775 90.5425 33.1534 90.5447 33.1293 90.5443L26.2468 90.4279C26.1608 90.4263 26.0789 90.3905 26.0191 90.3283C25.9594 90.2661 25.9266 90.1827 25.928 90.0963C25.9295 90.0099 25.965 89.9275 26.0268 89.8674C26.0885 89.8072 26.1716 89.7742 26.2576 89.7754L33.14 89.8918C33.2199 89.8932 33.2965 89.9241 33.3552 89.9786C33.4139 90.0331 33.4505 90.1074 33.458 90.1873C33.4656 90.2672 33.4436 90.3471 33.3962 90.4117C33.3488 90.4763 33.2793 90.5211 33.2011 90.5375Z" fill="#E6E6E6"/>
<path d="M35.5834 94.2348C35.5598 94.2397 35.5357 94.242 35.5116 94.2416L28.6292 94.1252C28.5431 94.1236 28.4612 94.0878 28.4015 94.0256C28.3417 93.9634 28.3089 93.8799 28.3103 93.7935C28.3118 93.7071 28.3473 93.6248 28.4091 93.5647C28.4709 93.5045 28.5539 93.4714 28.6399 93.4727L35.5224 93.5891C35.6023 93.5904 35.6789 93.6213 35.7375 93.6758C35.7962 93.7303 35.8328 93.8046 35.8403 93.8845C35.8479 93.9644 35.8259 94.0443 35.7785 94.1089C35.7311 94.1736 35.6616 94.2184 35.5834 94.2348Z" fill="#E6E6E6"/>
</g>
<defs>
<clipPath id="clip0_221_249">
<rect width="134" height="106" fill="white"/>
</clipPath>
</defs>
</svg>
