<svg width="128" height="83" viewBox="0 0 128 83" fill="none" xmlns="http://www.w3.org/2000/svg">
<g clip-path="url(#clip0_102_2534)">
<path d="M116.749 82.7544L113.094 71.7207C113.094 71.7207 117.115 75.7424 117.115 79.0421L116.393 71.4114C116.393 71.4114 118.455 74.1956 118.249 78.4234C118.043 82.6513 116.749 82.7544 116.749 82.7544Z" fill="#E6E6E6"/>
<path d="M38.2414 72.7078L34.6735 61.9394C34.6735 61.9394 38.598 65.8643 38.598 69.0848L37.8936 61.6375C37.8936 61.6375 39.9061 64.3547 39.7049 68.4809C39.5036 72.6072 38.2414 72.7078 38.2414 72.7078Z" fill="#E6E6E6"/>
<path d="M93.9302 77.677C93.9363 84.7607 79.8883 82.5817 62.6902 82.5966C45.4922 82.6114 31.6566 84.8144 31.6505 77.7308C31.6444 70.6471 45.6873 69.0943 62.8854 69.0795C80.0834 69.0646 93.9241 70.5933 93.9302 77.677Z" fill="#E6E6E6"/>
<path d="M128 82.5925H0V82.9166H128V82.5925Z" fill="#3F3D56"/>
<path d="M81.8773 68.1104H79.6289L78.5588 59.437H81.8773V68.1104Z" fill="#A0616A"/>
<path d="M77.7731 67.468H82.3591V70.1985H75.2926V69.9488C75.2926 69.2908 75.5539 68.6598 76.0191 68.1946C76.4843 67.7294 77.1152 67.468 77.7731 67.468Z" fill="#2F2E41"/>
<path d="M98.4038 80.9119H96.1553L95.0853 72.2385H98.4038V80.9119Z" fill="#A0616A"/>
<path d="M94.2997 80.2695H98.8857V83.0001H91.8192V82.7503C91.8192 82.0923 92.0806 81.4613 92.5457 80.9961C93.0109 80.5309 93.6418 80.2695 94.2997 80.2695Z" fill="#2F2E41"/>
<path d="M108.775 55.1448C108.93 54.9563 109.043 54.7359 109.104 54.4993C109.165 54.2627 109.173 54.0155 109.129 53.7753C109.084 53.535 108.987 53.3075 108.845 53.1088C108.703 52.91 108.519 52.7448 108.306 52.6249L103.084 31.3497L99.7446 32.7865L105.956 53.3577C105.778 53.7288 105.743 54.1522 105.856 54.5476C105.97 54.9431 106.224 55.2832 106.572 55.5035C106.919 55.7238 107.335 55.8089 107.741 55.7428C108.147 55.6767 108.515 55.4639 108.775 55.1448Z" fill="#A0616A"/>
<path d="M104.702 12.1474C104.516 11.9525 104.289 11.8009 104.038 11.7032C103.786 11.6055 103.517 11.5641 103.248 11.5819C102.979 11.5997 102.717 11.6763 102.48 11.8062C102.244 11.9362 102.039 12.1164 101.88 12.3341L93.7976 13.2621L95.0272 16.3801L102.378 15.0042C102.761 15.2472 103.221 15.3411 103.669 15.2681C104.117 15.1952 104.522 14.9603 104.809 14.6082C105.095 14.2561 105.243 13.811 105.223 13.3575C105.203 12.9039 105.018 12.4734 104.702 12.1474Z" fill="#A0616A"/>
<path d="M91.3823 52.9385L94.9093 79.4122L99.2991 78.5083C99.2991 78.5083 98.6536 59.2281 100.848 56.9038C103.043 54.5796 98.0254 50.5078 98.0254 50.5078L91.3823 52.9385Z" fill="#2F2E41"/>
<path d="M92.8405 45.6466L91.2202 48.0773C91.2202 48.0773 78.7443 42.892 78.7443 51.1561C78.7443 59.4202 78.0303 65.0286 77.7721 65.4159C77.5139 65.8033 80.7595 66.8085 82.3088 66.5502C82.3088 66.5502 84.2202 53.2272 84.0911 52.4524C84.0911 52.4524 96.3295 58.4535 98.6535 57.937C100.977 57.4204 101.527 55.592 101.914 54.559C102.301 53.526 101.752 45.3225 101.752 45.3225L94.0054 42.9583L92.8405 45.6466Z" fill="#2F2E41"/>
<path d="M93.0591 31.0529L92.5973 30.4986C92.5973 30.4986 87.4249 18.8593 89.4569 15.7186C91.489 12.5778 100.356 12.1159 100.633 12.3007C100.91 12.4854 99.9712 14.8841 100.618 15.9926C100.618 15.9926 93.7489 17.482 93.287 17.6668C92.8252 17.8515 96.8461 24.679 96.8461 24.679L96.3843 28.8359L93.0591 31.0529Z" fill="#CCCCCC"/>
<path d="M102.111 25.3256C102.111 25.3256 97.3079 25.8798 97.1232 25.8798C96.9384 25.8798 96.8461 24.679 96.8461 24.679L92.5973 30.4986C92.5973 30.4986 90.504 47.3821 91.0582 47.105C91.6124 46.8278 101.834 48.4194 101.926 47.6804C102.019 46.9414 101.834 43.2464 102.111 43.0616C102.388 42.8769 106.914 31.4223 106.914 31.4223C106.914 31.4223 106.452 29.0206 104.882 28.1892C103.312 27.3578 102.111 25.3256 102.111 25.3256Z" fill="#CCCCCC"/>
<path d="M105.436 29.8519L106.914 31.4223C106.914 31.4223 109.11 49.4674 107.909 50.0217C106.708 50.5759 104.344 50.5078 104.344 50.5078L102.019 41.9531L105.436 29.8519Z" fill="#CCCCCC"/>
<path d="M97.4955 24.1827C99.8435 24.1827 101.747 22.2791 101.747 19.9309C101.747 17.5827 99.8435 15.6791 97.4955 15.6791C95.1475 15.6791 93.2441 17.5827 93.2441 19.9309C93.2441 22.2791 95.1475 24.1827 97.4955 24.1827Z" fill="#A0616A"/>
<path d="M96.4978 20.5944C96.4404 19.7122 95.3275 19.6819 94.4435 19.6736C93.5596 19.6652 92.5028 19.6968 92.0026 18.9678C91.672 18.4861 91.7352 17.8173 92.0082 17.3007C92.2813 16.7842 92.7305 16.387 93.1724 16.0048C94.3133 15.0182 95.4891 14.0393 96.8588 13.4078C98.2286 12.7763 99.8337 12.5211 101.254 13.0281C102.999 13.6508 105.358 16.8565 105.562 18.6983C105.766 20.54 105.03 22.4176 103.789 23.7938C102.548 25.1701 99.709 24.6148 97.922 25.1045C99.0084 23.5667 98.2923 20.7726 96.552 20.0545L96.4978 20.5944Z" fill="#2F2E41"/>
<path d="M58.6081 75.5922C64.2446 75.5922 68.8139 71.0224 68.8139 65.3852C68.8139 59.7481 64.2446 55.1782 58.6081 55.1782C52.9715 55.1782 48.4022 59.7481 48.4022 65.3852C48.4022 71.0224 52.9715 75.5922 58.6081 75.5922Z" fill="#ACACAC"/>
<path d="M51.7924 54.4531C50.378 54.4531 48.9938 54.0432 47.8075 53.2729C46.6211 52.5025 45.6835 51.4048 45.108 50.1125L28.9132 13.6379C28.3768 12.4296 28.093 11.1245 28.0795 9.80254C28.0659 8.48061 28.3229 7.16989 28.8344 5.95092C29.346 4.73195 30.1015 3.6305 31.0544 2.71426C32.0072 1.79803 33.1374 1.08637 34.3754 0.623035C35.6134 0.159697 36.9331 -0.0455327 38.2533 0.0199629C39.5735 0.0854586 40.8664 0.420295 42.0525 1.00389C43.2385 1.58748 44.2927 2.40751 45.1503 3.41356C46.0078 4.41961 46.6506 5.59042 47.039 6.85404L58.766 45.001C59.1017 46.0929 59.1767 47.2484 58.985 48.3745C58.7932 49.5007 58.34 50.5661 57.6619 51.4853C56.9837 52.4046 56.0994 53.1519 55.08 53.6673C54.0607 54.1827 52.9346 54.4518 51.7924 54.4531Z" fill="#ACACAC"/>
</g>
<defs>
<clipPath id="clip0_102_2534">
<rect width="128" height="83" fill="white"/>
</clipPath>
</defs>
</svg>
