<svg width="16" height="16" viewBox="0 0 16 16" fill="none" xmlns="http://www.w3.org/2000/svg">
<path d="M9.367 11.533C9.5305 11.6081 9.7147 11.6252 9.88925 11.5816C10.0638 11.538 10.2183 11.4363 10.3273 11.2931L10.6083 10.925C10.7558 10.7284 10.9471 10.5687 11.1669 10.4588C11.3868 10.3489 11.6292 10.2917 11.875 10.2917H14.25C14.6699 10.2917 15.0727 10.4585 15.3696 10.7554C15.6665 11.0523 15.8333 11.4551 15.8333 11.875V14.25C15.8333 14.6699 15.6665 15.0727 15.3696 15.3696C15.0727 15.6665 14.6699 15.8333 14.25 15.8333C10.4707 15.8333 6.84612 14.332 4.17373 11.6596C1.50133 8.98721 0 5.36267 0 1.58333C0 1.16341 0.166815 0.76068 0.463747 0.463747C0.76068 0.166815 1.16341 0 1.58333 0H3.95833C4.37826 0 4.78099 0.166815 5.07792 0.463747C5.37485 0.76068 5.54167 1.16341 5.54167 1.58333V3.95833C5.54167 4.20414 5.48444 4.44657 5.37451 4.66642C5.26458 4.88628 5.10498 5.07752 4.90833 5.225L4.53783 5.50287C4.3925 5.61385 4.29006 5.77171 4.24792 5.94965C4.20578 6.12759 4.22654 6.31463 4.30667 6.479C5.38862 8.67656 7.16809 10.4538 9.367 11.533Z" fill="#25262C"/>
</svg>
