<svg width="17" height="22" viewBox="0 0 17 22" fill="none" xmlns="http://www.w3.org/2000/svg">
<path fill-rule="evenodd" clip-rule="evenodd" d="M7.0448 0.43875L6 0V1.11621C6 3.18116 4.65595 4.71948 3.18056 6.40804C1.67224 8.13669 0 10.1591 0 13.3956C0 17.8716 3.69365 21.5 8.25 21.5C12.8063 21.5 16.5 17.8716 16.5 13.3956C16.5 12.3346 16.4873 10.1745 14.3357 7.53241L13.0711 5.9796L13.0005 7.96537C13.0005 8.25 12.865 8.81157 12.7596 9.06377C12.6515 9.32257 12.5227 9.49727 12.3909 9.59177C12.2875 9.66597 12.1306 9.73107 11.8297 9.66927C11.5723 9.61637 11.4424 9.52327 11.3592 9.42717C11.2646 9.31787 11.1787 9.14377 11.1162 8.85637C11.0533 8.56735 11.0246 8.2159 11.0076 7.78738C11.0014 7.63252 10.9967 7.45801 10.9916 7.27435C10.9839 6.98913 10.9755 6.68179 10.9604 6.39174C10.9086 5.39752 10.769 4.24949 10.2083 3.17443C9.6354 2.0758 8.6564 1.11553 7.0448 0.43875ZM8.9202 12.123C8.3704 11.5307 7.75 10.25 7.75 8.74997C6.789 9.10617 5.28473 10.3072 4.80532 11.1267C4.32287 11.9515 4 12.9111 4 13.6478C4 15.006 4.44426 16.1588 5.22275 16.9799C6.0026 17.8024 7.0802 18.25 8.25 18.25C10.7617 18.25 12.5 15.7927 12.5 13.1646V12.1163L11.4867 12.4844C10.7888 12.7379 10.2663 12.76 9.8785 12.6789C9.4953 12.5988 9.1824 12.4054 8.9202 12.123Z" fill="#ACACAC"/>
</svg>
