<svg width="102" height="102" viewBox="0 0 102 102" fill="none" xmlns="http://www.w3.org/2000/svg">
<g clip-path="url(#clip0_230_1950)">
<path d="M102 51C102 55.3546 96.6646 58.8461 95.5662 62.9654C94.4677 67.0846 97.2923 72.8908 95.1738 76.5C93.0554 80.1092 86.6215 80.6192 83.64 83.64C80.6585 86.6608 80.1877 93.0554 76.5 95.1738C72.8123 97.2923 67.0846 94.4677 62.9654 95.5662C58.8461 96.6646 55.3546 102 51 102C46.6454 102 43.1538 96.6646 39.2308 95.5662C35.3077 94.4677 29.3054 97.2923 25.6962 95.1738C22.0869 93.0554 21.5769 86.6215 18.5562 83.64C15.5354 80.6585 9.14077 80.1877 7.02231 76.5C4.90385 72.8123 7.72846 67.0846 6.63 62.9654C5.53154 58.8461 0 55.3546 0 51C0 46.6454 5.33538 43.1538 6.43385 39.2308C7.53231 35.3077 4.70769 29.3054 6.82615 25.6962C8.94461 22.0869 15.3785 21.3808 18.36 18.36C21.3415 15.3392 21.8123 8.94461 25.5 6.82615C29.1877 4.70769 34.9154 7.53231 39.0346 6.43385C43.1538 5.33538 46.6454 0 51 0C55.3546 0 58.8461 5.33538 62.9654 6.43385C67.0846 7.53231 72.8908 4.70769 76.5 6.82615C80.1092 8.94461 80.6192 15.3785 83.64 18.36C86.6608 21.3415 93.0554 21.8123 95.1738 25.5C97.2923 29.1877 94.4677 34.9154 95.5662 39.0346C96.6646 43.1538 102 46.6454 102 51Z" fill="#109138"/>
<path d="M51 84.3466C69.4165 84.3466 84.3461 69.417 84.3461 51.0005C84.3461 32.5839 69.4165 17.6543 51 17.6543C32.5834 17.6543 17.6538 32.5839 17.6538 51.0005C17.6538 69.417 32.5834 84.3466 51 84.3466Z" fill="#20BF55"/>
<path d="M47.5868 60.2979C47.2003 60.2997 46.8172 60.2243 46.4602 60.0761C46.1031 59.9279 45.7793 59.7099 45.5076 59.4348L36.3668 50.451C35.8158 49.8993 35.5063 49.1515 35.5063 48.3717C35.5063 47.592 35.8158 46.8442 36.3668 46.2925C36.9185 45.7415 37.6664 45.432 38.4461 45.432C39.2258 45.432 39.9736 45.7415 40.5253 46.2925L47.5868 53.2756L61.4745 39.584C62.0312 39.0326 62.7841 38.7249 63.5676 38.7285C64.3512 38.7322 65.1012 39.047 65.6526 39.6037C66.2041 40.1603 66.5118 40.9132 66.5081 41.6968C66.5044 42.4803 66.1896 43.2303 65.633 43.7817L49.6268 59.474C49.362 59.7446 49.044 59.9574 48.6929 60.0992C48.3419 60.241 47.9653 60.3086 47.5868 60.2979Z" fill="#EDEBEA"/>
</g>
<defs>
<clipPath id="clip0_230_1950">
<rect width="102" height="102" fill="white"/>
</clipPath>
</defs>
</svg>
