<svg width="86" height="86" viewBox="0 0 86 86" fill="none" xmlns="http://www.w3.org/2000/svg">
<g clip-path="url(#clip0_228_1420)">
<path d="M76.7565 68.3866C81.4166 61.7163 84.1523 53.602 84.1523 44.8477C84.1523 22.1198 65.7279 3.69531 43 3.69531C20.2721 3.69531 1.84766 22.1198 1.84766 44.8477C1.84766 53.602 4.58336 61.7163 9.24349 68.3866H76.7565Z" fill="#746BF9"/>
<path d="M43 75.9219C61.5533 75.9219 76.5938 60.8814 76.5938 42.3281C76.5938 23.7748 61.5533 8.73438 43 8.73438C24.4467 8.73438 9.40625 23.7748 9.40625 42.3281C9.40625 60.8814 24.4467 75.9219 43 75.9219Z" fill="#5858F4"/>
<path d="M72.1525 59.1987C68.2199 55.7262 51.3936 52.9109 50.9596 52.8389H35.0409C34.6068 52.9108 17.7806 55.7262 13.8479 59.1987C12.4452 60.4371 10.7959 64.1267 9.24707 68.3869C15.1797 76.8789 24.2314 83.0291 34.7424 85.171H51.2579C61.7689 83.0291 70.8205 76.8789 76.7532 68.3869C75.2045 64.1265 73.5552 60.4371 72.1525 59.1987Z" fill="#47477F"/>
<path d="M24.3295 55.0985V55.0977C20.0038 56.2042 15.6186 57.6345 13.8479 59.1981C12.4452 60.4365 10.7959 64.1261 9.24707 68.3863C15.1797 76.8783 24.2314 83.0285 34.7424 85.1704C34.7422 85.1701 24.3295 69.978 24.3295 55.0985Z" fill="#3B3868"/>
<path d="M15.2969 71.6962V75.2784C16.5007 76.3747 17.7682 77.399 19.0928 78.3459L17.0713 71.4419C16.7774 70.4374 15.2969 70.6497 15.2969 71.6962Z" fill="#2D2D59"/>
<path d="M70.7032 71.6962V75.2784C69.4993 76.3747 68.2318 77.399 66.9072 78.3459L68.9287 71.4419C69.2227 70.4374 70.7032 70.6497 70.7032 71.6962Z" fill="#3B3868"/>
<path d="M52.2124 53.0584C51.7952 52.9823 51.3775 52.9091 50.9593 52.8389H35.0406C34.9741 52.85 34.5202 52.9259 33.7875 53.0584C31.3931 62.254 32.3862 74.7333 34.7423 85.1708C35.6954 85.3645 36.6552 85.5241 37.6197 85.6495H48.3805C49.345 85.5241 50.3048 85.3645 51.258 85.1708C53.6137 74.7333 54.6068 62.254 52.2124 53.0584Z" fill="#D3DCFB"/>
<path d="M48.3796 85.6495L48.3849 85.6489C39.4513 79.877 35.0871 71.2645 35.0871 52.8389H35.0406C34.9741 52.85 34.5202 52.9259 33.7875 53.0584C31.3931 62.254 32.3862 74.7333 34.7423 85.1708C35.6954 85.3645 36.6552 85.5241 37.6197 85.6495H48.3796Z" fill="#BEC8F7"/>
<path d="M43.0002 85.9999C44.8258 85.9999 46.6234 85.8798 48.3861 85.6493L45.5459 66.2041H40.4543L37.6143 85.6493C39.4001 85.8829 41.1992 86 43.0002 85.9999Z" fill="#1AA9E8"/>
<path d="M45.6257 67.1592H40.3741C40.1881 67.1592 40.0074 67.0974 39.8602 66.9836C39.7131 66.8698 39.6079 66.7104 39.5612 66.5303L37.457 58.4248H48.543L46.4387 66.5303C46.3919 66.7104 46.2867 66.8698 46.1396 66.9836C45.9925 67.0974 45.8117 67.1592 45.6257 67.1592Z" fill="#42C3FC"/>
<path d="M56.942 6.11793C53.6189 2.36853 48.9433 0 43.1905 0C37.4378 0 34.9626 0.947008 32.6468 2.01562C30.331 3.08424 30.1763 7.73882 30.1763 7.73882C27.2913 10.8824 25.5298 15.0733 25.5298 19.6764V24.7282H60.8513V19.6764C60.8513 15.8116 60.265 9.86732 56.942 6.11793Z" fill="#AC7752"/>
<path d="M25.5298 19.6768V24.7286H32.7266V14.2617C30.9194 13.0805 30.0737 10.2107 30.1763 7.73926C27.2913 10.8826 25.5298 15.0738 25.5298 19.6768Z" fill="#9B6642"/>
<path d="M35.0869 32.5439V52.8388C35.0869 55.9239 38.6295 58.4247 42.9998 58.4247C47.37 58.4247 50.9126 55.9239 50.9126 52.8388V32.5439H35.0869Z" fill="#FCAD6D"/>
<path d="M35.0869 32.5439V52.8387C50.7489 52.8387 50.9113 44.24 50.9125 43.9713V32.5439H35.0869ZM30.3924 26.8022C30.3924 26.8022 28.648 22.5551 25.5386 23.5411C22.4292 24.527 25.6138 33.7307 31.6817 34.3106L30.3924 26.8022Z" fill="#FD995B"/>
<path d="M55.6072 26.8022C55.6072 26.8022 57.3516 22.5551 60.461 23.5411C63.5704 24.527 60.3857 33.7307 54.3179 34.3106L55.6072 26.8022Z" fill="#FCAD6D"/>
<path d="M32.7267 14.2608C30.9929 14.8385 29.715 16.3233 29.2948 18.1018C28.8661 19.916 28.2866 22.7241 28.2866 24.6499C28.2866 35.4847 34.8742 48.1915 43.0002 48.1915C51.1262 48.1915 57.7137 35.4847 57.7137 24.6499C57.7137 24.3687 57.7082 24.2998 57.6995 24.0228C44.025 24.0225 38.8559 12.2188 32.7267 14.2608Z" fill="#F9BA8F"/>
<path d="M46.3596 47.4622C39.8523 44.6146 35.0054 33.9442 35.0054 24.6505C35.0054 20.96 35.772 17.625 37.1009 14.8285C35.6111 14.0795 34.1964 13.7718 32.7267 14.2615C30.9929 14.8391 29.715 16.3239 29.2948 18.1024C28.8661 19.9166 28.2866 22.7247 28.2866 24.6505C28.2866 35.4853 34.8742 48.1922 43.0002 48.1922C44.156 48.1922 45.2805 47.9343 46.3596 47.4622Z" fill="#FCAD6D"/>
<path d="M50.9592 50.3252L42.9998 58.425C42.9998 58.425 46.0783 63.9925 48.0704 63.9925C49.2519 63.9925 50.9437 60.2327 52.1247 57.1734C53.022 54.8488 52.5772 52.2204 50.9592 50.3252ZM35.0404 50.3252L42.9998 58.425C42.9998 58.425 39.9213 63.9925 37.9292 63.9925C36.7477 63.9925 35.0559 60.2327 33.8749 57.1734C32.9776 54.8488 33.4224 52.2204 35.0404 50.3252Z" fill="#E9EFFF"/>
<path d="M40.6506 32.325L42.0676 30.0674C42.4991 29.3799 43.5009 29.3799 43.9324 30.0674L45.3494 32.325C45.8095 33.0582 45.2825 34.0111 44.417 34.0111H41.5832C40.7175 34.011 40.1906 33.0581 40.6506 32.325Z" fill="#FD995B"/>
<path d="M39.5371 40.4582H46.463C47.162 39.8432 47.6844 39.0528 47.9764 38.1686C48.2424 37.3605 47.6289 36.5303 46.7781 36.5303H39.222C38.3713 36.5303 37.7577 37.3605 38.0237 38.1686C38.3157 39.0528 38.8381 39.8432 39.5371 40.4582Z" fill="#2D2D59"/>
<path d="M46.4628 40.4583C45.5401 41.2727 44.3272 41.7681 43 41.7681C41.6727 41.7681 40.4596 41.2729 39.5371 40.4583C40.4609 39.6438 41.6727 39.1484 43 39.1484C44.3272 39.1484 45.539 39.6438 46.4628 40.4583Z" fill="#FF4155"/>
<path d="M52.2381 27.2248C52.2422 26.9221 52.1807 26.6221 52.0576 26.3455C51.9346 26.0689 51.7531 25.8223 51.5256 25.6226C50.7404 24.9292 49.5369 24.9292 48.7516 25.6226C48.5241 25.8223 48.3426 26.0689 48.2196 26.3456C48.0966 26.6222 48.035 26.9221 48.0391 27.2248C48.0483 27.9871 48.9846 28.3529 49.5236 27.8139C49.6043 27.7331 49.7002 27.6691 49.8057 27.6254C49.9112 27.5816 50.0243 27.5591 50.1385 27.5591C50.2527 27.5591 50.3658 27.5816 50.4713 27.6254C50.5768 27.6691 50.6727 27.7331 50.7535 27.8139C51.2926 28.3531 52.2289 27.9872 52.2381 27.2248ZM33.7619 27.2248C33.7578 26.9221 33.8194 26.6221 33.9424 26.3455C34.0654 26.0689 34.2469 25.8223 34.4744 25.6226C35.2597 24.9292 36.4632 24.9292 37.2484 25.6226C37.4759 25.8223 37.6574 26.0689 37.7804 26.3456C37.9034 26.6222 37.965 26.9221 37.961 27.2248C37.9517 27.9871 37.0155 28.3529 36.4765 27.8139C36.3957 27.7331 36.2998 27.6691 36.1943 27.6254C36.0888 27.5816 35.9757 27.5591 35.8615 27.5591C35.7473 27.5591 35.6342 27.5816 35.5287 27.6254C35.4232 27.6691 35.3273 27.7331 35.2466 27.8139C34.7074 28.3531 33.7711 27.9872 33.7619 27.2248Z" fill="#2D2D59"/>
<path d="M37.541 23.3418H34.1816C33.8475 23.3418 33.5271 23.2091 33.2909 22.9728C33.0546 22.7366 32.9219 22.4161 32.9219 22.082C32.9219 21.7479 33.0546 21.4275 33.2909 21.1912C33.5271 20.955 33.8475 20.8223 34.1816 20.8223H37.541C37.8751 20.8223 38.1956 20.955 38.4318 21.1912C38.6681 21.4275 38.8008 21.7479 38.8008 22.082C38.8008 22.4161 38.6681 22.7366 38.4318 22.9728C38.1956 23.2091 37.8751 23.3418 37.541 23.3418ZM51.8184 23.3418H48.459C48.1249 23.3418 47.8044 23.2091 47.5682 22.9728C47.3319 22.7366 47.1992 22.4161 47.1992 22.082C47.1992 21.7479 47.3319 21.4275 47.5682 21.1912C47.8044 20.955 48.1249 20.8223 48.459 20.8223H51.8184C52.1525 20.8223 52.4729 20.955 52.7092 21.1912C52.9454 21.4275 53.0781 21.7479 53.0781 22.082C53.0781 22.4161 52.9454 22.7366 52.7092 22.9728C52.4729 23.2091 52.1525 23.3418 51.8184 23.3418Z" fill="#9B6642"/>
<path d="M39.0941 75.5176L37.6143 85.6493C41.1896 86.1169 44.8107 86.1169 48.3861 85.6493C44.3725 83.0564 41.2817 79.8893 39.0941 75.5176Z" fill="#0997C9"/>
</g>
<defs>
<clipPath id="clip0_228_1420">
<rect width="86" height="86" fill="white"/>
</clipPath>
</defs>
</svg>
