<svg width="30" height="30" viewBox="0 0 30 30" fill="none" xmlns="http://www.w3.org/2000/svg">
<path d="M11.7448 5.625H10.4427C6.7599 5.625 4.91847 5.625 3.77436 6.72335C2.63025 7.8217 2.63025 9.58946 2.63025 13.125V18.125C2.63025 21.6605 2.63025 23.4282 3.77436 24.5266C4.91847 25.625 6.7599 25.625 10.4427 25.625H15.701C19.3839 25.625 21.2253 25.625 22.3694 24.5266C23.1107 23.815 23.3717 22.8224 23.4635 21.25" stroke="#25262C" stroke-width="2" stroke-linecap="round" stroke-linejoin="round"/>
<path d="M20.2084 8.75V4.81694C20.2084 4.57286 20.4145 4.375 20.6687 4.375C20.7907 4.375 20.9079 4.42156 20.9943 4.50444L26.9094 10.1831C27.2043 10.466 27.3697 10.8498 27.3697 11.25C27.3697 11.6502 27.2043 12.034 26.9094 12.3169L20.9943 17.9955C20.9079 18.0785 20.7907 18.125 20.6687 18.125C20.4145 18.125 20.2084 17.9271 20.2084 17.683V13.75H16.3946C11.0938 13.75 9.14062 18.125 9.14062 18.125V15C9.14062 11.5482 12.0554 8.75 15.651 8.75H20.2084Z" stroke="#25262C" stroke-width="2" stroke-linecap="round" stroke-linejoin="round"/>
</svg>
