<svg width="101" height="149" viewBox="0 0 101 149" fill="none" xmlns="http://www.w3.org/2000/svg">
<path d="M73.1816 2.87582C73.0724 2.7137 72.9355 2.58587 72.7698 2.49353C72.6041 2.40119 72.4167 2.33923 72.2086 2.30855C71.998 2.27847 71.7869 2.26855 71.5724 2.27907C71.0099 2.30554 70.4803 2.43458 69.9813 2.66648C69.4823 2.89838 69.0434 3.20398 68.6669 3.58386C68.2902 3.96302 67.9903 4.41138 67.7838 4.90429C67.5729 5.40449 67.4812 5.94139 67.5085 6.51708C67.5305 6.9857 67.6623 7.4083 67.9011 7.78608C68.1363 8.15807 68.3987 8.51215 68.6861 8.84543C68.9503 9.15106 69.2098 9.4607 69.4645 9.77424C69.7 10.0645 69.8234 10.3505 69.8375 10.6318C69.8507 10.9265 69.7885 11.1569 69.6492 11.3245C69.5093 11.4923 69.3289 11.6316 69.1063 11.7426C68.8828 11.8538 68.6434 11.9498 68.3841 12.0286C68.1264 12.1086 67.8875 12.213 67.6647 12.3447C67.447 12.473 67.2627 12.6508 67.1266 12.8636C66.9894 13.0783 66.9298 13.3728 66.9476 13.7473C66.9602 14.0153 67.0309 14.2294 67.1593 14.3915C67.2875 14.5528 67.4439 14.6767 67.6292 14.7615C67.815 14.8457 68.022 14.8999 68.2512 14.9224C68.4804 14.945 68.709 14.9513 68.937 14.9405C69.4853 14.914 70.0336 14.7609 70.5843 14.4794C71.1304 14.2016 71.6263 13.8346 72.0515 13.3935C72.477 12.9546 72.8268 12.4482 73.0868 11.8951C73.3491 11.3398 73.4661 10.7807 73.4397 10.2185C73.4213 9.83019 73.3485 9.50474 73.2222 9.24246C73.0959 8.98018 72.944 8.76001 72.7677 8.57984C72.5918 8.40058 72.3993 8.24236 72.192 8.10461C71.9848 7.96685 71.7932 7.8315 71.619 7.69915C71.4492 7.5719 71.2997 7.41957 71.1757 7.24738C71.0524 7.07924 70.9871 6.87381 70.9751 6.63288C70.9537 6.1781 71.0674 5.8307 71.3173 5.59098C71.5673 5.35125 71.8497 5.13981 72.1631 4.95663C72.4588 4.78617 72.7418 4.59457 73.0098 4.38334C73.2628 4.18332 73.3792 3.88976 73.3608 3.50145C73.3494 3.24729 73.2893 3.03855 73.1816 2.87582ZM66.4943 3.19495C66.3906 3.03608 66.2499 2.90471 66.0844 2.81206C65.9102 2.71652 65.7199 2.65381 65.5231 2.62708C65.3125 2.597 65.1005 2.58738 64.8869 2.5976C64.3245 2.62407 63.7939 2.75341 63.2958 2.98471C62.8065 3.20985 62.3615 3.52075 61.9817 3.90269C61.605 4.28159 61.3051 4.72976 61.0986 5.22252C60.8878 5.72302 60.7963 6.25992 60.8234 6.83561C60.8453 7.30423 60.9771 7.72652 61.2159 8.10461C61.4511 8.4766 61.7135 8.83068 62.0009 9.16396C62.2651 9.46935 62.5243 9.779 62.7785 10.0928C63.0149 10.383 63.1382 10.6691 63.1523 10.9503C63.1656 11.2451 63.1033 11.4755 62.9641 11.643C62.8242 11.8108 62.6431 11.9504 62.4211 12.0611C62.1977 12.1724 61.9582 12.2683 61.699 12.3471C61.4412 12.4271 61.2024 12.5315 60.9795 12.6632C60.7619 12.7915 60.5775 12.9693 60.4414 13.1821C60.3039 13.3972 60.2435 13.6916 60.2615 14.0661C60.2742 14.3341 60.3457 14.5482 60.4739 14.7101C60.6017 14.8713 60.7584 14.9946 60.9437 15.0797C61.1296 15.1645 61.3365 15.2184 61.5657 15.2409C61.7949 15.2635 62.0235 15.2698 62.2515 15.259C62.7992 15.2328 63.3481 15.0794 63.8989 14.7979C64.445 14.5201 64.9408 14.1531 65.3661 13.7121C65.7915 13.2731 66.1413 12.7668 66.4014 12.2136C66.6637 11.6583 66.7807 11.0992 66.7545 10.537C66.7361 10.1487 66.6625 9.82357 66.537 9.56099C66.4107 9.29871 66.2588 9.07854 66.0825 8.89837C65.9077 8.72037 65.7148 8.56109 65.5068 8.42313C65.3114 8.29434 65.1203 8.15911 64.9339 8.01768C64.764 7.89042 64.6145 7.73809 64.4905 7.56591C64.3672 7.39777 64.3019 7.19234 64.2899 6.95141C64.2685 6.49663 64.3822 6.14923 64.6319 5.9095C64.8876 5.66559 65.1712 5.45267 65.4768 5.27516C65.7728 5.1047 66.0561 4.913 66.3244 4.70157C66.5773 4.50155 66.6937 4.20799 66.6754 3.81968C66.6637 3.56582 66.6029 3.35768 66.4943 3.19495ZM56.6374 7.47748C56.4727 7.66448 56.2758 7.82044 56.056 7.93797C55.8274 8.0631 55.5847 8.16567 55.326 8.24417C55.0682 8.32418 54.8469 8.38854 54.6613 8.43697C54.664 8.20928 54.6956 7.95963 54.7563 7.68832C54.8171 7.41732 54.9091 7.16106 55.0318 6.92073C55.1474 6.68876 55.3087 6.48251 55.5059 6.31436C55.6993 6.15103 55.9429 6.0623 56.2374 6.04847C56.4389 6.03854 56.5896 6.12547 56.6925 6.30864C56.7959 6.49152 56.8513 6.66988 56.8594 6.84403C56.8705 7.08466 56.7962 7.29641 56.6374 7.47748ZM59.9911 10.9401C59.7695 10.7761 59.5243 10.7003 59.2572 10.713C59.0151 10.7244 58.7817 10.8032 58.5531 10.9482C58.3158 11.1 58.0853 11.2622 57.8622 11.4343C57.6319 11.611 57.391 11.7735 57.1409 11.9209C56.8934 12.0674 56.6356 12.1465 56.3679 12.1591C56.0064 12.1766 55.6912 12.1044 55.4217 11.9432C55.1525 11.7814 54.9816 11.5076 54.91 11.1223C55.5104 11.0667 56.093 10.9013 56.6573 10.6264C57.2206 10.3511 57.7133 10.0028 58.1356 9.58024C58.5593 9.15638 58.8979 8.65527 59.133 8.10401C59.3733 7.54245 59.4789 6.9472 59.4494 6.31857C59.4257 5.83672 59.3126 5.4063 59.1071 5.02611C58.9075 4.65594 58.639 4.32732 58.3161 4.0579C57.9945 3.7917 57.6234 3.59138 57.2002 3.45784C56.7752 3.32313 56.3295 3.26578 55.8843 3.2885C55.0818 3.3267 54.399 3.57424 53.8371 4.03052C53.2756 4.48651 52.8187 5.04446 52.4677 5.70497C52.1176 6.36549 51.8664 7.08225 51.7157 7.85376C51.5638 8.62586 51.5046 9.34623 51.5365 10.0152C51.5662 10.6444 51.6941 11.2857 51.92 11.939C52.1377 12.5769 52.4551 13.1763 52.8602 13.7151C53.2539 14.2398 53.7507 14.6784 54.3202 15.0039C54.8917 15.3324 55.5332 15.4795 56.2428 15.4455C56.657 15.4259 57.1075 15.3002 57.5927 15.0692C58.0779 14.8382 58.5299 14.5416 58.9489 14.1795C59.3673 13.8176 59.7102 13.4122 59.9779 12.9631C60.2438 12.5147 60.3668 12.0629 60.3445 11.6075C60.3316 11.3263 60.2146 11.1037 59.9911 10.9401ZM50.6242 7.72352L50.6146 7.5229C50.5906 7.0681 50.5042 6.61875 50.358 6.18743C50.2091 5.73806 50.0028 5.33561 49.7381 4.97919C49.4765 4.6265 49.1395 4.33671 48.7515 4.13099C48.3593 3.92164 47.9027 3.8293 47.38 3.85427C46.5369 3.89427 45.8213 4.15655 45.2345 4.64021C44.6468 5.12507 44.1754 5.71761 43.8196 6.41873C43.4603 7.13149 43.2053 7.89223 43.0626 8.67759C42.9137 9.48309 42.8541 10.2272 42.8866 10.9097C42.9149 11.4992 43.0126 12.1179 43.1775 12.7676C43.3423 13.4173 43.5913 14.0126 43.9264 14.5531C44.2492 15.0822 44.6864 15.5323 45.2059 15.8705C45.7251 16.2083 46.3459 16.3592 47.0693 16.325C47.4705 16.306 47.8886 16.2022 48.3223 16.014C48.7493 15.8298 49.1448 15.5799 49.4945 15.2734C49.84 14.971 50.1292 14.6098 50.3487 14.2066C50.5677 13.8124 50.6717 13.3647 50.6489 12.9144C50.637 12.6142 50.52 12.3277 50.3183 12.105C50.1132 11.8734 49.8434 11.7654 49.5086 11.782C49.2472 11.7921 48.9984 11.897 48.8087 12.077C48.6213 12.2487 48.4384 12.4251 48.2601 12.6061C48.0913 12.7934 47.9079 12.9669 47.7117 13.1252C47.524 13.2744 47.3171 13.355 47.0897 13.3656C46.8614 13.3764 46.6728 13.2886 46.5233 13.1015C46.3739 12.9138 46.2523 12.6885 46.1588 12.4247C46.0665 12.1603 45.9988 11.8854 45.9585 11.5988C45.9182 11.3121 45.8935 11.0682 45.8845 10.8676C45.8722 10.6137 45.9025 10.2765 45.9765 9.85726C46.0502 9.43827 46.1549 9.0274 46.2902 8.62526C46.4256 8.22311 46.5889 7.87331 46.7835 7.57523C46.9775 7.27776 47.1878 7.12346 47.4158 7.11203C47.5761 7.10481 47.6925 7.15324 47.7647 7.2564C47.8363 7.36047 47.8895 7.50605 47.9262 7.69193L47.9539 8.27395C47.9719 8.36689 47.9827 8.45712 47.9866 8.54405C47.9906 8.63097 48.008 8.70737 48.0381 8.77324C48.2498 9.28608 48.6171 9.52941 49.1398 9.50474C49.4878 9.4882 49.7841 9.3709 50.0274 9.15102C50.2695 8.93474 50.4509 8.65893 50.5535 8.35095L50.6031 8.13709L50.6128 7.92564L50.6242 7.72352ZM42.051 8.13228L42.0414 7.93166C42.0174 7.47686 41.9311 7.02751 41.7848 6.59619C41.6446 6.16268 41.4353 5.75467 41.1649 5.38795C40.9034 5.03526 40.5663 4.74547 40.1784 4.53975C39.787 4.3298 39.3296 4.23806 38.8068 4.26273C37.964 4.30333 37.2481 4.56561 36.6613 5.04927C36.0736 5.53413 35.6032 6.12637 35.2465 6.82779C34.8912 7.52861 34.6392 8.28177 34.4894 9.08666C34.3405 9.89215 34.2809 10.6363 34.3134 11.3188C34.3417 11.9083 34.4395 12.527 34.6043 13.1767C34.7691 13.8264 35.0182 14.4216 35.3541 14.9618C35.6763 15.4915 36.1136 15.9418 36.6337 16.2792C37.1519 16.6173 37.7736 16.768 38.4961 16.734C38.8973 16.7145 39.3154 16.6113 39.7491 16.423C40.1762 16.2389 40.5717 15.9891 40.9213 15.6825C41.2687 15.3781 41.5532 15.022 41.7755 14.6156C41.9978 14.2093 42.0979 13.7788 42.0766 13.3232C42.0648 13.0228 41.9474 12.7363 41.7451 12.5141C41.54 12.2825 41.2702 12.1745 40.9354 12.191C40.674 12.201 40.4252 12.3059 40.2355 12.4861C40.0483 12.6579 39.8654 12.8343 39.6869 13.0152C39.5182 13.2025 39.3348 13.3761 39.1386 13.5343C38.9509 13.6835 38.7439 13.7641 38.5165 13.7746C38.2883 13.7855 38.1006 13.6973 37.9502 13.5105C37.8007 13.3229 37.6792 13.0976 37.5865 12.8332C37.4923 12.5655 37.425 12.2892 37.3856 12.0081C37.3497 11.7657 37.325 11.5217 37.3116 11.2769C37.2993 11.0231 37.3297 10.6859 37.4037 10.2666C37.4773 9.84763 37.582 9.43677 37.7174 9.03462C37.8527 8.63248 38.0169 8.28267 38.2107 7.98459C38.4047 7.68712 38.6149 7.53282 38.8429 7.52139C39.0032 7.51417 39.1196 7.5626 39.1918 7.66577C39.2634 7.76984 39.3166 7.91541 39.3533 8.1013L39.381 8.68331C39.399 8.77625 39.4108 8.86618 39.4147 8.95311C39.4186 9.04004 39.4351 9.11674 39.4652 9.18261C39.677 9.69544 40.0442 9.93877 40.567 9.91411C40.9147 9.89726 41.2112 9.78026 41.4546 9.56039C41.6969 9.3443 41.8783 9.06843 41.9806 8.76031L42.0303 8.54645L42.0408 8.3347L42.051 8.13228ZM33.3909 9.89395C33.3505 9.522 33.2927 9.15213 33.2177 8.78558C33.1357 8.38356 33.036 7.98534 32.919 7.59207C32.7996 7.18903 32.6546 6.82719 32.485 6.50625C32.3153 6.18562 32.1123 5.92725 31.8747 5.73084C31.6374 5.53443 31.3712 5.44239 31.0767 5.45623C30.8725 5.46363 30.6739 5.52552 30.5016 5.63549C30.3339 5.74257 30.19 5.88292 30.0787 6.04786C29.9645 6.21807 29.8781 6.4054 29.8228 6.60281C29.7668 6.80014 29.7429 7.00517 29.7518 7.21008C29.7572 7.3307 29.7689 7.42394 29.7858 7.49041C29.8802 8.07663 29.9816 8.65173 30.089 9.21569C30.196 9.78146 30.264 10.3581 30.292 10.947C30.3049 11.2147 30.3052 11.5098 30.2938 11.8322C30.2841 12.1413 30.2346 12.448 30.1464 12.7445C30.0592 13.0308 29.916 13.2723 29.7184 13.4696C29.5187 13.6667 29.245 13.7737 28.8973 13.7909C28.6293 13.8035 28.4187 13.7358 28.2653 13.5891C28.1089 13.4426 27.9868 13.257 27.8954 13.0335C27.8046 12.8069 27.7425 12.5699 27.7104 12.3279C27.6812 12.1051 27.6608 11.8812 27.6493 11.6568C27.6299 11.2542 27.6342 10.8507 27.6623 10.4486C27.6896 10.0449 27.7206 9.6413 27.7555 9.23675C27.7949 8.94018 27.831 8.64331 27.8644 8.34644C27.9216 7.82105 27.9062 7.29029 27.8184 6.76914C27.7811 6.52872 27.7092 6.29498 27.6048 6.07523C27.4998 5.85867 27.3642 5.68091 27.1963 5.54105C27.0288 5.40148 26.811 5.33832 26.5433 5.35065C26.2618 5.36419 26.0113 5.51007 25.7893 5.78949C25.5685 6.06862 25.3763 6.39617 25.2121 6.77275C25.0517 7.14315 24.922 7.52614 24.8244 7.91782C24.7293 8.30463 24.6668 8.60631 24.6361 8.82257C24.487 9.6141 24.4309 10.4204 24.4692 11.2249C24.5032 11.9529 24.6083 12.6758 24.7829 13.3833C24.9582 14.0865 25.2283 14.7104 25.5965 15.2566C25.9616 15.7999 26.4569 16.2431 27.0372 16.546C27.628 16.86 28.3522 16.9972 29.2089 16.9557C30.0793 16.9142 30.7964 16.7057 31.3628 16.3301C31.9175 15.9655 32.3743 15.4704 32.6931 14.8881C33.0138 14.3028 33.23 13.645 33.3425 12.9153C33.4555 12.1881 33.4947 11.4514 33.4595 10.7163C33.4447 10.4416 33.4218 10.1673 33.3909 9.89395ZM23.0095 1.69586C22.6621 1.43087 22.2533 1.30936 21.7847 1.33131C21.1958 1.35929 20.6089 1.56141 20.023 1.93829C19.433 2.31891 18.9057 2.78881 18.4599 3.33121C18.0073 3.87575 17.6363 4.48316 17.3584 5.13439C17.0802 5.78468 16.9559 6.39767 16.9833 6.97337C17.0059 7.44168 17.1647 7.89707 17.4613 8.33861C17.7624 8.7873 18.0887 9.21861 18.4385 9.63047C18.7758 10.0271 19.1006 10.4343 19.4124 10.8513C19.7054 11.2469 19.8615 11.6388 19.8801 12.0265C19.8934 12.3077 19.8329 12.5757 19.6976 12.8302C19.5622 13.0846 19.3917 13.3313 19.1892 13.5686C18.9748 13.8187 18.7479 14.058 18.5095 14.2854C18.2673 14.5158 18.0403 14.7618 17.83 15.0217C17.6341 15.2623 17.4645 15.5231 17.3241 15.7998C17.1892 16.067 17.1269 16.365 17.1436 16.6639C17.1656 17.1193 17.3424 17.4523 17.6745 17.6649C18.0066 17.8767 18.3795 17.9732 18.7946 17.9537C19.1691 17.9356 19.5532 17.8198 19.9451 17.6072C20.3514 17.3835 20.7273 17.1086 21.0634 16.7891C21.4271 16.4446 21.7596 16.0685 22.0569 15.6653C22.3574 15.2603 22.6228 14.8303 22.8501 14.3801C23.0699 13.9401 23.2417 13.506 23.3617 13.078C23.4811 12.6494 23.5343 12.268 23.519 11.9326C23.4958 11.4508 23.408 11.033 23.2576 10.6778C23.1162 10.3409 22.9356 10.0217 22.7195 9.72702C22.5169 9.45535 22.2888 9.20365 22.0382 8.97537C21.8067 8.76477 21.5816 8.5472 21.3633 8.32297C21.1687 8.1236 20.9933 7.90638 20.8393 7.67419C20.6953 7.45281 20.6156 7.20196 20.602 6.92043C20.587 6.5992 20.6402 6.30864 20.7617 6.04756C20.8859 5.78393 21.0513 5.54177 21.2517 5.3302C21.4577 5.11077 21.684 4.91127 21.9276 4.73435C22.1647 4.56105 22.4049 4.39189 22.6479 4.22693C22.9041 4.07064 23.1298 3.86905 23.3139 3.63199C23.4964 3.39467 23.581 3.12307 23.5665 2.81477C23.5431 2.33412 23.3581 1.96085 23.0095 1.69586Z" fill="#FF5420"/>
<path d="M74.9857 19.411C74.9728 18.8611 79.492 0.327004 79.492 0.327004C79.492 0.327004 82.7558 -1.26172 83.8076 2.56452L76.3603 19.3788L74.9857 19.411ZM79.2547 19.617C79.3281 19.3571 84.1234 11.3088 84.1234 11.3088C84.1234 11.3088 85.8848 11.0339 85.8265 12.9818L79.9047 19.8005L79.2547 19.617ZM16.2452 22.5436C16.1222 22.0076 7.17638 5.15815 7.17638 5.15815C7.17638 5.15815 3.62204 4.42214 3.54504 8.38975L14.905 22.8513L16.2452 22.5436ZM12.1582 23.7949C12.0232 23.5609 5.39274 16.9422 5.39274 16.9422C5.39274 16.9422 3.61813 17.1094 4.15443 18.983L11.5735 24.1326L12.1582 23.7949Z" fill="#FF5420"/>
<path d="M84.4155 136.525C84.4155 136.525 83.3564 118.464 81.9244 105.835C82.0026 104.815 82.0225 103.747 81.9756 102.625C81.8598 99.8624 80.9896 93.8246 78.4654 87.6652C89.0599 85.5305 107.663 59.4889 97.3728 49.3525C94.8099 46.8275 88.4399 44.3921 83.3546 49.3811C81.9178 50.7906 82.9029 52.4837 82.9029 52.4837C82.9029 52.4837 79.5455 54.572 83.844 58.7074C83.844 58.7074 77.5796 68.2335 64.7221 71.8411C61.3615 70.2839 57.3777 69.4721 52.6572 69.7909C48.7161 70.0571 45.3777 70.9405 42.5431 72.2585C25.1553 71.531 16.1478 59.155 16.1478 59.155C20.245 54.8202 16.7923 52.8936 16.7923 52.8936C16.7923 52.8936 17.6956 51.1557 16.1938 49.8161C10.8775 45.0739 4.63056 47.8092 2.19002 50.4528C-7.17902 60.603 16.4242 86.8937 28.2999 90.8161C26.8442 96.1015 26.5641 100.944 26.4077 103.327C26.3334 104.447 26.3546 105.571 26.4712 106.687C26.1638 106.673 25.9963 106.667 25.9963 106.667C25.8817 107.182 25.7852 107.701 25.7069 108.223C24.8843 108.458 24.1254 108.762 23.4441 109.142C22.6113 109.605 21.8518 110.189 21.1904 110.875C20.6399 111.444 20.1809 112.05 19.7851 112.662C19.0927 113.733 18.5847 114.818 18.1053 115.839C17.7467 116.606 17.4062 117.34 17.0414 118.019C16.4934 119.04 15.8999 119.927 15.1284 120.683C14.3533 121.438 13.3971 122.091 11.9768 122.615C11.7161 122.712 11.3302 122.786 10.8688 122.79C10.2895 122.798 9.59706 122.696 8.90466 122.475C7.86215 122.146 6.83047 121.549 6.07401 120.783C5.69352 120.399 5.3783 119.977 5.13828 119.517C4.89002 119.042 4.72501 118.527 4.65041 117.997C4.55468 117.389 4.2239 116.844 3.72955 116.479C3.23521 116.114 2.61701 115.958 2.00859 116.045C1.40017 116.132 0.850392 116.455 0.478091 116.944C0.105789 117.433 -0.0591311 118.049 0.0189791 118.658C0.217275 120.052 0.725753 121.383 1.50694 122.554C2.06339 123.391 2.73142 124.116 3.46172 124.73C4.55867 125.652 5.79338 126.332 7.06207 126.789C8.33257 127.244 9.63887 127.481 10.9202 127.469C11.8264 127.458 12.7243 127.323 13.5866 127.008C14.9137 126.522 16.0617 125.901 17.0411 125.181C17.8525 124.585 18.59 123.895 19.238 123.124C20.3142 121.848 21.0496 120.503 21.6593 119.262C22.1159 118.33 22.5042 117.452 22.8913 116.675C23.1809 116.093 23.4691 115.569 23.7708 115.115C24.2078 114.459 24.6608 113.959 25.2196 113.553C24.7519 123.167 25.7003 136.266 25.7003 136.266C25.7003 136.266 15.083 140.526 20.9897 145.931C26.3024 150.793 36.5696 148.658 39.1299 143.492C40.86 139.173 42.7374 132.164 47.6534 124.853C50.6678 125.275 54.0243 125.417 57.7419 125.222C58.9104 125.16 60.1241 125.045 61.3582 124.865C67.0538 132.35 69.2751 139.741 71.235 144.197C73.9667 149.274 86.5956 149.227 89.4464 146.028C94.7735 140.05 84.4155 136.525 84.4155 136.525Z" fill="#FF9B50"/>
<path d="M94.5982 53.5C94.5982 53.5 95.6353 56.0657 94.3621 56.8261C93.534 57.4261 92.4789 57.2062 91.825 56.9698C92.6269 54.5356 91.6286 49.8194 83.2022 52.3874C83.2022 52.3874 88.8539 51.4836 90.0826 53.7864C92.0882 57.5452 88.2674 58.231 88.2674 58.231C88.2674 58.231 89.9295 58.671 91.0063 58.0445C94.338 60.0384 96.8017 56.9608 96.0251 55.0487C96.0251 55.0487 97.2607 55.3252 97.7814 53.8285C95.7183 55.1167 94.5982 53.5 94.5982 53.5ZM16.4889 52.8118C7.95034 50.6468 7.17673 55.4049 8.09351 57.7985C7.45165 58.0656 6.40824 58.3354 5.55251 57.7753C4.24472 57.0763 5.15879 54.4643 5.15879 54.4643C5.15879 54.4643 4.11658 56.1325 1.99487 54.9432C2.58591 56.4137 3.80708 56.0786 3.80708 56.0786C3.1222 58.0256 5.72937 60.9826 8.96247 58.8329C10.0678 59.4077 11.7074 58.8891 11.7074 58.8891C11.7074 58.8891 7.8583 58.3856 9.68314 54.5356C10.8008 52.1772 16.4889 52.8118 16.4889 52.8118Z" fill="#822A12"/>
<path d="M52.8199 75.2143C33.3043 77.4777 26.1042 120.403 57.328 117.636C88.5043 114.872 72.1788 73.2893 52.8199 75.2143Z" fill="#F3C798"/>
<path d="M41.9662 121.493C41.9662 121.493 51.1827 125.982 61.326 123.478C72.1111 120.815 75.9187 114.234 75.9187 114.234C73.5428 124.792 51.9398 129.759 41.9662 121.493Z" fill="#822A12"/>
<path d="M79.6211 57.1702C79.4072 56.7575 78.8433 56.5493 78.0062 56.5226C79.6274 52.6777 79.4175 49.4362 75.9801 48.1407L69.8267 30.0487C71.3658 24.3209 69.8292 12.3354 64.8431 12.1381C61.773 12.0166 55.6675 18.7062 53.8321 22.7572C47.3602 22.4263 40.1959 23.5341 34.1733 25.5412C31.5617 21.9523 23.2706 16.3066 19.7479 17.8947C15.382 19.8627 17.4887 32.8812 20.7808 37.1447L21.3859 55.699C21.3859 55.699 18.906 57.2724 19.3788 60.1807C19.6185 61.6548 20.3666 63.0814 21.4972 64.4379C20.5326 64.754 19.959 65.1733 19.885 65.6901C19.7226 66.8276 22.0022 68.1884 25.6964 69.3933C25.4125 69.6059 25.2413 69.8445 25.2037 70.1089C24.918 72.1091 32.1777 74.8004 41.4183 76.1203C47.8622 77.0407 53.5644 77.05 56.5247 76.2935C56.614 76.2779 56.7001 76.2604 56.7873 76.2433C56.8342 76.2586 56.8763 76.274 56.9244 76.2893C57.0216 76.2439 57.1575 76.1879 57.3133 76.1269C58.0451 75.9452 58.823 75.6646 59.6339 75.2955C60.9113 74.8507 62.2344 74.3866 62.7391 74.1249C71.026 69.8282 76.9896 64.8909 76.0595 63.0973C75.9365 62.8603 75.6965 62.6919 75.3581 62.5848C78.4477 60.2273 80.1502 58.1901 79.6211 57.1702Z" fill="#FF9B50"/>
<path d="M30.5104 26.9344C27.7285 24.0824 23.4823 20.5948 21.779 20.6824C19.8149 20.7834 20.5834 27.8569 21.945 32.8556C23.6255 30.6247 26.6914 28.5887 30.5104 26.9344ZM64.4905 15.7141C62.8865 16.0019 59.8702 19.8865 57.8472 23.1635C61.517 23.7467 64.7904 24.8975 67.2701 26.7311C67.3116 21.6942 66.3385 15.3826 64.4905 15.7141Z" fill="#FF5420"/>
<path d="M78.0062 56.5226C78.7861 54.6728 79.1362 52.9655 78.9127 51.5446C76.1221 52.357 73.1934 52.6789 70.3847 52.4184C64.1657 51.8412 58.887 48.7287 54.7787 44.1899C50.6558 39.6346 49.2771 33.2971 49.5622 27.3363C49.6353 25.8104 49.949 24.249 50.4441 22.7096C46.9866 22.7872 43.4272 23.2267 40.0229 23.9552C43.3559 28.3818 44.4892 34.1315 44.2291 39.5717C43.9544 45.3131 40.3508 51.5663 36.0003 55.1778C31.5235 58.8942 25.2347 60.8719 19.4266 60.4126C19.704 61.8043 20.4261 63.153 21.4972 64.4379C20.5326 64.754 19.959 65.1733 19.885 65.6901C19.7226 66.8276 22.0022 68.1884 25.6964 69.3933C25.4125 69.6059 25.2413 69.8445 25.2037 70.1089C24.918 72.1091 32.1777 74.8004 41.4183 76.1203C47.8622 77.0407 53.5644 77.05 56.5247 76.2935C56.614 76.2779 56.7001 76.2604 56.7873 76.2433C56.8342 76.2586 56.8763 76.274 56.9244 76.2893C57.0216 76.2439 57.1575 76.1879 57.3133 76.1269C58.0451 75.9452 58.823 75.6646 59.6339 75.2955C60.9113 74.8507 62.2344 74.3866 62.7391 74.1249C71.026 69.8282 76.9896 64.8909 76.0595 63.0973C75.9365 62.8603 75.6965 62.6919 75.3581 62.5848C78.4474 60.2276 80.1499 58.1904 79.6211 57.1704C79.4072 56.7575 78.8433 56.5493 78.0062 56.5226Z" fill="#F3C798"/>
<path d="M55.1038 34.5616C54.095 35.3328 53.494 34.2485 53.9368 33.3711C54.3795 32.4938 55.7493 28.5352 59.4639 28.2804C63.1788 28.0257 66.0276 31.725 67.551 33.4963C68.9304 35.1 68.1833 35.8421 67.6021 35.3987C58.7198 28.6224 57.0243 33.0932 55.1038 34.5616ZM38.6986 36.526C39.8842 36.9802 40.1537 35.7702 39.4809 35.054C38.8081 34.3378 36.3741 30.9285 32.7389 31.7355C29.1036 32.5425 27.4184 36.8969 26.4583 39.0267C25.589 40.9553 26.5157 41.4555 26.9476 40.8657C33.5495 31.8531 36.4409 35.6613 38.6986 36.526Z" fill="#822A12"/>
<path d="M63.1864 55.1598C67.4481 54.4939 70.1923 49.4062 69.3158 43.7961C68.4393 38.1859 64.2739 34.1778 60.0123 34.8436C55.7506 35.5095 53.0063 40.5972 53.8829 46.2073C54.7594 51.8175 58.9247 55.8256 63.1864 55.1598Z" fill="white"/>
<path d="M61.9472 53.1249C64.8321 52.6742 66.6531 48.9962 66.0147 44.9097C65.3762 40.8233 62.52 37.876 59.6352 38.3268C56.7504 38.7775 54.9293 42.4556 55.5678 46.542C56.2062 50.6284 59.0624 53.5757 61.9472 53.1249Z" fill="#95C23D"/>
<path d="M61.2944 50.8837C63.1639 50.5916 64.3477 48.231 63.9384 45.6112C63.5291 42.9915 61.6817 41.1045 59.8121 41.3966C57.9426 41.6887 56.7588 44.0492 57.1681 46.669C57.5774 49.2888 59.4248 51.1757 61.2944 50.8837Z" fill="#822A12"/>
<path d="M63.4534 43.7138C63.4276 43.7174 63.4029 43.7234 63.3767 43.7261C63.0212 43.7656 62.6613 43.7255 62.3232 43.6088C61.985 43.492 61.6771 43.3015 61.4216 43.051C61.1662 42.8006 60.9697 42.4965 60.8463 42.1607C60.7229 41.8249 60.6757 41.4659 60.7082 41.1096C60.757 40.5808 60.9789 40.0829 61.3396 39.6931C61.7003 39.3033 62.1795 39.0435 62.703 38.9539C62.7502 38.9458 62.7968 38.9362 62.845 38.9308C63.1598 38.8959 63.4785 38.9233 63.7827 39.0116C64.087 39.0998 64.3709 39.2471 64.6182 39.4451C64.8655 39.6431 65.0714 39.8878 65.2242 40.1654C65.3769 40.4429 65.4735 40.7478 65.5084 41.0627C65.5566 41.4981 65.4845 41.9384 65.2999 42.3356C65.1319 42.7014 64.8748 43.0192 64.5522 43.2599C64.2297 43.5007 63.8519 43.6567 63.4534 43.7138Z" fill="white"/>
<path d="M37.6528 58.5189C41.9212 57.8977 44.7186 52.8391 43.9009 47.2201C43.0831 41.601 38.96 37.5495 34.6916 38.1707C30.4231 38.7918 27.6258 43.8505 28.4435 49.4695C29.2612 55.0885 33.3844 59.1401 37.6528 58.5189Z" fill="white"/>
<path d="M38.0329 56.8839C40.941 56.6228 42.9987 53.0717 42.6289 48.9523C42.2591 44.8329 39.6018 41.7051 36.6936 41.9662C33.7855 42.2273 31.7278 45.7784 32.0976 49.8978C32.4674 54.0172 35.1247 57.145 38.0329 56.8839Z" fill="#95C23D"/>
<path d="M38.0021 54.6033C39.8868 54.4341 41.2224 52.1561 40.9853 49.5151C40.7482 46.8742 39.0282 44.8704 37.1436 45.0396C35.2589 45.2088 33.9233 47.4869 34.1604 50.1278C34.3975 52.7688 36.1175 54.7725 38.0021 54.6033Z" fill="#822A12"/>
<path d="M39.4157 47.3142C39.3898 47.3163 39.3645 47.3202 39.3384 47.3214C38.9809 47.3368 38.6245 47.2725 38.295 47.1332C37.9655 46.9939 37.6711 46.783 37.4332 46.5158C37.1952 46.2486 37.0197 45.9319 36.9193 45.5885C36.8189 45.2451 36.7962 44.8837 36.8527 44.5304C36.937 44.0061 37.1921 43.5242 37.5783 43.1597C37.9645 42.7951 38.4602 42.5682 38.9886 42.5143C39.0361 42.5095 39.0833 42.5029 39.1317 42.5007C39.4482 42.4872 39.7643 42.5361 40.0619 42.6447C40.3595 42.7533 40.6328 42.9195 40.8662 43.1337C41.0996 43.3479 41.2885 43.606 41.4221 43.8932C41.5558 44.1805 41.6315 44.4912 41.6451 44.8077C41.6637 45.2454 41.5621 45.6798 41.3512 46.0638C41.1588 46.4174 40.8808 46.7171 40.5427 46.9355C40.2046 47.154 39.8171 47.2841 39.4157 47.3142Z" fill="white"/>
<path d="M63.245 56.8847C62.8973 58.3709 61.6322 60.3927 57.5298 60.3443C54.7248 60.3118 53.7135 58.2542 52.9739 56.8402C52.9387 56.7735 52.8824 56.7204 52.8137 56.6891C52.7451 56.6579 52.668 56.6503 52.5946 56.6675L52.3687 56.7181C52.3018 56.7329 52.2406 56.767 52.1928 56.8162C52.1449 56.8654 52.1125 56.9274 52.0995 56.9948C50.5105 64.7664 41.7169 63.4899 38.5481 60.6776C38.1665 60.8707 38.7506 65.0533 43.431 65.3045C43.5345 65.3099 44.7506 73.4617 53.5938 72.2534C62.9298 70.9778 61.6334 62.8829 61.6334 62.8829C66.023 58.1877 63.245 56.8847 63.245 56.8847Z" fill="#822A12"/>
<path d="M45.0904 58.4789C45.0779 58.3889 45.0391 58.3047 44.9788 58.2369C44.9185 58.169 44.8394 58.1206 44.7515 58.0977C44.6637 58.0748 44.571 58.0785 44.4853 58.1082C44.3995 58.138 44.3245 58.1925 44.2697 58.2649C44.2149 58.3373 44.1829 58.4243 44.1775 58.515C44.1722 58.6056 44.1939 58.6958 44.2398 58.7741C44.2858 58.8524 44.3539 58.9153 44.4356 58.9549C44.5173 58.9945 44.6089 59.009 44.6988 58.9965C44.8194 58.9798 44.9284 58.9159 45.0018 58.8188C45.0752 58.7217 45.1071 58.5994 45.0904 58.4789ZM43.4208 60.7317C43.4126 60.672 43.3927 60.6145 43.3623 60.5624C43.3319 60.5104 43.2915 60.4648 43.2435 60.4284C43.1955 60.3919 43.1408 60.3653 43.0825 60.35C43.0242 60.3347 42.9634 60.331 42.9037 60.3392C42.844 60.3474 42.7865 60.3672 42.7344 60.3976C42.6824 60.428 42.6368 60.4684 42.6004 60.5164C42.5639 60.5644 42.5373 60.6191 42.522 60.6774C42.5067 60.7358 42.503 60.7965 42.5112 60.8562C42.5277 60.9768 42.5915 61.086 42.6884 61.1596C42.7854 61.2332 42.9076 61.2653 43.0282 61.2487C43.1489 61.2322 43.258 61.1685 43.3316 61.0715C43.4052 60.9746 43.4373 60.8523 43.4208 60.7317ZM47.0178 60.2366C47.0096 60.1769 46.9897 60.1194 46.9592 60.0673C46.9288 60.0153 46.8884 59.9698 46.8404 59.9334C46.7923 59.8969 46.7376 59.8703 46.6793 59.8551C46.6209 59.8398 46.5602 59.8362 46.5005 59.8444C46.4407 59.8526 46.3832 59.8725 46.3312 59.903C46.2792 59.9334 46.2336 59.9738 46.1972 60.0218C46.1608 60.0699 46.1342 60.1246 46.1189 60.1829C46.1037 60.2413 46.1 60.302 46.1082 60.3617C46.1282 60.4794 46.1932 60.5846 46.2894 60.6552C46.3856 60.7257 46.5055 60.7561 46.6236 60.7398C46.7418 60.7236 46.8491 60.662 46.9226 60.568C46.9962 60.4741 47.0303 60.3553 47.0178 60.2366ZM59.3065 55.7938C59.29 55.6732 59.2263 55.564 59.1293 55.4904C59.0323 55.4168 58.9101 55.3847 58.7895 55.4013C58.6689 55.4178 58.5598 55.4815 58.4861 55.5785C58.4125 55.6754 58.3804 55.7977 58.397 55.9183C58.4135 56.0389 58.4772 56.148 58.5742 56.2216C58.6712 56.2953 58.7934 56.3273 58.914 56.3108C59.0346 56.2943 59.1437 56.2306 59.2174 56.1336C59.291 56.0366 59.323 55.9144 59.3065 55.7938ZM57.6372 58.0463C57.6207 57.9257 57.5569 57.8166 57.46 57.743C57.363 57.6694 57.2408 57.6373 57.1201 57.6538C56.9995 57.6703 56.8904 57.7341 56.8168 57.831C56.7432 57.928 56.7111 58.0502 56.7276 58.1709C56.7441 58.2915 56.8079 58.4006 56.9049 58.4742C57.0018 58.5478 57.1241 58.5799 57.2447 58.5634C57.3653 58.5469 57.4744 58.4831 57.548 58.3861C57.6216 58.2892 57.6537 58.1669 57.6372 58.0463ZM61.2339 57.5509C61.2257 57.4912 61.2058 57.4337 61.1754 57.3817C61.1449 57.3296 61.1045 57.2841 61.0565 57.2477C61.0084 57.2113 60.9537 57.1847 60.8954 57.1694C60.8371 57.1541 60.7763 57.1505 60.7166 57.1587C60.6569 57.1669 60.5993 57.1868 60.5473 57.2173C60.4953 57.2477 60.4498 57.2881 60.4133 57.3362C60.3769 57.3842 60.3503 57.4389 60.335 57.4973C60.3198 57.5556 60.3162 57.6163 60.3244 57.6761C60.341 57.7967 60.4049 57.9059 60.502 57.9795C60.599 58.0531 60.7213 58.0851 60.842 58.0686C60.9626 58.0518 61.0715 57.9879 61.145 57.8908C61.2185 57.7938 61.2505 57.6715 61.2339 57.5509Z" fill="#822A12"/>
<path d="M45.1278 55.2473C45.9675 56.836 50.9545 58.2776 53.2783 58.0087C55.9237 57.7028 60.6243 54.5428 59.4877 52.912C59.1096 52.3706 58.0809 52 56.1207 51.9567C55.0896 51.9341 53.8113 51.9994 52.219 52.1835C49.9983 52.4401 48.3891 52.7622 47.254 53.1222C45.2327 53.7608 44.7425 54.5188 45.1278 55.2473Z" fill="#822A12"/>
<path d="M51.4556 53.7172C51.7506 54.6445 56.377 54.1684 56.2142 53.1463C56.18 52.9315 55.7637 52.8266 55.1191 52.7857C54.7801 52.764 54.3584 52.7679 53.8318 52.8067C53.0972 52.8606 52.5634 52.9445 52.1847 53.0473C51.5106 53.2293 51.3386 53.472 51.4556 53.7172ZM45.4742 63.5945C45.5928 64.4448 46.6103 66.1037 47.4044 65.8745C48.1548 65.6579 48.4947 63.8541 48.3894 62.9635C47.4528 63.4077 46.4518 63.6342 45.4742 63.5945ZM49.5754 53.8754C49.6563 54.4448 50.7788 54.1993 50.7292 53.5731C50.7187 53.4414 50.6164 53.3734 50.4588 53.3418C50.3761 53.3253 50.2732 53.3235 50.1454 53.3421C49.967 53.368 49.8377 53.4137 49.7465 53.4729C49.5838 53.5776 49.5444 53.7244 49.5754 53.8754Z" fill="white"/>
<path d="M47.6934 69.655C47.7794 70.6885 49.7884 71.3652 52.1811 71.1661C54.5735 70.967 56.4425 69.9675 56.3565 68.9337C56.2705 67.899 54.2619 67.2223 51.8692 67.4217C49.4765 67.6208 47.6071 68.6203 47.6934 69.655Z" fill="#FF5420"/>
<path d="M34.5636 60.5999C37.6111 60.2941 39.9967 59.1991 39.8918 58.1541C39.787 57.1092 37.2314 56.51 34.1839 56.8158C31.1363 57.1216 28.7508 58.2166 28.8556 59.2615C28.9605 60.3065 31.516 60.9057 34.5636 60.5999Z" fill="#FF5420"/>
<path d="M68.8044 56.1176C71.852 55.8118 74.2375 54.7168 74.1327 53.6719C74.0278 52.6269 71.4723 52.0278 68.4247 52.3336C65.3772 52.6394 62.9916 53.7343 63.0965 54.7793C63.2013 55.8242 65.7569 56.4234 68.8044 56.1176Z" fill="#FF5420"/>
<path d="M83.462 44.9825C75.3349 47.3518 70.7705 49.9773 70.7462 49.9914C70.6956 50.0205 70.6513 50.0593 70.6157 50.1056C70.5801 50.1519 70.554 50.2047 70.5388 50.2611C70.5236 50.3174 70.5197 50.3762 70.5273 50.4341C70.5348 50.492 70.5537 50.5478 70.5828 50.5984C70.612 50.649 70.6508 50.6933 70.6971 50.7289C70.7433 50.7645 70.7962 50.7906 70.8525 50.8058C70.9089 50.8209 70.9677 50.8248 71.0255 50.8173C71.0834 50.8097 71.1392 50.7908 71.1898 50.7617L71.238 50.7343C71.7418 50.4522 76.1702 48.0339 83.7107 45.8358C83.8239 45.8028 83.9193 45.7262 83.976 45.6229C84.0327 45.5196 84.046 45.3979 84.013 45.2848C83.98 45.1716 83.9035 45.0762 83.8001 45.0195C83.6968 44.9628 83.5752 44.9495 83.462 44.9825ZM88.9179 50.9091C81.4432 51.1223 74.9466 52.2761 74.9339 52.2782C74.8765 52.2885 74.8215 52.3099 74.7723 52.3413C74.7231 52.3728 74.6806 52.4136 74.6472 52.4615C74.6137 52.5093 74.5901 52.5633 74.5775 52.6203C74.5649 52.6774 74.5637 52.7363 74.5739 52.7938C74.5841 52.8513 74.6056 52.9062 74.637 52.9554C74.6684 53.0046 74.7093 53.0471 74.7571 53.0806C74.805 53.114 74.859 53.1377 74.916 53.1502C74.973 53.1628 75.032 53.164 75.0895 53.1538C75.0898 53.1538 75.1875 53.1364 75.3776 53.1048C76.7077 52.8834 82.4688 51.9823 88.9431 51.7979C89.061 51.7945 89.1727 51.7445 89.2537 51.6588C89.3347 51.5731 89.3783 51.4587 89.3749 51.3409C89.3716 51.223 89.3215 51.1113 89.2358 51.0303C89.1501 50.9493 89.0357 50.9057 88.9179 50.9091ZM84.6393 58.1375C84.623 58.1336 81.7713 57.4006 77.6464 57.0177C76.0394 56.867 74.4263 56.7914 72.8122 56.7912C72.6943 56.7913 72.5813 56.8383 72.4981 56.9218C72.4148 57.0053 72.3681 57.1184 72.3683 57.2363C72.3684 57.3542 72.4154 57.4672 72.4989 57.5505C72.5824 57.6338 72.6955 57.6804 72.8134 57.6803C74.5077 57.6782 76.1154 57.7684 77.5643 57.9029C79.2257 58.0566 80.8792 58.2869 82.5193 58.5931C83.1233 58.7068 83.6001 58.8085 83.9246 58.8816C84.087 58.9183 84.2113 58.9475 84.2946 58.9676C84.3779 58.9878 84.4179 58.998 84.4179 58.998C84.5304 59.0227 84.6481 59.0028 84.7462 58.9425C84.8443 58.8822 84.9152 58.7861 84.9439 58.6746C84.9726 58.563 84.9569 58.4447 84.9 58.3445C84.8432 58.2443 84.7497 58.1701 84.6393 58.1375ZM14.8752 57.7037C19.0139 57.0559 22.3778 56.8405 24.7035 56.787C25.8663 56.7602 26.7698 56.774 27.3807 56.7942C27.6699 56.8038 27.9589 56.8178 28.2476 56.8363L28.3029 56.8405C28.3611 56.8454 28.4197 56.8387 28.4753 56.8209C28.5309 56.8032 28.5825 56.7746 28.6271 56.7369C28.6716 56.6992 28.7083 56.6531 28.7351 56.6012C28.7619 56.5493 28.7781 56.4926 28.783 56.4344C28.7878 56.3763 28.7812 56.3177 28.7634 56.2621C28.7456 56.2065 28.7171 56.1549 28.6794 56.1103C28.6417 56.0657 28.5956 56.029 28.5437 56.0023C28.4918 55.9755 28.4351 55.9593 28.3769 55.9544C28.3489 55.952 23.1009 55.5156 14.7377 56.8249C14.6228 56.8449 14.5205 56.9093 14.4526 57.0041C14.3847 57.0989 14.3568 57.2166 14.3748 57.3318C14.3928 57.447 14.4554 57.5505 14.5489 57.6201C14.6425 57.6896 14.7597 57.7197 14.8752 57.7037ZM12.6725 65.3243C16.0662 63.8472 19.349 62.6808 21.7811 61.8843C22.9971 61.4861 24.0009 61.1805 24.6996 60.9744C25.0491 60.8716 25.3222 60.7934 25.5075 60.7413C25.6931 60.689 25.789 60.6634 25.7893 60.6631C25.8457 60.6479 25.8985 60.6218 25.9447 60.5861C25.991 60.5505 26.0298 60.5061 26.0589 60.4555C26.088 60.4049 26.1068 60.3491 26.1144 60.2912C26.1219 60.2333 26.1179 60.1745 26.1027 60.1181C26.0875 60.0617 26.0613 60.0089 26.0257 59.9627C25.9901 59.9164 25.9457 59.8776 25.8951 59.8485C25.8445 59.8194 25.7887 59.8006 25.7308 59.793C25.6729 59.7855 25.6141 59.7895 25.5577 59.8047C25.5454 59.8083 19.1742 61.5249 12.3176 64.5089C12.2095 64.556 12.1245 64.6441 12.0813 64.7538C12.0381 64.8636 12.0403 64.986 12.0874 65.0941C12.1344 65.2022 12.2225 65.2872 12.3323 65.3304C12.442 65.3736 12.5644 65.3714 12.6725 65.3243ZM19.8296 69.9188L19.8744 69.8824C20.334 69.5094 24.3034 66.353 29.7735 63.7937C29.8786 63.7427 29.9595 63.6524 29.9985 63.5422C30.0376 63.4321 30.0317 63.311 29.9822 63.2052C29.9327 63.0993 29.8434 63.0172 29.7338 62.9767C29.6242 62.9361 29.5031 62.9404 29.3966 62.9885C23.4528 65.7713 19.2816 69.2194 19.2636 69.2336C19.1764 69.3098 19.1224 69.4169 19.113 69.5323C19.1036 69.6477 19.1396 69.7622 19.2134 69.8515C19.2871 69.9407 19.3927 69.9977 19.5078 70.0102C19.6229 70.0228 19.7384 69.99 19.8296 69.9188Z" fill="#822A12"/>
</svg>
