<svg width="187" height="37" viewBox="0 0 187 37" fill="none" xmlns="http://www.w3.org/2000/svg">
<g filter="url(#filter0_d_130_200)">
<path d="M20.2071 1.18104V5.10025H14.1957V22H10.0408V5.10025H3.99989V1.18104H20.2071ZM29.3537 6.36736H30.0167V10.4192H29.3537C27.9589 10.4192 26.8686 10.8023 26.0828 11.5684C25.3068 12.3346 24.9188 13.3758 24.9188 14.692V22H20.9996V6.61784H24.9188V8.60691C26.0975 7.11388 27.5758 6.36736 29.3537 6.36736ZM46.8691 14.3384C46.8691 14.8295 46.8397 15.2912 46.7807 15.7234H34.861C35.1361 16.6958 35.6616 17.4669 36.4376 18.0366C37.2135 18.6063 38.1565 18.8912 39.2665 18.8912C40.1603 18.8912 40.9805 18.7143 41.727 18.3607C42.4735 17.9973 43.0629 17.5405 43.4951 16.9905L46.1177 19.289C45.3024 20.2614 44.2907 21.0177 43.0825 21.558C41.8842 22.0982 40.5729 22.3683 39.1486 22.3683C37.5377 22.3683 36.079 22.0147 34.7726 21.3075C33.4662 20.6003 32.4447 19.6278 31.708 18.3902C30.9713 17.1427 30.6029 15.7627 30.6029 14.25C30.6029 12.757 30.9566 11.4014 31.6638 10.1834C32.3808 8.95561 33.3631 7.993 34.6106 7.2956C35.8678 6.59819 37.2577 6.24949 38.7802 6.24949C41.0885 6.24949 43.0138 7.02056 44.5559 8.56271C46.0981 10.095 46.8691 12.0203 46.8691 14.3384ZM41.2408 10.5518C40.5336 9.97225 39.7036 9.68248 38.7508 9.68248C37.798 9.68248 36.968 9.97225 36.2608 10.5518C35.5535 11.1215 35.0771 11.8877 34.8316 12.8503H42.6847C42.4392 11.8877 41.9578 11.1215 41.2408 10.5518ZM58.0343 6.24949C59.8514 6.24949 61.3052 6.79464 62.3955 7.88495C63.4956 8.96543 64.0457 10.4094 64.0457 12.2167V22H60.1117V13.4838C60.1117 12.4426 59.8023 11.6126 59.1835 10.9938C58.5745 10.3652 57.7592 10.0508 56.7377 10.0508C55.667 10.0508 54.7977 10.375 54.1298 11.0233C53.4717 11.6617 53.1426 12.5065 53.1426 13.5575V22H49.2234V6.61784H53.1426V8.32697C54.3803 6.94198 56.0108 6.24949 58.0343 6.24949ZM78.8206 0.267538H82.7398V22H78.8206V20.1583C77.4749 21.6317 75.8051 22.3683 73.8111 22.3683C71.6698 22.3683 69.882 21.5973 68.4479 20.0551C67.0138 18.513 66.2968 16.5976 66.2968 14.3089C66.2968 12.0203 67.0138 10.1049 68.4479 8.56271C69.882 7.02056 71.6698 6.24949 73.8111 6.24949C75.8149 6.24949 77.4847 6.98127 78.8206 8.44484V0.267538ZM74.5625 18.567C75.7805 18.567 76.7922 18.1594 77.5977 17.3441C78.413 16.5288 78.8206 15.5171 78.8206 14.3089C78.8206 13.1007 78.413 12.089 77.5977 11.2737C76.7922 10.4585 75.7805 10.0508 74.5625 10.0508C73.3543 10.0508 72.3475 10.4585 71.5421 11.2737C70.7366 12.089 70.3339 13.1007 70.3339 14.3089C70.3339 15.5171 70.7366 16.5288 71.5421 17.3441C72.3475 18.1594 73.3543 18.567 74.5625 18.567ZM96.8222 6.61784H101.198L93.5955 24.6816C93.1731 25.7326 92.5396 26.5626 91.6948 27.1716C90.8501 27.7904 89.9219 28.0998 88.9101 28.0998C88.2127 28.0998 87.4908 27.9574 86.7443 27.6725C86.0076 27.3877 85.3838 27.0144 84.8731 26.5528L86.3759 23.4734C86.8965 24.0235 87.5202 24.2985 88.2471 24.2985C89.0427 24.2985 89.6272 23.8958 90.0004 23.0903L90.634 21.7643L84.3574 6.61784H88.8217L92.8441 17.0789L96.8222 6.61784ZM109.299 22.3683C106.951 22.3683 104.982 21.5973 103.39 20.0551C101.809 18.513 101.018 16.5976 101.018 14.3089C101.018 12.0203 101.809 10.1049 103.39 8.56271C104.982 7.02056 106.951 6.24949 109.299 6.24949C110.831 6.24949 112.216 6.59328 113.454 7.28086C114.701 7.96844 115.678 8.90159 116.386 10.0803L112.967 12.1283C112.614 11.4997 112.113 10.9987 111.465 10.6255C110.826 10.2424 110.104 10.0508 109.299 10.0508C108.09 10.0508 107.084 10.4585 106.278 11.2737C105.473 12.089 105.07 13.1007 105.07 14.3089C105.07 15.5171 105.473 16.5288 106.278 17.3441C107.084 18.1594 108.09 18.567 109.299 18.567C110.094 18.567 110.816 18.3804 111.465 18.0071C112.113 17.624 112.614 17.1133 112.967 16.4748L116.386 18.5228C115.678 19.7113 114.701 20.6494 113.454 21.337C112.216 22.0246 110.831 22.3683 109.299 22.3683ZM129.849 6.61784H133.768V22H129.849V20.1583C128.504 21.6317 126.834 22.3683 124.84 22.3683C122.698 22.3683 120.911 21.5973 119.477 20.0551C118.043 18.513 117.325 16.5976 117.325 14.3089C117.325 12.0203 118.043 10.1049 119.477 8.56271C120.911 7.02056 122.698 6.24949 124.84 6.24949C126.844 6.24949 128.513 6.98127 129.849 8.44484V6.61784ZM125.591 18.567C126.809 18.567 127.821 18.1594 128.626 17.3441C129.442 16.5288 129.849 15.5171 129.849 14.3089C129.849 13.1007 129.442 12.089 128.626 11.2737C127.821 10.4585 126.809 10.0508 125.591 10.0508C124.383 10.0508 123.376 10.4585 122.571 11.2737C121.765 12.089 121.363 13.1007 121.363 14.3089C121.363 15.5171 121.765 16.5288 122.571 17.3441C123.376 18.1594 124.383 18.567 125.591 18.567ZM145.464 6.36736H146.127V10.4192H145.464C144.069 10.4192 142.979 10.8023 142.193 11.5684C141.417 12.3346 141.029 13.3758 141.029 14.692V22H137.11V6.61784H141.029V8.60691C142.208 7.11388 143.686 6.36736 145.464 6.36736ZM157.778 10.1982H153.638V16.5927C153.638 17.9089 154.345 18.567 155.76 18.567C156.359 18.567 157.032 18.3951 157.778 18.0513V21.7053C156.963 22.1473 156.005 22.3683 154.905 22.3683C153.186 22.3683 151.89 21.9116 151.016 20.9981C150.151 20.0748 149.719 18.8175 149.719 17.2262V10.1982H147.273V6.61784H149.719V2.71336H153.638V6.61784H157.778V10.1982Z" fill="#25262C"/>
<path d="M177.467 23.6092C176.464 23.6092 175.643 22.7908 175.643 21.7905C175.643 20.7902 176.464 19.9718 177.467 19.9718C178.471 19.9718 179.292 20.7902 179.292 21.7905C179.292 22.7908 178.471 23.6092 177.467 23.6092ZM166.518 23.6092C165.515 23.6092 164.694 22.7908 164.694 21.7905C164.694 20.7902 165.515 19.9718 166.518 19.9718C167.522 19.9718 168.343 20.7902 168.343 21.7905C168.343 22.7908 167.522 23.6092 166.518 23.6092ZM177.011 18.153H165.606C164.055 18.153 162.869 16.9708 162.869 15.4249V3.6031H160.131C159.584 3.6031 159.219 3.23935 159.219 2.69373C159.219 2.14811 159.584 1.78436 160.131 1.78436H163.781C164.329 1.78436 164.694 2.14811 164.694 2.69373V5.42184H179.566C180.935 5.42184 182.03 6.51308 182.03 7.87714C182.03 8.14995 182.03 8.33182 181.938 8.60463L179.657 16.1524C179.292 17.3346 178.197 18.153 177.011 18.153Z" fill="#3D5EF3"/>
</g>
<defs>
<filter id="filter0_d_130_200" x="0" y="0.26754" width="186.03" height="35.8323" filterUnits="userSpaceOnUse" color-interpolation-filters="sRGB">
<feFlood flood-opacity="0" result="BackgroundImageFix"/>
<feColorMatrix in="SourceAlpha" type="matrix" values="0 0 0 0 0 0 0 0 0 0 0 0 0 0 0 0 0 0 127 0" result="hardAlpha"/>
<feOffset dy="4"/>
<feGaussianBlur stdDeviation="2"/>
<feComposite in2="hardAlpha" operator="out"/>
<feColorMatrix type="matrix" values="0 0 0 0 0 0 0 0 0 0 0 0 0 0 0 0 0 0 0.25 0"/>
<feBlend mode="normal" in2="BackgroundImageFix" result="effect1_dropShadow_130_200"/>
<feBlend mode="normal" in="SourceGraphic" in2="effect1_dropShadow_130_200" result="shape"/>
</filter>
</defs>
</svg>
