<svg width="149" height="149" viewBox="0 0 149 149" fill="none" xmlns="http://www.w3.org/2000/svg">
<path d="M74.5 148.932C115.645 148.932 149 146.99 149 144.595C149 142.199 115.645 140.257 74.5 140.257C33.3548 140.257 0 142.199 0 144.595C0 146.99 33.3548 148.932 74.5 148.932Z" fill="#E6E6E6"/>
<path d="M84.4553 34.3613H83.6538V12.5967C83.6538 9.25583 82.315 6.05182 79.9319 3.68948C77.5487 1.32715 74.3165 0 70.9462 0H24.4289C21.0586 0 17.8263 1.32715 15.4432 3.68948C13.06 6.05182 11.7212 9.25583 11.7212 12.5967V131.998C11.7212 135.339 13.06 138.543 15.4432 140.906C17.8263 143.268 21.0586 144.595 24.4289 144.595H70.9462C74.3165 144.595 77.5487 143.268 79.9319 140.906C82.315 138.543 83.6538 135.339 83.6538 131.998V49.8536H84.4553V34.3613Z" fill="#3F3D56"/>
<path d="M80.9488 12.6847V131.911C80.9488 134.406 79.9489 136.798 78.1691 138.563C76.3894 140.327 73.9755 141.318 71.4586 141.318H24.7181C22.2012 141.318 19.7874 140.327 18.0077 138.563C16.228 136.798 15.2281 134.406 15.228 131.911V12.6847C15.2281 10.1898 16.228 7.79698 18.0077 6.03277C19.7875 4.26855 22.2013 3.2774 24.7183 3.27734H30.3886C30.11 3.95602 30.0038 4.69218 30.0796 5.42106C30.1553 6.14994 30.4105 6.8492 30.8229 7.45734C31.2352 8.06547 31.792 8.56384 32.4443 8.90861C33.0965 9.25337 33.8243 9.43396 34.5635 9.43449H61.2128C61.952 9.434 62.6798 9.25343 63.332 8.90868C63.9843 8.56393 64.5412 8.06557 64.9535 7.45743C65.3659 6.84929 65.6212 6.15001 65.6969 5.42111C65.7727 4.69222 65.6665 3.95604 65.3879 3.27734H71.4586C73.9755 3.2774 76.3894 4.26855 78.1691 6.03277C79.9489 7.79698 80.9488 10.1898 80.9488 12.6847Z" fill="white"/>
<path d="M36.8205 102.954H35.8374L36.1656 83.9209H36.4938L36.8205 102.954Z" fill="#E6E6E6"/>
<path d="M37.6391 71.9381L39.2258 69.5074C38.7552 68.219 38.2118 66.9579 37.5979 65.7302L36.572 66.5517L37.3844 65.3072C36.6101 63.7966 36.001 62.8447 36.001 62.8447C36.001 62.8447 32.8192 67.8151 31.7557 73.0784L33.7918 76.1977L31.5382 74.393C31.4579 75.0061 31.4166 75.6235 31.4146 76.2417C31.4146 82.4748 33.4682 87.5275 36.0014 87.5275C38.5346 87.5275 40.5882 82.4741 40.5882 76.2417C40.5882 74.3095 40.1471 72.2879 39.538 70.4177L37.6391 71.9381Z" fill="#CCCCCC"/>
<path d="M62.4103 102.954H61.4272L61.7554 83.9209H62.0836L62.4103 102.954Z" fill="#E6E6E6"/>
<path d="M63.2293 71.9381L64.816 69.5074C64.3455 68.219 63.802 66.9579 63.1882 65.7302L62.1622 66.5517L62.9746 65.3072C62.2003 63.7966 61.5912 62.8447 61.5912 62.8447C61.5912 62.8447 58.409 67.8155 57.3465 73.0784L59.3811 76.1973L57.1275 74.3925C57.0473 75.0056 57.006 75.6231 57.0039 76.2413C57.0039 82.4743 59.0575 87.5271 61.5907 87.5271C64.124 87.5271 66.1776 82.4737 66.1776 76.2413C66.1776 74.3091 65.7365 72.2875 65.1274 70.4173L63.2293 71.9381Z" fill="#CCCCCC"/>
<path d="M36.0724 39.8631C41.0606 39.8631 45.1043 35.8547 45.1043 30.91C45.1043 25.9654 41.0606 21.957 36.0724 21.957C31.0842 21.957 27.0405 25.9654 27.0405 30.91C27.0405 35.8547 31.0842 39.8631 36.0724 39.8631Z" fill="#E6E6E6"/>
<path d="M48.5819 100.183H46.5552L47.2308 60.9385H47.9062L48.5819 100.183Z" fill="#E6E6E6"/>
<path d="M50.2711 36.2304L53.5428 31.2191C52.5725 28.5624 51.4519 25.9621 50.1862 23.4305L48.0707 25.1241L49.7458 22.558C48.1486 19.4431 46.8933 17.4805 46.8933 17.4805C46.8933 17.4805 40.3321 27.7296 38.14 38.5812L42.3371 45.0129L37.6895 41.2918C37.524 42.5559 37.4388 43.8291 37.4346 45.1038C37.4346 57.9558 41.6689 68.3743 46.8922 68.3743C52.1156 68.3743 56.3499 57.9558 56.3499 45.1038C56.3499 41.1196 55.4406 36.9513 54.1862 33.0953L50.2711 36.2304Z" fill="#CCCCCC"/>
<path d="M80.9488 105.84V132.518C80.9488 137.929 76.7 142.316 71.4585 142.316H24.718C19.4768 142.316 15.2278 137.929 15.2275 132.518V108.44C23.3313 98.6194 35.048 92.7499 47.5354 92.2556C60.0227 91.7613 72.1405 96.6876 80.9488 105.84Z" fill="#E6E6E6"/>
<path opacity="0.2" d="M48.1397 132.156C55.7776 132.156 61.9694 126.018 61.9694 118.447C61.9694 110.876 55.7776 104.738 48.1397 104.738C40.5018 104.738 34.3101 110.876 34.3101 118.447C34.3101 126.018 40.5018 132.156 48.1397 132.156Z" fill="#3D5EF3"/>
<path d="M48.1395 129.486C54.2896 129.486 59.2751 124.544 59.2751 118.448C59.2751 112.351 54.2896 107.409 48.1395 107.409C41.9895 107.409 37.0039 112.351 37.0039 118.448C37.0039 124.544 41.9895 129.486 48.1395 129.486Z" fill="#3D5EF3"/>
<path d="M46.8406 123.167L42.916 118.166L45.1983 116.406L47.0563 118.774L53.3333 112.206L55.4325 114.177L46.8406 123.167Z" fill="white"/>
<path d="M107.316 101.279C111.304 101.279 114.537 98.0749 114.537 94.122C114.537 90.1692 111.304 86.9648 107.316 86.9648C103.329 86.9648 100.096 90.1692 100.096 94.122C100.096 98.0749 103.329 101.279 107.316 101.279Z" fill="#2F2E41"/>
<path d="M110.243 134.301L110.799 136.902L121.185 136.013L120.364 132.174L110.243 134.301Z" fill="#FFB8B8"/>
<path d="M109.434 142.43L107.686 134.254L110.872 133.585L111.945 138.602C112.033 139.016 112.039 139.445 111.961 139.861C111.882 140.278 111.722 140.676 111.489 141.031C111.256 141.387 110.954 141.693 110.602 141.933C110.249 142.173 109.852 142.342 109.434 142.43Z" fill="#2F2E41"/>
<path d="M103.736 134.163L102.567 136.556L92.6992 133.225L94.4246 129.693L103.736 134.163Z" fill="#FFB8B8"/>
<path d="M101.043 137.936L103.297 133.32L106.229 134.728L102.555 142.249C101.778 141.876 101.182 141.212 100.898 140.403C100.614 139.594 100.667 138.707 101.043 137.936Z" fill="#2F2E41"/>
<path d="M84.2933 129.436C84.6311 129.498 84.9786 129.486 85.3113 129.401C85.644 129.316 85.9538 129.16 86.219 128.943C86.4841 128.726 86.698 128.455 86.8458 128.147C86.9935 127.84 87.0714 127.504 87.074 127.163L103.347 112.291L99.3056 109.188L84.5725 124.792C83.9948 124.825 83.4494 125.067 83.04 125.473C82.6305 125.878 82.3853 126.418 82.3509 126.991C82.3165 127.563 82.4952 128.129 82.8533 128.579C83.2114 129.03 83.7239 129.335 84.2935 129.436L84.2933 129.436Z" fill="#FFB8B8"/>
<path d="M106.41 101.602C109.378 101.602 111.784 99.2171 111.784 96.2752C111.784 93.3332 109.378 90.9482 106.41 90.9482C103.443 90.9482 101.037 93.3332 101.037 96.2752C101.037 99.2171 103.443 101.602 106.41 101.602Z" fill="#FFB8B8"/>
<path d="M111.233 127.588C107.464 127.588 102.924 126.801 100.123 123.581L100.06 123.508L100.126 123.437C100.147 123.414 102.207 121.08 100.15 116.917L97.3208 117.78L94.5049 114.095L96.0649 109.456L102.449 104.359C103.363 103.633 104.477 103.195 105.645 103.103C107.76 102.901 109.819 102.319 111.724 101.387C112.596 100.967 113.556 100.759 114.525 100.78L114.651 100.783C114.945 100.791 115.235 100.859 115.503 100.981C115.77 101.104 116.01 101.279 116.207 101.496C116.404 101.714 116.555 101.968 116.65 102.245C116.745 102.521 116.783 102.814 116.76 103.106C116.327 108.664 115.563 122.092 117.808 126.716L117.866 126.835L117.737 126.868C115.602 127.344 113.421 127.585 111.234 127.588L111.233 127.588Z" fill="#3D5EF3"/>
<path d="M100.862 123.509C100.862 123.509 86.6406 122.208 85.109 126.329C83.5774 130.45 85.3278 132.402 87.9533 133.269C90.5789 134.137 96.924 135.221 96.924 135.221L99.7683 131.751L107.207 132.185C107.207 132.185 115.496 136.95 117.788 142.047C118.28 143.15 119.064 144.101 120.057 144.797C121.05 145.493 122.215 145.91 123.428 146.003C125.266 146.129 126.899 145.442 126.899 142.595C126.899 136.088 117.71 126.762 117.71 126.762L100.862 123.509Z" fill="#2F2E41"/>
<path d="M90.0317 129.907C90.0317 129.907 93.7513 128.823 99.6588 131.642L90.0317 129.907Z" fill="#2F2E41"/>
<path d="M101.05 92.8781C103.149 94.1481 105.515 94.9208 107.964 95.1363L107.235 94.2707C107.766 94.4651 108.324 94.5749 108.889 94.5961C109.172 94.6042 109.453 94.5465 109.71 94.4275C109.966 94.3085 110.191 94.1316 110.366 93.9109C110.509 93.6818 110.594 93.4218 110.614 93.1531C110.633 92.8844 110.587 92.6149 110.479 92.3678C110.257 91.8748 109.911 91.4463 109.475 91.1231C108.701 90.5166 107.789 90.1091 106.818 89.9372C105.847 89.7652 104.848 89.8339 103.911 90.1373C103.267 90.3277 102.691 90.6939 102.248 91.194C102.03 91.4458 101.879 91.7473 101.808 92.0714C101.737 92.3955 101.748 92.732 101.84 93.0508" fill="#2F2E41"/>
<path d="M107.278 88.6201C108.233 86.4223 109.662 84.4586 111.465 82.8674C112.623 81.8481 113.975 80.9712 115.501 80.7066C117.027 80.442 118.746 80.8953 119.682 82.1187C120.448 83.1192 120.591 84.4596 120.506 85.7123C120.422 86.965 120.14 88.2065 120.167 89.461C120.194 90.7418 120.544 91.9955 121.185 93.1083C121.825 94.221 122.736 95.1577 123.834 95.8331C124.932 96.5085 126.183 96.9014 127.473 96.9761C128.763 97.0507 130.052 96.8047 131.222 96.2605C129.904 96.9825 128.878 98.1257 127.655 98.995C126.433 99.8643 124.819 100.461 123.43 99.8864C121.96 99.2791 121.286 97.6267 120.759 96.1365L118.411 89.4911C118.012 88.3613 117.593 87.1982 116.779 86.3148C115.964 85.4314 114.642 84.8927 113.521 85.3369C112.671 85.6735 112.118 86.4773 111.633 87.2455C111.148 88.0137 110.636 88.8331 109.817 89.2363C108.998 89.6395 107.782 89.3913 107.514 88.5238" fill="#2F2E41"/>
<path d="M109.122 127.606C109.029 127.606 108.936 127.601 108.844 127.591C108.233 127.523 107.671 127.225 107.274 126.759C106.877 126.292 106.675 125.693 106.71 125.084C106.745 124.475 107.015 123.903 107.462 123.484C107.91 123.066 108.503 122.833 109.118 122.834C109.225 122.835 109.332 122.843 109.439 122.858L116.785 115.105L116.019 112.571L119.869 110.859L120.949 113.475C121.311 114.361 121.375 115.339 121.132 116.264C120.888 117.189 120.351 118.012 119.598 118.61L111.512 124.986C111.52 125.064 111.524 125.142 111.525 125.22C111.525 125.556 111.453 125.888 111.315 126.194C111.177 126.5 110.975 126.775 110.723 126.999C110.284 127.391 109.713 127.608 109.122 127.606Z" fill="#FFB8B8"/>
<path d="M114.865 101.821C115.12 101.709 115.395 101.649 115.674 101.645C115.952 101.641 116.229 101.692 116.487 101.797C116.745 101.901 116.979 102.056 117.175 102.253C117.371 102.449 117.526 102.683 117.628 102.94L121.429 112.449L115.522 116.353L114.865 101.821Z" fill="#3D5EF3"/>
</svg>
