<svg width="22" height="19" viewBox="0 0 22 19" fill="none" xmlns="http://www.w3.org/2000/svg">
<path d="M18.1689 12.9102C19.9399 10.874 21.5 8.403 21.5 5.94434C21.4999 2.70202 19.0984 0 15.75 0C14.1582 0 12.6162 0.51268 10.75 2.21484C8.8838 0.51268 7.34184 0 5.75 0C2.40156 0 5e-05 2.70202 0 5.94434C0 8.403 1.5601 10.874 3.33105 12.9102C5.12954 14.9779 7.2791 16.7469 8.71191 17.8184L8.9443 17.9785C10.1312 18.7241 11.6485 18.6704 12.7881 17.8184L13.3574 17.3848C14.7532 16.3 16.5953 14.7194 18.1689 12.9102Z" fill="#ACACAC"/>
</svg>
